<?xml version="1.0" encoding="utf-8"?>
<!-- Generator: Adobe Illustrator 17.0.0, SVG Export Plug-In . SVG Version: 6.00 Build 0)  -->
<!DOCTYPE svg PUBLIC "-//W3C//DTD SVG 1.1//EN" "http://www.w3.org/Graphics/SVG/1.1/DTD/svg11.dtd">
<svg version="1.1" id="图层_1" xmlns="http://www.w3.org/2000/svg" xmlns:xlink="http://www.w3.org/1999/xlink" x="0px" y="0px"
	 width="1024px" height="1024px" viewBox="-487.259 -490.539 1024 1024" enable-background="new -487.259 -490.539 1024 1024"
	 xml:space="preserve">
<g>
	<g>
		<path fill="#333333" d="M25.491,533.522c-282.361,0-512-229.703-512-512s229.703-512,512-512s512,229.703,512,512
			S307.788,533.522,25.491,533.522z M25.491-426.494c-247.042,0-448.016,200.974-448.016,448.016s200.974,448.016,448.016,448.016
			S473.507,268.5,473.507,21.522S272.597-426.494,25.491-426.494z"/>
	</g>
	<g>
		<path fill="#333333" d="M1.113,87.425c-17.66,0-31.992-14.332-31.992-31.992v-325.295c0-17.66,14.332-31.992,31.992-31.992
			s31.992,14.332,31.992,31.992V55.369C33.105,73.093,18.836,87.425,1.113,87.425z"/>
	</g>
	<g>
		<path fill="#333333" d="M203.75,87.425H1.113c-17.66,0-31.992-14.332-31.992-31.992s14.332-31.992,31.992-31.992H203.75
			c17.66,0,31.992,14.332,31.992,31.992S221.474,87.425,203.75,87.425z"/>
	</g>
</g>
</svg>
