<?xml version="1.0" encoding="utf-8"?>
<!-- Generator: Adobe Illustrator 18.1.0, SVG Export Plug-In . SVG Version: 6.00 Build 0)  -->
<svg version="1.1" id="图层_1" xmlns="http://www.w3.org/2000/svg" xmlns:xlink="http://www.w3.org/1999/xlink" x="0px" y="0px"
	 viewBox="0 0 1024 1024" enable-background="new 0 0 1024 1024" xml:space="preserve">
<g>
	<path fill="#333333" d="M170,668.9h138c40,0,60,17,60,51c0,32-18,49-54,51H56c-38,0-57-17-57-51c0-12,5-25,15-39c10-12,26-30,48-54
		c66-72,114-130,144-174c18-26,27-50,27-72c-4-36-22-56-54-60c-32,0-55,22-69,66c-12,38-29,57-51,57c-36-2-55-20-57-54
		c12-104,72-162,180-174c108,6,165,59,171,159c0,54-45,133-135,237C196,637.9,180,656.9,170,668.9z"/>
	<path fill="#333333" d="M556.9,650.9h-186c-32-2-50-17-54-45c0-12,4-24,12-36l171-309c16-32,42-47,78-45c58,4,88,36,90,96v237h12
		c34,2,52,19,54,51c-2,32-20,49-54,51h-12v66c0,36-19,54-57,54c-38,2-56-16-54-54V650.9z M556.9,548.9v-213h-3l-102,213H556.9z"/>
</g>
<g>
	<path fill="#333333" d="M758.4,727.1V492.3c1.8-34.6,19.1-52.8,51.9-54.6c32.8,1.8,50.1,20.1,51.9,54.6v65h50.4v-65
		c1.8-34.6,20-52.8,54.6-54.6c32.8,1.8,50.1,20.1,51.9,44v234.8c-1.8,43.4-19.1,59.8-51.9,59.8c-34.6,0-52.8-16.4-54.6-49.2v-71.4
		h-50.4v71.4c-1.8,32.8-19.1,49.2-51.9,49.2C777.6,776.2,760.2,759.9,758.4,727.1z"/>
</g>
</svg>
