<?xml version="1.0" encoding="utf-8"?>
<!-- Generator: Adobe Illustrator 17.0.0, SVG Export Plug-In . SVG Version: 6.00 Build 0)  -->
<!DOCTYPE svg PUBLIC "-//W3C//DTD SVG 1.1//EN" "http://www.w3.org/Graphics/SVG/1.1/DTD/svg11.dtd">
<svg version="1.1" id="图层_1" xmlns="http://www.w3.org/2000/svg" xmlns:xlink="http://www.w3.org/1999/xlink" x="0px" y="0px"
	 width="1024px" height="1024px" viewBox="0 0 1024 1024" enable-background="new 0 0 1024 1024" xml:space="preserve">
<g>
	<g>
		<path fill="#333333" d="M838.721,532.351c-20.059,0-36.35,16.308-36.35,36.396v345.651c0,20.084-16.299,36.396-36.35,36.396
			H108.555c-20.059,0-36.35-16.312-36.35-36.396V109.602c0-20.089,16.291-36.397,36.35-36.397h549.523
			c20.054,0,36.345-16.321,36.345-36.396c0-20.088-16.291-36.396-36.345-36.396H108.555c-60.133,0-109.049,48.971-109.049,109.19
			v804.798c0,60.219,48.915,109.189,109.049,109.189h657.467c60.133,0,109.044-48.971,109.044-109.189V568.748
			C875.066,548.659,858.771,532.351,838.721,532.351z M1023.442,129.178c-0.567-9.703-4.903-18.621-12.212-25.055L904.635,9.612
			c-6.571-5.897-15.049-9.131-25.951-9.131h-0.316c-9.69,0.568-18.604,4.907-25.025,12.22L454.219,464.034
			c-3.375,3.734-5.893,8.069-7.488,12.937L390.288,649.93c-4.506,13.897-0.316,29.075,10.578,38.56
			c6.605,5.829,15.122,9.063,23.997,9.063c5.287,0,10.65-1.212,15.758-3.559l163.178-78.477c4.442-2.172,8.273-5.112,11.29-8.632
			l399.231-451.363C1020.78,148.268,1024.01,138.919,1023.442,129.178z M565.538,553.14l-79.693,38.312l27.688-84.693
			L883.655,88.203l52.184,46.274L565.538,553.14z"/>
	</g>
</g>
</svg>
