<?xml version="1.0" encoding="utf-8"?>
<!-- Generator: Adobe Illustrator 17.0.0, SVG Export Plug-In . SVG Version: 6.00 Build 0)  -->
<!DOCTYPE svg PUBLIC "-//W3C//DTD SVG 1.1//EN" "http://www.w3.org/Graphics/SVG/1.1/DTD/svg11.dtd">
<svg version="1.1" id="图层_1" xmlns="http://www.w3.org/2000/svg" xmlns:xlink="http://www.w3.org/1999/xlink" x="0px" y="0px"
	 width="1024px" height="1024px" viewBox="0 0 1024 1024" enable-background="new 0 0 1024 1024" xml:space="preserve">
<g>
	<g>
		<path d="M367.271,0.071H109.836C49.273,0.071,0,49.436,0,110.123v259.223c0,60.688,49.273,110.052,109.836,110.052h257.435
			c60.567,0,109.832-49.364,109.832-110.052V110.123C477.103,49.436,427.838,0.071,367.271,0.071z M914.164,0.071H656.734
			c-60.567,0-109.84,49.364-109.84,110.052v259.223c0,60.688,49.273,110.052,109.84,110.052h257.431
			c60.567,0,109.836-49.364,109.836-110.052V110.123C1024,49.436,974.731,0.071,914.164,0.071z M367.271,544.599H109.836
			C49.273,544.599,0,593.963,0,654.65v259.227c0,60.684,49.273,110.052,109.836,110.052h257.435
			c60.567,0,109.832-49.368,109.832-110.052V654.65C477.103,593.963,427.838,544.599,367.271,544.599z M914.164,544.599H656.734
			c-60.567,0-109.84,49.364-109.84,110.052v259.227c0,60.684,49.273,110.052,109.84,110.052h257.431
			c60.567,0,109.836-49.368,109.836-110.052V654.65C1024,593.963,974.731,544.599,914.164,544.599z M950.775,913.877
			c0,20.204-16.411,36.684-36.611,36.684H656.734c-20.2,0-36.614-16.48-36.614-36.684V654.65c0-20.204,16.414-36.684,36.614-36.684
			h257.431c20.2,0,36.611,16.48,36.611,36.684V913.877z"/>
	</g>
</g>
</svg>
