<?xml version="1.0" encoding="utf-8"?>
<!-- Generator: Adobe Illustrator 17.0.0, SVG Export Plug-In . SVG Version: 6.00 Build 0)  -->
<!DOCTYPE svg PUBLIC "-//W3C//DTD SVG 1.1//EN" "http://www.w3.org/Graphics/SVG/1.1/DTD/svg11.dtd">
<svg version="1.1" id="图层_1" xmlns="http://www.w3.org/2000/svg" xmlns:xlink="http://www.w3.org/1999/xlink" x="0px" y="0px"
	 width="1024px" height="1024px" viewBox="0 0 1024 1024" enable-background="new 0 0 1024 1024" xml:space="preserve">
<path fill="#333333" d="M0.498,273.638v677.171c0,40.284,32.696,73.082,72.86,73.082h878.28c40.165,0,72.86-32.798,72.86-73.082
	V273.638c0-40.288-32.696-73.073-72.86-73.073H796.414v-90.848c0-60.443-49.024-109.608-109.288-109.608H337.87
	c-60.264,0-109.292,49.165-109.292,109.608v90.848H73.358C33.194,200.564,0.498,233.349,0.498,273.638z M264.831,273.638
	c0.064,0,0.115,0.038,0.179,0.038c0.064,0,0.115-0.038,0.175-0.038h494.622c0.06,0,0.115,0.038,0.179,0.038
	c0.06,0,0.115-0.038,0.179-0.038h191.473v163.111H73.384l0.009-163.111H264.831z M301.438,109.716
	c0-20.159,16.329-36.543,36.432-36.543h349.256c20.104,0,36.428,16.384,36.428,36.543v90.848H301.438V109.716z M73.375,509.809
	h878.263v441H73.358L73.375,509.809z"/>
</svg>
