<?xml version="1.0" encoding="utf-8"?>
<!-- Generator: Adobe Illustrator 17.0.0, SVG Export Plug-In . SVG Version: 6.00 Build 0)  -->
<!DOCTYPE svg PUBLIC "-//W3C//DTD SVG 1.1//EN" "http://www.w3.org/Graphics/SVG/1.1/DTD/svg11.dtd">
<svg version="1.1" id="图层_1" xmlns="http://www.w3.org/2000/svg" xmlns:xlink="http://www.w3.org/1999/xlink" x="0px" y="0px"
	 width="1024px" height="1024px" viewBox="0 0 1024 1024" enable-background="new 0 0 1024 1024" xml:space="preserve">
<path d="M512,0C229.23,0,0,229.23,0,512s229.23,512,512,512s512-229.23,512-512S794.77,0,512,0z M725.814,539.852v168.825
	c0,29.398-23.999,53.323-53.499,53.323H349.762c-29.502,0-53.499-23.925-53.499-53.323V315.623
	c0-29.404,23.997-53.327,53.499-53.327h269.611c7.792,0,80.318-3.784,87.184,15.691L519.292,488.785
	c-1.6,1.805-2.839,3.925-3.586,6.247l-27.709,84.429c-2.229,6.77-0.174,14.2,5.192,18.89c3.325,2.914,7.521,4.402,11.751,4.402
	c2.632,0,5.26-0.583,7.717-1.737l80.002-38.251c2.142-1.042,4.057-2.465,5.643-4.27L727.441,413.13
	C726.929,474.211,725.814,534.796,725.814,539.852z M780.483,297.896l-52.8,61.35L573.992,532.251l-39.113,18.71l13.565-41.381
	l203.561-231.046l2.878-3.234c0,0,11.538-14.014,25.856,0.254C792.131,286.908,780.483,297.896,780.483,297.896z"/>
</svg>
