<?xml version="1.0" encoding="utf-8"?>
<!-- Generator: Adobe Illustrator 17.0.0, SVG Export Plug-In . SVG Version: 6.00 Build 0)  -->
<!DOCTYPE svg PUBLIC "-//W3C//DTD SVG 1.1//EN" "http://www.w3.org/Graphics/SVG/1.1/DTD/svg11.dtd">
<svg version="1.1" id="图层_1" xmlns="http://www.w3.org/2000/svg" xmlns:xlink="http://www.w3.org/1999/xlink" x="0px" y="0px"
	 width="1024px" height="1024px" viewBox="0 0 1024 1024" enable-background="new 0 0 1024 1024" xml:space="preserve">
<path d="M512,0C229.23,0,0,229.23,0,512s229.23,512,512,512s512-229.23,512-512S794.77,0,512,0z M673.815,762.29
	c-18.812,18.3-43.122,28.79-66.722,28.79c-0.302,0-3.912-0.102-4.214-0.138c-137.422-7.312-379.26-274.758-379.158-389.032
	c0.066-49.222,42.074-90.83,91.738-90.83c51.616,0,91.738,78.942,91.738,98.978c0,27.112-16.756,51.088-45.684,66.486
	c13.856,24.61,55.934,83.718,173.498,171.276c10.384-16.9,28.794-38.334,55.26-38.334c5.258,0,10.586,0.9,15.81,2.636
	c3.98,1.332,97.538,33.422,97.538,84.388C703.619,719.918,692.763,743.888,673.815,762.29z M718.425,423.321
	c-14.849,0-26.169-11.319-26.169-26.169l1.417-35.063L579.582,476.181c-10.5,10.5-27.599,10.415-38.099-0.085
	c-10.5-10.5-10.584-27.599-0.085-38.099L655.49,323.905l-37.812-1.332c-14.849,0-28.209-13.36-28.209-28.209
	c-0.006-14.843,12.056-26.861,26.899-26.855l101.393,0.022c7.425,0,14.188,3.051,19.051,7.914
	c4.863,4.863,7.959,11.671,7.959,19.096l0.177,101.548C744.954,410.932,733.268,423.327,718.425,423.321z"/>
</svg>
