<?xml version="1.0" encoding="utf-8"?>
<!-- Generator: Adobe Illustrator 17.0.0, SVG Export Plug-In . SVG Version: 6.00 Build 0)  -->
<!DOCTYPE svg PUBLIC "-//W3C//DTD SVG 1.1//EN" "http://www.w3.org/Graphics/SVG/1.1/DTD/svg11.dtd">
<svg version="1.1" id="图层_1" xmlns="http://www.w3.org/2000/svg" xmlns:xlink="http://www.w3.org/1999/xlink" x="0px" y="0px"
	 width="1024px" height="1024px" viewBox="0 0 1024 1024" enable-background="new 0 0 1024 1024" xml:space="preserve">
<path d="M1009.623,938.348l-428.69-426.531l426.548-428.706c18.995-19.09,18.899-49.938-0.19-68.933
	c-19.09-18.995-49.938-18.852-68.933,0.19l-426.531,428.69L83.12,16.511C64.03-2.484,33.181-2.294,14.187,16.701
	c-18.995,19.09-18.9,49.938,0.19,68.933l428.69,426.531L16.519,940.871c-18.995,19.09-18.899,49.938,0.19,68.933
	c9.521,9.474,21.946,14.187,34.371,14.187c12.52,0,25.041-4.808,34.562-14.377l426.531-428.69l428.706,426.547
	c9.521,9.474,21.946,14.187,34.371,14.187c12.52,0,25.041-4.808,34.562-14.377C1028.808,988.191,1028.713,957.343,1009.623,938.348z
	"/>
</svg>
