<?xml version="1.0" encoding="utf-8"?>
<!-- Generator: Adobe Illustrator 17.0.0, SVG Export Plug-In . SVG Version: 6.00 Build 0)  -->
<!DOCTYPE svg PUBLIC "-//W3C//DTD SVG 1.1//EN" "http://www.w3.org/Graphics/SVG/1.1/DTD/svg11.dtd">
<svg version="1.1" id="图层_1" xmlns="http://www.w3.org/2000/svg" xmlns:xlink="http://www.w3.org/1999/xlink" x="0px" y="0px"
	 width="1024px" height="1024px" viewBox="-497.238 -497.786 1024 1024" enable-background="new -497.238 -497.786 1024 1024"
	 xml:space="preserve">
<g>
	<path fill="#333333" d="M-464.459,79.97c-8.348,0-16.63-3.155-23.072-9.465c-12.884-12.752-13.081-33.589-0.329-46.538
		l485.432-492.86c6.245-6.31,14.067-11.7,23.598-9.794c8.94,0.066,17.419,3.681,23.466,10.123l472.877,492.86
		c12.555,13.081,12.226,33.918-0.986,46.473c-13.081,12.489-33.918,12.16-46.407-0.986L20.579-398.692L-441.058,70.11
		C-447.434,76.749-455.914,79.97-464.459,79.97z"/>
</g>
<g>
	<path fill="#333333" d="M322.618,507.361h-608.746c-18.142,0-32.866-14.724-32.866-32.866v-594.876
		c0-18.142,14.724-32.866,32.866-32.866s32.866,14.724,32.866,32.866v562.01h543.014v-562.01c0-18.142,14.724-32.866,32.866-32.866
		s32.866,14.724,32.866,32.866v594.876C355.485,492.636,340.76,507.361,322.618,507.361z"/>
</g>
<g>
	<path fill="#333333" d="M18.278,493.097c-18.142,0-32.866-14.724-32.866-32.866V108.3c0-18.142,14.724-32.866,32.866-32.866
		S51.144,90.158,51.144,108.3v351.93C51.144,478.373,36.42,493.097,18.278,493.097z"/>
</g>
</svg>
