<?xml version="1.0" encoding="UTF-8"?>
<svg width="1024px" height="1024px" viewBox="0 0 1024 1024" version="1.1" xmlns="http://www.w3.org/2000/svg" xmlns:xlink="http://www.w3.org/1999/xlink">
    <!-- Generator: Sketch 45.2 (43514) - http://www.bohemiancoding.com/sketch -->
    <title>Artboard Copy</title>
    <desc>Created with Sketch.</desc>
    <defs></defs>
    <g id="意向沟通" stroke="none" stroke-width="1" fill="none" fill-rule="evenodd">
        <g id="Artboard-Copy" fill-rule="nonzero" fill="#000000">
            <path d="M900.899191,299.747708 C910.09955,330.108895 915.067745,361.942138 915.067745,394.51141 C915.067745,612.375919 698.123271,789.206827 430.392812,789.206827 C374.454627,789.206827 320.724528,781.478525 270.674573,767.309971 L346.669541,721.492182 C372.062533,725.54034 398.191553,727.932434 424.872596,727.932434 C659.48176,727.932434 849.745192,564.902066 849.745192,363.966217 C849.745192,163.030368 659.48176,0 424.872596,0 C190.263432,0 0,162.84636 0,363.782209 C0,480.25876 64.034501,583.670798 163.398383,650.281401 L163.398383,831.712488 L259.082121,773.934231 C336.549147,862.441688 460.017971,919.667925 599.127404,919.667925 C625.992453,919.667925 651.937467,917.275832 677.330459,913.227672 L860.601618,1023.63198 L860.601617,842.384905 C959.965499,775.774304 1024,672.362264 1024,555.885714 C1024,455.96981 976.894159,365.438274 900.899191,299.747708 L900.899191,299.747708 Z M637.216891,319.804491 C664.265947,319.804491 686.162802,341.333332 686.162802,367.830367 C686.162802,394.327402 664.265947,415.856243 637.216891,415.856243 C610.167834,415.856243 588.270979,394.327402 588.270979,367.830367 C588.270979,341.333332 610.167834,319.804491 637.216891,319.804491 L637.216891,319.804491 Z M441.249236,319.804491 C468.298292,319.804491 490.195148,341.333332 490.195148,367.830367 C490.195148,394.327402 468.298292,415.856243 441.249236,415.856243 C414.20018,415.856243 392.303324,394.327402 392.303324,367.830367 C392.119317,341.333332 414.016172,319.804491 441.249236,319.804491 L441.249236,319.804491 Z M196.151662,367.830367 C196.151662,341.333332 218.048518,319.804491 245.097574,319.804491 C272.14663,319.804491 294.043486,341.333332 294.043486,367.830367 C294.043486,394.327402 272.14663,415.856243 245.097574,415.856243 C218.048518,415.856243 196.151662,394.327403 196.151662,367.830367 L196.151662,367.830367 Z" id="Shape"></path>
        </g>
    </g>
</svg>