<?xml version="1.0" encoding="utf-8"?>
<!-- Generator: Adobe Illustrator 17.0.0, SVG Export Plug-In . SVG Version: 6.00 Build 0)  -->
<!DOCTYPE svg PUBLIC "-//W3C//DTD SVG 1.1//EN" "http://www.w3.org/Graphics/SVG/1.1/DTD/svg11.dtd">
<svg version="1.1" id="图层_1" xmlns="http://www.w3.org/2000/svg" xmlns:xlink="http://www.w3.org/1999/xlink" x="0px" y="0px"
	 width="1024px" height="1024px" viewBox="-496.071 -495.482 1024 1024" enable-background="new -496.071 -495.482 1024 1024"
	 xml:space="preserve">
<g>
	<path fill="#333333" d="M306.705,527.613h-581.422c-53.456,0-96.957-43.502-96.957-96.957V-399.43
		c0-53.456,43.502-96.957,96.957-96.957h437.343c17.84,0,32.319,14.479,32.319,32.319v256.097c0,17.84,14.544,32.319,32.319,32.319
		h144.079c17.84,0,32.319,14.479,32.319,32.319v573.988C403.662,484.111,360.161,527.613,306.705,527.613z M-274.717-431.749
		c-17.84,0-32.319,14.479-32.319,32.319v830.085c0,17.517,14.802,32.319,32.319,32.319h581.422
		c17.776,0,32.319-14.544,32.319-32.319v-541.669h-111.76c-53.456,0-96.957-43.502-96.957-96.957v-223.778H-274.717z"/>
</g>
<g>
	<path fill="#333333" d="M162.626-464.068v256.097c0,35.551,29.087,64.638,64.638,64.638h144.079L162.626-464.068z"/>
</g>
<g>
	<path fill="#333333" d="M371.343-111.013H227.264c-53.456,0-96.957-43.502-96.957-96.957v-256.097
		c0-14.285,9.437-26.954,23.076-30.962c14.026-4.008,28.505,1.357,36.327,13.38l208.717,320.735
		c6.528,9.89,6.981,22.623,1.357,33.03C394.16-117.477,383.237-111.013,371.343-111.013z M194.945-355.088v147.181
		c0,17.84,14.544,32.319,32.319,32.319h84.482L194.945-355.088z"/>
</g>
<g>
	<path fill="#333333" d="M189.71,18.845h-347.431c-8.92,0-16.16-7.24-16.16-16.16s7.24-16.16,16.16-16.16H189.71
		c8.92,0,16.16,7.24,16.16,16.16S198.63,18.845,189.71,18.845z"/>
</g>
<g>
	<path fill="#333333" d="M189.71,160.273h-347.431c-8.92,0-16.16-7.239-16.16-16.16s7.24-16.16,16.16-16.16H189.71
		c8.92,0,16.16,7.239,16.16,16.16S198.63,160.273,189.71,160.273z"/>
</g>
<g>
	<path fill="#333333" d="M189.71,301.637h-347.431c-8.92,0-16.16-7.239-16.16-16.16c0-8.92,7.24-16.16,16.16-16.16H189.71
		c8.92,0,16.16,7.239,16.16,16.16C205.869,294.398,198.63,301.637,189.71,301.637z"/>
</g>
</svg>
