<?xml version="1.0" encoding="utf-8"?>
<!-- Generator: Adobe Illustrator 17.0.0, SVG Export Plug-In . SVG Version: 6.00 Build 0)  -->
<!DOCTYPE svg PUBLIC "-//W3C//DTD SVG 1.1//EN" "http://www.w3.org/Graphics/SVG/1.1/DTD/svg11.dtd">
<svg version="1.1" id="图层_1" xmlns="http://www.w3.org/2000/svg" xmlns:xlink="http://www.w3.org/1999/xlink" x="0px" y="0px"
	 width="1024px" height="1024px" viewBox="0 0 1024 1024" enable-background="new 0 0 1024 1024" xml:space="preserve">
<path fill-rule="evenodd" clip-rule="evenodd" d="M976,976h-80V591.998v-304h80c26.51,0,48,21.493,48,48.002v304v191.997V928
	C1024,954.506,1002.51,976,976,976z M175.998,976V591.998v-16v-288H272C272,155.451,379.451,48,512,48s240,107.451,240,239.998
	h96.002v304V976H175.998z M512,143.998c-79.53,0-144,64.472-144,144h288C656,208.47,591.53,143.998,512,143.998z M0,928v-96.003V640
	V336c0-26.509,21.491-48.002,48-48.002h80v288v16V976H48C21.491,976,0,954.506,0,928z"/>
</svg>
