<?xml version="1.0" encoding="UTF-8"?>
<svg width="24px" height="22px" viewBox="0 0 24 22" version="1.1" xmlns="http://www.w3.org/2000/svg" xmlns:xlink="http://www.w3.org/1999/xlink">
    <!-- Generator: Sketch 43 (38999) - http://www.bohemiancoding.com/sketch -->
    <title>Combined Shape</title>
    <desc>Created with Sketch.</desc>
    <defs></defs>
    <g id="b端-简历透镜" stroke="none" stroke-width="1" fill="none" fill-rule="evenodd">
        <g id="透析-未解锁-b" transform="translate(-1058.000000, -625.000000)" fill-rule="nonzero" fill="#FFFFFF">
            <g id="Group-2" transform="translate(1013.000000, 614.000000)">
                <g id="Group-18" transform="translate(45.000000, 7.000000)">
                    <path d="M12.0681527,6.04083751 C7.19916249,6.04083751 3.25211778,9.98793457 3.25211778,14.8568986 C3.25211778,19.7258364 7.19916249,23.6729597 12.0681527,23.6729597 C16.9371167,23.6729597 20.8842137,19.7258364 20.8842137,14.8568986 C20.8842137,9.9879084 16.9371429,6.04083751 12.0681527,6.04083751 L12.0681527,6.04083751 Z M22.2019106,4.45461287 C22.2019106,4.45461287 25.9187437,7.49465649 22.6066914,12.2568899 C22.811542,13.0899804 22.9209684,13.9605758 22.9209684,14.8568724 C22.9209684,20.8507219 18.0620284,25.7096619 12.0681788,25.7096619 C6.07438168,25.7096619 1.21541549,20.8507219 1.21541549,14.8568724 C1.21541549,14.0147525 1.31136314,13.1950622 1.49286805,12.4080872 C-2.00505998,7.55911887 1.79044711,4.45461287 1.79044711,4.45461287 C1.79044711,6.15078735 3.0198386,7.41857361 3.67652781,7.97478735 C5.66690513,5.55063032 8.68684842,4.00408288 12.0681527,4.00408288 C15.4157208,4.00408288 18.4087852,5.52008724 20.3996336,7.9025518 C21.0715551,7.31351799 22.2019106,6.08095965 22.2019106,4.45461287 Z M22.615747,6.49788441 C22.4677688,7.46741112 21.3963795,8.23986041 20.9005714,8.54958342 C21.4598735,9.3314024 21.9179935,10.190482 22.2557208,11.1078473 C23.7746565,8.69648855 22.615747,6.49788441 22.615747,6.49788441 Z M1.79042094,11.192253 L1.79042094,11.192253 C1.79042094,11.192253 1.8041614,11.213374 1.82949618,11.2515856 C2.16012935,10.312887 2.61871877,9.42430507 3.1922879,8.61098364 C2.760759,8.3539193 1.53560742,7.53975136 1.37658451,6.49791058 C1.37658451,6.49791058 0.19006325,8.74804798 1.79042094,11.192253 Z M12.0681527,23.0327852 C7.55269793,23.0327852 3.89223991,19.372301 3.89223991,14.8568724 C3.89223991,10.3413915 7.55269793,6.68088113 12.0681527,6.68088113 C16.5836336,6.68088113 20.2441701,10.3413915 20.2441701,14.8568724 C20.2441701,19.372301 16.5836598,23.0327852 12.0681527,23.0327852 Z M12.0681527,24.7785562 C17.5477688,24.7785562 21.9898103,20.3365671 21.9898364,14.8568724 C21.9898364,9.37725627 17.5477688,4.93518866 12.0681527,4.93518866 C6.58858888,4.93518866 2.14646892,9.37725627 2.14646892,14.8568724 C2.14646892,20.3365671 6.58858888,24.7785562 12.0681527,24.7785562 Z M5.67030752,11.7601396 L6.0337361,12.1341418 L8.83061287,9.41641003 L8.4671843,9.04240785 L5.67030752,11.7601396 Z M5.25639258,14.8379498 L5.61984733,15.2119782 L11.4897972,9.50814395 L11.1263686,9.13414177 L5.25639258,14.8379498 Z" id="Combined-Shape"></path>
                </g>
            </g>
        </g>
    </g>
</svg>