<?xml version="1.0" encoding="utf-8"?>
<!-- Generator: Adobe Illustrator 16.0.0, SVG Export Plug-In . SVG Version: 6.00 Build 0)  -->
<!DOCTYPE svg PUBLIC "-//W3C//DTD SVG 1.1//EN" "http://www.w3.org/Graphics/SVG/1.1/DTD/svg11.dtd">
<svg version="1.1" id="图层_1" xmlns="http://www.w3.org/2000/svg" xmlns:xlink="http://www.w3.org/1999/xlink" x="0px" y="0px"
	 width="1024px" height="1024px" viewBox="0 0 1024 1024" enable-background="new 0 0 1024 1024" xml:space="preserve">
<path d="M511.752,585.711c-31.037,0-62.007-10.681-87.191-32.041L53.897,238.471C-2.784,190.288-9.688,105.175,38.445,48.469
	C86.577-8.29,171.534-15.234,228.28,33l283.472,241.033L795.225,33c56.779-48.201,141.769-41.29,189.868,15.469
	c48.134,56.756,41.263,141.819-15.452,190.002L598.943,553.67C573.825,575.063,542.789,585.711,511.752,585.711z M599.01,990.91
	l370.598-315.186c56.682-48.199,63.587-133.276,15.452-190.018c-48.133-56.674-133.154-63.685-189.835-15.436L511.818,711.319
	L228.28,470.271C171.5,422.055,86.577,429,38.412,485.756C-9.754,542.514-2.85,627.559,53.93,675.758l370.762,315.186
	c25.119,21.359,56.155,32.057,87.126,32.057C542.854,1023,573.891,1012.303,599.01,990.91z"/>
</svg>
