<?xml version="1.0" encoding="utf-8"?>
<!-- Generator: Adobe Illustrator 17.0.0, SVG Export Plug-In . SVG Version: 6.00 Build 0)  -->
<!DOCTYPE svg PUBLIC "-//W3C//DTD SVG 1.1//EN" "http://www.w3.org/Graphics/SVG/1.1/DTD/svg11.dtd">
<svg version="1.1" id="图层_1" xmlns="http://www.w3.org/2000/svg" xmlns:xlink="http://www.w3.org/1999/xlink" x="0px" y="0px"
	 width="1024px" height="1024px" viewBox="0 0 1024 1024" enable-background="new 0 0 1024 1024" xml:space="preserve">
<path fill="#333333" d="M278.092,282.112c6.656-5.312,10.816-12.864,11.776-21.312c0.896-8.448-1.472-16.768-6.72-23.36
	c-6.08-7.616-15.168-11.968-24.896-11.968c-7.232,0-14.208,2.496-19.84,6.976C131.98,317.248,70.924,443.904,70.924,579.84
	c0,244.928,199.296,444.16,444.16,444.16s444.16-199.296,444.16-444.16c0-137.216-61.952-264.576-169.984-349.44
	c-5.568-4.352-12.48-6.784-19.584-6.784c-9.856,0-19.008,4.48-25.088,12.16c-10.816,13.824-8.384,33.792,5.376,44.672
	c92.544,72.704,145.6,181.824,145.6,299.392c0,209.856-170.688,380.608-380.608,380.608S134.348,789.76,134.348,579.84
	C134.604,463.36,186.956,354.816,278.092,282.112"/>
<path fill="#333333" d="M547.02,508.48V31.808C547.02,14.272,532.748,0,515.212,0s-31.808,14.272-31.808,31.808V508.48
	c0,17.536,14.272,31.808,31.808,31.808S547.02,526.016,547.02,508.48"/>
</svg>
