<?xml version="1.0" encoding="UTF-8"?>
<svg width="1024px" height="1024px" viewBox="0 0 1024 1024" version="1.1" xmlns="http://www.w3.org/2000/svg" xmlns:xlink="http://www.w3.org/1999/xlink">
    <!-- Generator: Sketch 46.1 (44463) - http://www.bohemiancoding.com/sketch -->
    <title>错</title>
    <desc>Created with Sketch.</desc>
    <defs></defs>
    <g id="设计稿" stroke="none" stroke-width="1" fill="none" fill-rule="evenodd">
        <g id="错" fill-rule="nonzero" fill="#000000">
            <path d="M512,1024 C229.230208,1024 6.82121026e-13,794.769792 6.82121026e-13,512 C6.82121026e-13,229.230208 229.230208,-3.41060513e-13 512,-3.41060513e-13 C794.769792,-3.41060513e-13 1024,229.230208 1024,512 C1024,794.769792 794.769792,1024 512,1024 Z M512,975.238095 C767.839336,975.238095 975.238095,767.839336 975.238095,512 C975.238095,256.160664 767.839336,48.7619048 512,48.7619048 C256.160664,48.7619048 48.7619048,256.160664 48.7619048,512 C48.7619048,767.839336 256.160664,975.238095 512,975.238095 Z M512,460.91512 L665.254639,307.660481 C679.361339,293.553781 702.232819,293.553781 716.339519,307.660481 C730.446219,321.767181 730.446219,344.638661 716.339519,358.745361 L563.08488,512 L716.339519,665.254639 C730.446219,679.361339 730.446219,702.232819 716.339519,716.339519 C702.232819,730.446219 679.361339,730.446219 665.254639,716.339519 L512,563.08488 L358.745361,716.339519 C344.638661,730.446219 321.767181,730.446219 307.660481,716.339519 C293.553781,702.232819 293.553781,679.361339 307.660481,665.254639 L460.91512,512 L307.660481,358.745361 C293.553781,344.638661 293.553781,321.767181 307.660481,307.660481 C321.767181,293.553781 344.638661,293.553781 358.745361,307.660481 L512,460.91512 Z" id="Combined-Shape"></path>
        </g>
    </g>
</svg>