<?xml version="1.0" encoding="utf-8"?>
<!-- Generator: Adobe Illustrator 17.0.0, SVG Export Plug-In . SVG Version: 6.00 Build 0)  -->
<!DOCTYPE svg PUBLIC "-//W3C//DTD SVG 1.1//EN" "http://www.w3.org/Graphics/SVG/1.1/DTD/svg11.dtd">
<svg version="1.1" id="图层_1" xmlns="http://www.w3.org/2000/svg" xmlns:xlink="http://www.w3.org/1999/xlink" x="0px" y="0px"
	 width="1024px" height="1024px" viewBox="0 0 1024 1024" enable-background="new 0 0 1024 1024" xml:space="preserve">
<path d="M1017.5,52.688C1004.291,20.792,973.166,0,938.666,0H85.334C50.813,0,19.709,20.792,6.5,52.688
	C-6.708,84.563,0.584,121.271,25,145.667l359,359v348.666c0,22.625,9,44.333,25,60.333L494.333,999
	c16.312,16.333,38.146,25,60.354,25c10.979,0,22.062-2.125,32.646-6.5C619.208,1004.291,640,973.166,640,938.666v-434l359-359
	C1023.416,121.271,1030.708,84.563,1017.5,52.688z"/>
</svg>
