<?xml version="1.0" encoding="utf-8"?>
<!-- Generator: Adobe Illustrator 17.0.0, SVG Export Plug-In . SVG Version: 6.00 Build 0)  -->
<!DOCTYPE svg PUBLIC "-//W3C//DTD SVG 1.1//EN" "http://www.w3.org/Graphics/SVG/1.1/DTD/svg11.dtd">
<svg version="1.1" id="图层_1" xmlns="http://www.w3.org/2000/svg" xmlns:xlink="http://www.w3.org/1999/xlink" x="0px" y="0px"
	 width="1024px" height="1024px" viewBox="0 0 1024 1024" enable-background="new 0 0 1024 1024" xml:space="preserve">
<path d="M512,0C229.23,0,0,229.23,0,512s229.23,512,512,512s512-229.23,512-512S794.77,0,512,0z M543.959,777.3
	c0,17.633-14.306,31.902-31.995,31.902c-17.682,0-31.995-14.268-31.995-31.902V419.42c0-17.633,14.313-31.891,31.995-31.891
	c17.689,0,31.995,14.257,31.995,31.891V777.3z M544.022,300.865c0,17.63-14.309,31.887-31.991,31.887
	c-17.685,0-31.998-14.257-31.998-31.887v-47.569c0-17.615,14.313-31.887,31.998-31.887c17.682,0,31.991,14.272,31.991,31.887
	V300.865z"/>
</svg>
