<?xml version="1.0" encoding="utf-8"?>
<!-- Generator: Adobe Illustrator 17.0.0, SVG Export Plug-In . SVG Version: 6.00 Build 0)  -->
<!DOCTYPE svg PUBLIC "-//W3C//DTD SVG 1.1//EN" "http://www.w3.org/Graphics/SVG/1.1/DTD/svg11.dtd">
<svg version="1.1" id="图层_1" xmlns="http://www.w3.org/2000/svg" xmlns:xlink="http://www.w3.org/1999/xlink" x="0px" y="0px"
	 width="1024px" height="1024px" viewBox="0 0 1024 1024" enable-background="new 0 0 1024 1024" xml:space="preserve">
<path d="M1014.823,517.514L541.947,24.654c-6.047-6.442-14.526-10.057-23.466-10.123c-9.531-1.906-17.353,3.484-23.598,9.794
	L9.451,517.185c-12.752,12.949-12.555,33.786,0.329,46.538c6.442,6.31,14.724,9.465,23.072,9.465c8.545,0,17.025-3.221,23.401-9.86
	L178.317,439.37v528.344c0,18.142,14.724,32.866,32.866,32.866h608.746c18.142,0,32.867-14.725,32.866-32.866V443.537
	l114.636,119.464c12.489,13.146,33.326,13.475,46.407,0.986C1027.05,551.432,1027.379,530.596,1014.823,517.514z M548.455,865.448
	c0,18.143-14.724,32.867-32.866,32.867c-18.142,0-32.866-14.724-32.866-32.866V513.518c0-18.142,14.724-32.866,32.866-32.866
	c18.142,0,32.866,14.724,32.866,32.866V865.448z"/>
</svg>
