<?xml version="1.0" encoding="utf-8"?>
<!-- Generator: Adobe Illustrator 17.0.0, SVG Export Plug-In . SVG Version: 6.00 Build 0)  -->
<!DOCTYPE svg PUBLIC "-//W3C//DTD SVG 1.1//EN" "http://www.w3.org/Graphics/SVG/1.1/DTD/svg11.dtd">
<svg version="1.1" id="图层_1" xmlns="http://www.w3.org/2000/svg" xmlns:xlink="http://www.w3.org/1999/xlink" x="0px" y="0px"
	 width="1024px" height="1024px" viewBox="0 0 1024 1024" enable-background="new 0 0 1024 1024" xml:space="preserve">
<path fill="#333333" d="M1024.495,109.876c0-60.498-48.965-109.697-109.16-109.697H109.659C49.464,0.179,0.495,49.378,0.495,109.876
	v600.902c0,60.485,48.969,109.693,109.164,109.693h147.47l1.706,167.146c0.145,13.636,7.746,25.992,19.897,32.245
	c5.084,2.602,10.804,3.958,16.489,3.958c7.532,0,14.783-2.316,20.968-6.713l277.099-196.636h322.046
	c60.195,0,109.16-49.208,109.16-109.693V109.876z M560.732,754.049L330.896,917.198l-1.348-133.647
	c-0.209-19.961-16.523-36.216-36.387-36.216H109.659c-20.076,0-36.387-16.383-36.387-36.557V109.876
	c0-20.175,16.31-36.57,36.387-36.57h805.676c20.076,0,36.382,16.396,36.382,36.57v600.902c0,20.175-16.306,36.557-36.382,36.557
	H581.7C574.134,747.336,566.883,749.652,560.732,754.049z"/>
</svg>
