<?xml version="1.0" encoding="utf-8"?>
<!-- Generator: Adobe Illustrator 16.0.0, SVG Export Plug-In . SVG Version: 6.00 Build 0)  -->
<!DOCTYPE svg PUBLIC "-//W3C//DTD SVG 1.1//EN" "http://www.w3.org/Graphics/SVG/1.1/DTD/svg11.dtd">
<svg version="1.1" id="图层_2" xmlns="http://www.w3.org/2000/svg" xmlns:xlink="http://www.w3.org/1999/xlink" x="0px" y="0px"
	 width="1024px" height="1024px" viewBox="0 0 1024 1024" enable-background="new 0 0 1024 1024" xml:space="preserve">
<path d="M512.895,8.536C234.499,8.536,7.931,235.08,7.931,513.5c0,278.421,226.568,504.965,504.964,504.965
	c278.471,0,504.965-226.544,504.965-504.965C1017.859,235.08,791.365,8.536,512.895,8.536z M657.775,793.228
	c-14.941,12.772-33.235,19.01-51.433,19.034c-22.585,0.051-45.022-9.467-60.803-27.985L359.087,565.476
	c-25.347-29.686-25.396-73.279-0.197-103.063l185.712-219.467c28.405-33.558,78.654-37.749,112.163-9.345
	c33.581,28.404,37.773,78.654,9.369,112.187L524.113,513.648l142.589,167.368C695.254,714.475,691.26,764.725,657.775,793.228z"/>
</svg>
