<?xml version="1.0" encoding="UTF-8"?>
<svg width="1024px" height="1024px" viewBox="0 0 1024 1024" version="1.1" xmlns="http://www.w3.org/2000/svg" xmlns:xlink="http://www.w3.org/1999/xlink">
    <!-- Generator: Sketch 46.1 (44463) - http://www.bohemiancoding.com/sketch -->
    <title>邮</title>
    <desc>Created with Sketch.</desc>
    <defs></defs>
    <g id="设计稿" stroke="none" stroke-width="1" fill="none" fill-rule="evenodd">
        <g id="邮" fill-rule="nonzero" fill="#000000">
            <path d="M568.175677,801.571686 C568.175677,801.535454 517.966952,801.499223 417.5495,801.462992 L382.767295,801.462992 L272.877266,801.462992 L217.660516,801.462992 L93.477176,801.462992 C70.9774373,801.462992 52.7167797,783.09364 52.7167797,760.593902 L52.7167797,188.970102 C52.7167797,187.502728 53.4232937,186.198395 53.5863352,184.731021 L472.494516,426.576039 C477.766194,429.619482 483.581343,430.217302 489.179105,429.565136 C494.776866,430.217302 500.592016,429.619483 505.863694,426.576039 L926.347943,183.861466 C926.565332,185.600576 927.434886,187.176646 927.434886,188.970103 L927.434886,400.05851 C945.043378,400.384593 962.05405,403.264994 978.412555,407.504075 L978.412554,175.328956 C978.412554,168.426862 977.271263,161.850852 975.695194,155.437883 C971.021336,137.014184 960.206244,121.19915 945.315112,110.16667 C931.728313,99.9493976 914.989377,93.7538174 896.728719,93.7538174 L81.5207927,93.7538174 C63.2601351,93.7538174 46.5211994,100.003745 32.9344002,110.16667 C18.2063099,121.144802 7.39121896,136.959836 2.71735933,155.383535 C1.1412911,161.850852 0,168.426862 0,175.328956 L0,774.235047 C0,819.288871 36.5213151,855.918881 81.5207927,855.918881 L217.660516,855.918881 L417.495152,855.918881 L575.784284,855.918881 C571.382161,838.527778 568.175677,820.48451 568.175677,801.571686 Z M879.446311,148.155359 L489.124756,373.47883 L98.8032007,148.155359 L879.446311,148.155359 Z M1024,469.528585 L1024,705.853095 C1024,763.154274 993.046445,816.287681 943.199985,844.551858 L792.068692,930.246183 L647.319597,844.642777 C599.018171,816.077084 569.039165,763.517836 569.039165,707.401783 L569.039165,469.831816 L700.749877,438.50609 C759.924889,424.431375 822.534974,424.068851 881.86772,437.457926 L1024,469.528585 Z M1000.94369,487.962129 L876.792662,459.948751 C820.889073,447.333502 761.839875,447.675408 706.084841,460.936685 L592.095475,488.047613 L592.095475,707.401783 C592.095475,755.366861 617.77077,800.380834 659.056211,824.797241 L792.311814,903.603491 L931.827542,824.495413 C974.452809,800.325832 1000.94369,754.852839 1000.94369,705.853095 L1000.94369,487.962129 Z M642.194627,670.674447 C642.003283,670.476416 641.978165,670.138996 642.142264,669.915709 L657.703844,648.741366 C657.866269,648.520358 658.173092,648.47544 658.388374,648.640442 L736.747678,708.698354 C737.18244,709.031574 737.876274,709.017296 738.306388,708.658976 L923.7562,554.164283 C923.967369,553.988362 924.298395,554.003607 924.490886,554.19371 L939.935997,569.447251 C940.130583,569.639424 940.122534,569.958376 939.931666,570.146218 L738.243113,768.637881 C737.848686,769.026056 737.219495,769.020475 736.84057,768.628306 L642.194627,670.674447 Z" id="Combined-Shape"></path>
        </g>
    </g>
</svg>