<?xml version="1.0" encoding="utf-8"?>
<!-- Generator: Adobe Illustrator 18.1.0, SVG Export Plug-In . SVG Version: 6.00 Build 0)  -->
<svg version="1.1" id="图层_1" xmlns="http://www.w3.org/2000/svg" xmlns:xlink="http://www.w3.org/1999/xlink" x="0px" y="0px"
	 viewBox="0 0 1024 1024" enable-background="new 0 0 1024 1024" xml:space="preserve">
<path fill="#333333" d="M1000.6,367.1c-0.3-0.6-0.8-1-1.1-1.6c-2.1-3.9-4.8-7.2-8.2-10c-0.4-0.4-0.6-0.9-1-1.2l-35.1-26.9
	c-2.1-1.6-4.4-2.2-6.7-3.3V195.7c0-19.4-15.7-35.2-35.2-35.2H737.7L538.6,7.9c-12.5-9.7-29.9-9.8-42.5-0.2L292.6,160.5H121.4
	c-19.4,0-35.2,15.7-35.2,35.2v119.8L35,353.9c-0.4,0.3-0.6,0.9-1,1.3c-3.5,2.9-6.4,6.3-8.6,10.4c-0.2,0.4-0.6,0.7-0.8,1.2
	c-2.3,4.7-3.9,9.8-3.9,15.4v541.5c0,55.8,47.3,101.1,105.4,101.1h772.8c58.1,0,105.4-45.3,105.4-101.1V382.1
	C1004.2,376.6,1002.8,371.6,1000.6,367.1z M517,80l105.1,80.6H409.7L517,80z M156.6,230.8h569.3h152.4v108.6v65.9L512.4,676.1
	L156.6,412.7V230.8z"/>
<g>
	<path fill="#333333" d="M802.6,369.7H231.3c-4.9,0-8.8-10-8.8-22.3s3.9-22.3,8.8-22.3h571.3c4.9,0,8.8,10,8.8,22.3
		S807.5,369.7,802.6,369.7z"/>
</g>
<g>
	<path fill="#333333" d="M630.2,473.1H403.7c-4.9,0-8.8-9.6-8.8-21.3c0-11.7,3.9-21.3,8.8-21.3h226.5c4.9,0,8.8,9.6,8.8,21.3
		C639,463.5,635.1,473.1,630.2,473.1z"/>
</g>
</svg>
