<?xml version="1.0" encoding="utf-8"?>
<!-- Generator: Adobe Illustrator 17.0.0, SVG Export Plug-In . SVG Version: 6.00 Build 0)  -->
<!DOCTYPE svg PUBLIC "-//W3C//DTD SVG 1.1//EN" "http://www.w3.org/Graphics/SVG/1.1/DTD/svg11.dtd">
<svg version="1.1" id="图层_2" xmlns="http://www.w3.org/2000/svg" xmlns:xlink="http://www.w3.org/1999/xlink" x="0px" y="0px"
	 width="1024px" height="1024px" viewBox="0 0 1024 1024" enable-background="new 0 0 1024 1024" xml:space="preserve">
<path fill="#231815" d="M647.937,559.541c95.188-49.38,160.484-148.684,160.484-263.12C808.421,132.974,675.447,0,512,0
	S215.579,132.974,215.579,296.421c0,114.435,65.296,213.74,160.484,263.12C189.625,617.588,53.895,791.76,53.895,997.053
	c0,14.895,12.066,26.947,26.947,26.947s26.947-12.052,26.947-26.947c0-222.895,181.329-404.211,404.211-404.211
	c222.895,0,404.211,181.315,404.211,404.211c0,14.895,12.052,26.947,26.947,26.947s26.947-12.052,26.947-26.947
	C970.105,791.76,834.375,617.588,647.937,559.541z M269.474,296.421c0-133.724,108.802-242.526,242.526-242.526
	c133.736,0,242.526,108.802,242.526,242.526S645.736,538.947,512,538.947C378.276,538.947,269.474,430.145,269.474,296.421z"/>
</svg>
