<?xml version="1.0" encoding="UTF-8"?>
<svg width="1024px" height="1024px" viewBox="0 0 1024 1024" version="1.1" xmlns="http://www.w3.org/2000/svg" xmlns:xlink="http://www.w3.org/1999/xlink">
    <!-- Generator: Sketch 46.1 (44463) - http://www.bohemiancoding.com/sketch -->
    <title>手机</title>
    <desc>Created with Sketch.</desc>
    <defs></defs>
    <g id="设计稿" stroke="none" stroke-width="1" fill="none" fill-rule="evenodd">
        <g id="手机" fill-rule="nonzero" fill="#000000">
            <path d="M683.456312,0 L195.563704,0 C166.150412,0 142.084991,24.0654205 142.084991,53.4787124 L142.084991,849.707656 L142.084991,917.281997 C142.084991,950.669181 169.402251,977.98644 202.789434,977.98644 L474.120528,977.98644 C468.059694,974.324227 327.530675,925.67522 304.15614,810.747933 L151.781502,810.747933 L151.7815,108.816536 L727.238516,108.816536 L727.238516,381.478021 C733.982011,382.600927 737.214181,386.207731 736.935025,392.298434 L736.935025,53.4787124 C736.935025,24.0654205 712.869604,0 683.456312,0 Z M475.567232,78.9947333 C475.567232,84.3516951 471.184264,88.7346634 465.827302,88.7346634 L368.433189,88.7346634 C363.076227,88.7346634 358.693259,84.3516951 358.693259,78.9947333 L358.693259,78.9947333 C358.693259,73.6377715 363.076227,69.2548032 368.433189,69.2548032 L465.827302,69.2548032 C471.184262,69.2548032 475.567232,73.6377715 475.567232,78.9947333 L475.567232,78.9947333 Z M503.811732,90.6826504 C496.818461,90.6826504 491.149822,85.0140102 491.149822,78.020741 C491.149822,71.0274719 496.818463,65.3588317 503.811732,65.3588317 C510.805001,65.3588317 516.473641,71.0274719 516.473641,78.020741 C516.473641,85.0140102 510.803704,90.6826504 503.811732,90.6826504 Z M881.915009,449.982682 L881.915006,745.233264 C881.915006,816.158013 843.598372,881.930539 781.900692,916.91465 L593.055775,1023.99332 L412.249564,917.066037 C352.467461,881.710616 315.353995,816.643219 315.353995,747.189043 L315.353995,450.327881 L478.615169,411.498278 C552.752326,393.864832 631.203108,393.410587 705.537853,410.185025 L881.915009,449.982682 Z M700.88793,430.791805 C629.695083,414.72637 554.506894,415.161724 483.503225,432.049873 L336.478889,467.01775 L336.478889,747.189043 C336.478889,809.175047 369.649164,867.329233 423.003008,898.882951 L593.278531,999.582473 L771.480913,898.538324 C826.562315,867.305806 860.790112,808.551986 860.790112,745.233264 L860.790114,466.872057 L700.88793,430.791805 Z M413.503212,686.479135 C419.022723,678.968842 429.585465,677.354995 437.095758,682.874506 C437.187131,682.941658 437.277825,683.00973 437.367825,683.07871 L507.017877,736.461481 C517.033088,744.137565 531.029384,743.853068 540.724393,735.776341 L748.788041,562.442495 L748.788041,562.442495 C755.035003,557.23827 764.212169,557.626551 769.997216,563.339845 C775.549554,568.823316 775.605382,577.769606 770.121911,583.321944 C770.07482,583.369627 770.02739,583.416974 769.979626,583.463981 L539.242918,810.543368 L539.242918,810.543368 C530.976656,818.678603 517.680616,818.572386 509.54538,810.306125 C509.500282,810.2603 509.455394,810.214269 509.410718,810.168031 L415.271015,712.738106 L415.271015,712.738106 C408.360364,705.585925 407.613571,694.493056 413.503212,686.479135 Z" id="Combined-Shape"></path>
        </g>
    </g>
</svg>