<?xml version="1.0" encoding="utf-8"?>
<!-- Generator: Adobe Illustrator 18.1.0, SVG Export Plug-In . SVG Version: 6.00 Build 0)  -->
<svg version="1.1" id="图层_1" xmlns="http://www.w3.org/2000/svg" xmlns:xlink="http://www.w3.org/1999/xlink" x="0px" y="0px"
	 viewBox="0 0 1024 1024" enable-background="new 0 0 1024 1024" xml:space="preserve">
<g>
	<path fill="#333333" d="M816.1,1024.1L816.1,1024.1c-0.6,0-8.3-0.2-8.9-0.3C516.8,1008.2,5.8,437.7,6,193.9
		C6.2,88.9,94.9,0.1,199.9,0.1c109.1,0,193.8,168.4,193.8,211.2c0,57.8-35.4,109-96.5,141.8c29.3,52.5,118.2,178.6,366.6,365.4
		c21.9-36,60.8-81.8,116.8-81.8c11.1,0,22.4,1.9,33.4,5.6c8.4,2.8,206.1,71.3,206.1,180c0,49.9-22.9,101.1-63,140.3
		C917.3,1001.7,866,1024.1,816.1,1024.1z"/>
</g>
</svg>
