<?xml version="1.0" encoding="utf-8"?>
<!-- Generator: Adobe Illustrator 17.0.0, SVG Export Plug-In . SVG Version: 6.00 Build 0)  -->
<!DOCTYPE svg PUBLIC "-//W3C//DTD SVG 1.1//EN" "http://www.w3.org/Graphics/SVG/1.1/DTD/svg11.dtd">
<svg version="1.1" id="图层_1" xmlns="http://www.w3.org/2000/svg" xmlns:xlink="http://www.w3.org/1999/xlink" x="0px" y="0px"
	 width="1024px" height="1024px" viewBox="0 0 1024 1024" enable-background="new 0 0 1024 1024" xml:space="preserve">
<g>
	<g>
		<path d="M621.559,487.132h-2.027L510.099,676.998h111.46V487.132z M802.879,57.433h-96.807V32.32
			c0-17.871-14.502-32.32-32.422-32.32s-32.426,14.449-32.426,32.32v25.113H380.332V32.32c0-17.871-14.502-32.32-32.426-32.32
			c-17.92,0-32.426,14.449-32.426,32.32v25.113h-94.36c-53.643,0-97.274,43.499-97.274,96.969v76.756h776.306v-76.756
			C900.152,100.932,856.518,57.433,802.879,57.433z M123.846,927.031c0,53.47,43.63,96.969,97.274,96.969h581.758
			c53.639,0,97.274-43.499,97.274-96.969V295.795H123.846V927.031z M465.513,672.967l129.699-214.122
			c9.438-13.442,21.597-20.198,36.479-20.198c22.958,0,34.452,12.818,34.452,38.382v199.969h24.319
			c10.799,1.402,16.878,7.448,18.24,18.183c-1.361,12.118-7.441,18.875-18.24,20.21h-24.319v74.729
			c0,13.51-7.441,20.21-22.293,20.21c-14.882,0-22.293-6.7-22.293-20.21v-74.729H473.62c-13.521,0-20.266-5.365-20.266-16.168
			C453.354,693.857,457.407,685.089,465.513,672.967z M322.101,442.693h81.061c9.437-1.335,14.186,2.711,14.186,12.107v335.32
			c0,13.51-8.106,20.21-24.316,20.21c-14.886,0-22.297-6.7-22.297-20.21V481.07h-48.635c-10.832-1.335-16.912-8.088-18.243-20.21
			C305.189,450.141,311.269,444.084,322.101,442.693z"/>
	</g>
</g>
</svg>
