<?xml version="1.0" encoding="UTF-8"?>
<svg width="1024px" height="1024px" viewBox="0 0 1024 1024" version="1.1" xmlns="http://www.w3.org/2000/svg" xmlns:xlink="http://www.w3.org/1999/xlink">
    <!-- Generator: Sketch 46.1 (44463) - http://www.bohemiancoding.com/sketch -->
    <title>Artboard</title>
    <desc>Created with Sketch.</desc>
    <defs></defs>
    <g id="设计稿" stroke="none" stroke-width="1" fill="none" fill-rule="evenodd">
        <g id="Artboard" fill="#3B9ACA">
            <g id="放大" transform="translate(30.117647, 16.000000)">
                <path d="M918.076105,983.268068 C916.612828,981.533453 837.052312,896.95023 785.837584,845.489927 C734.790084,794.277429 713.384419,772.677319 692.250504,750.912005 C678.767442,737.014421 668.566305,726.296968 661.563473,718.532491 C657.59172,714.133999 654.581547,710.623463 652.407533,707.856338 C650.839736,705.853266 649.606401,704.098001 648.5403,702.198183 C647.32787,699.988609 647.32787,699.988609 645.760071,695.486866 C642.896226,690.71667 647.097926,679.648161 652.658381,670.665326 C723.522846,603.221768 764.390108,509.758957 764.390108,409.729384 C764.390108,211.260299 604.370207,50.3952328 407.015816,50.3952328 C209.661422,50.3952328 49.6624247,211.260299 49.6624247,409.729384 C49.6624247,608.177817 209.661422,769.042883 407.015816,769.042883 C410.569491,769.042883 463.979137,766.131205 493.098369,757.850475 C495.52323,757.148367 498.031705,756.46691 500.602896,755.744155 C508.588213,753.472631 516.782568,751.056558 524.78879,748.619835 C529.53399,747.174319 533.150378,746.038559 535.15716,745.398404 C548.138526,741.268363 561.976955,748.516582 566.074133,761.588162 C570.17131,774.618438 562.95944,788.536672 549.978074,792.666713 C547.824966,793.348171 544.020443,794.525231 539.066202,796.032697 C530.830038,798.57267 522.280312,801.091996 513.981436,803.446119 C511.263919,804.189526 508.630019,804.932932 506.037928,805.65569 C484.067854,811.664899 431.201711,819.202222 407.015816,818.603366 C174.919021,812.718059 0.391764393,635.518682 0.391764393,409.729384 C0.391764393,183.898783 182.444451,0.855400176 407.015816,0.855400176 C631.587178,0.855400176 813.66077,183.898783 813.66077,409.729384 C813.66077,515.685566 773.357913,615.219534 702.765201,690.344967 C708.994584,697.076931 717.272557,705.708717 727.536407,716.28162 C748.461282,737.819779 769.783334,759.357938 820.684504,810.446536 C872.045561,862.051389 893.221283,883.383045 914.313391,905.12771 C927.817356,919.025294 937.99759,929.742748 945.000422,937.445275 C948.99308,941.885066 951.982347,945.395602 954.156359,948.162728 C955.703255,950.165799 956.957494,951.941715 958.023595,953.841533 C959.25693,956.071755 959.25693,956.071755 960.84563,960.800652 C962.956932,969.143332 961.974447,978.704375 952.797601,986.2004 C942.408329,995.038685 926.855775,993.717072 918.076105,983.268068 Z" id="Shape" fill-rule="nonzero"></path>
                <path d="M385.725333,375.580692 L203.254745,375.580692 L203.254745,375.580692 C202.150176,375.580692 201.254745,376.476122 201.254745,377.580692 L201.254745,377.580692 L201.254745,426.286574 C201.254745,427.391143 202.150176,428.286574 203.254745,428.286574 L385.725333,428.286574 L385.725333,610.757162 C385.725333,611.861732 386.620764,612.757162 387.725333,612.757162 L387.725333,612.757162 L436.431216,612.757162 C437.535785,612.757162 438.431216,611.861732 438.431216,610.757162 L438.431216,428.286574 L620.901804,428.286574 C622.006373,428.286574 622.901804,427.391143 622.901804,426.286574 L622.901804,377.580692 C622.901804,376.476122 622.006373,375.580692 620.901804,375.580692 L438.431216,375.580692 L438.431216,193.110103 L438.431216,193.110103 C438.431216,192.005534 437.535785,191.110103 436.431216,191.110103 L387.725333,191.110103 C386.620764,191.110103 385.725333,192.005534 385.725333,193.110103 L385.725333,375.580692 Z" id="Combined-Shape"></path>
            </g>
        </g>
    </g>
</svg>