<?xml version="1.0" encoding="utf-8"?>
<!-- Generator: Adobe Illustrator 17.0.0, SVG Export Plug-In . SVG Version: 6.00 Build 0)  -->
<!DOCTYPE svg PUBLIC "-//W3C//DTD SVG 1.1//EN" "http://www.w3.org/Graphics/SVG/1.1/DTD/svg11.dtd">
<svg version="1.1" id="图层_1" xmlns="http://www.w3.org/2000/svg" xmlns:xlink="http://www.w3.org/1999/xlink" x="0px" y="0px"
	 width="1024px" height="1024px" viewBox="0 0 1024 1024" enable-background="new 0 0 1024 1024" xml:space="preserve">
<g>
	<g>
		<path fill="#333333" d="M914.325,220.262h-40.262v-72.874c0-82.483-47.694-147.068-108.571-147.068H253.188
			c-60.882,0-108.576,64.585-108.576,147.068v72.874h-35.928c-60.208,0-109.182,49.016-109.182,109.271v379.54
			c0,60.245,48.974,109.261,109.182,109.261h47.151c-4.742,22.656-8.43,42.91-10.231,58.255
			c-4.721,40.753,7.855,82.483,33.661,111.543c20.719,23.294,47.204,36.136,74.566,36.136h509.561
			c27.32,0,54.839-13.49,75.485-36.998c26.088-29.718,37.985-70.236,32.658-111.146c-2-15.35-6.064-35.384-11.313-57.79h54.103
			c60.203,0,109.177-49.016,109.177-109.261v-379.54C1023.502,269.278,974.528,220.262,914.325,220.262z M217.397,147.388
			c0-43.067,21.398-74.221,35.792-74.221h512.303c14.431,0,35.786,31.154,35.786,74.221v72.874H217.397V147.388z M784.184,939.188
			c-6.612,7.531-14.572,12.232-20.792,12.232H253.831c-6.043,0-13.757-4.476-20.191-11.741
			c-12.227-13.767-18.123-34.183-15.674-54.667c6.043-52.092,40.487-186.004,71.547-297.333
			c11.652-57.477,26.829-77.861,36.314-77.861h356.434c8.837,0,17.726,6.09,37.343,81.737c0.679,2.167,70.017,219.44,79.715,293.996
			C801.915,905.36,796.269,925.437,784.184,939.188z M950.717,709.073c0,20.087-16.306,36.413-36.392,36.413h-72.842
			c-23.55-85.701-51.742-173.511-52.003-174.29c-15.459-59.764-34.721-134.226-107.219-134.226H325.827
			c-53.199,0-89.31,45.386-107.365,134.706c-8.654,30.773-28.83,103.724-45.95,173.809h-63.828
			c-20.076,0-36.398-16.326-36.398-36.413v-379.54c0-20.097,16.321-36.413,36.398-36.413h805.641
			c20.087,0,36.392,16.316,36.392,36.413V709.073z M644.406,642.513H379.778c-17.559,0-31.838,14.31-31.838,31.885
			c0,17.559,14.279,31.849,31.838,31.849h264.628c17.559,0,31.843-14.29,31.843-31.849
			C676.25,656.824,661.965,642.513,644.406,642.513z M644.406,750.045H379.778c-17.559,0-31.838,14.279-31.838,31.864
			c0,17.569,14.279,31.885,31.838,31.885h264.628c17.559,0,31.843-14.316,31.843-31.885
			C676.25,764.324,661.965,750.045,644.406,750.045z"/>
	</g>
</g>
</svg>
