<?xml version="1.0" encoding="utf-8"?>
<!-- Generator: Adobe Illustrator 18.1.0, SVG Export Plug-In . SVG Version: 6.00 Build 0)  -->
<svg version="1.1" id="图层_1" xmlns="http://www.w3.org/2000/svg" xmlns:xlink="http://www.w3.org/1999/xlink" x="0px" y="0px"
	 viewBox="0 0 1024 1024" enable-background="new 0 0 1024 1024" xml:space="preserve">
<path fill="#333333" d="M512,0C229.7,0,0,229.7,0,512c0,282.3,229.7,512,512,512c282.3,0,512-229.7,512-512
	C1024,229.7,794.3,0,512,0z M576,832H448V704h128V832z M576,590v50c0,1.4-126-0.6-128,0v-41c0,0-6.4-92,78.6-92
	c80.4,0,77.1-88.7,77.1-123c0-54.7-29.1-88.3-91.8-88.3c-66.1,0-91.4,88.3-88.2,88.3c2,0-99.2,0-103.8,0c-3,0,19.7-192,192-192
	c148.6,0,189.4,120.4,192,191C706.3,446.3,693.9,554.3,576,590z"/>
</svg>
