<?xml version="1.0" encoding="utf-8"?>
<!-- Generator: Adobe Illustrator 18.1.0, SVG Export Plug-In . SVG Version: 6.00 Build 0)  -->
<svg version="1.1" id="图层_1" xmlns="http://www.w3.org/2000/svg" xmlns:xlink="http://www.w3.org/1999/xlink" x="0px" y="0px"
	 viewBox="0 0 1024 1024" enable-background="new 0 0 1024 1024" xml:space="preserve">
<path fill="#333333" d="M511.5,0.5c-282.3,0-512,229.7-512,512c0,282.3,229.6,512,512,512c282.3,0,512-229.7,512-512
	C1023.5,230.2,793.8,0.5,511.5,0.5z M447.5,192.5c0-0.4,128-0.4,128,0v448c0,0-114.3,0-128,0V192.5z M575.5,832.5
	c-128.9,0-128,0-128,0c0-17.7-1.7-128,0-128c1.7,0,128,0.3,128,0C575.5,704.5,576.4,832.5,575.5,832.5z"/>
</svg>
