<?xml version="1.0" encoding="utf-8"?>
<!-- Generator: Adobe Illustrator 17.0.0, SVG Export Plug-In . SVG Version: 6.00 Build 0)  -->
<!DOCTYPE svg PUBLIC "-//W3C//DTD SVG 1.1//EN" "http://www.w3.org/Graphics/SVG/1.1/DTD/svg11.dtd">
<svg version="1.1" id="图层_1" xmlns="http://www.w3.org/2000/svg" xmlns:xlink="http://www.w3.org/1999/xlink" x="0px" y="0px"
	 width="1024px" height="1024px" viewBox="0 0 1024 1024" enable-background="new 0 0 1024 1024" xml:space="preserve">
<g>
	<g>
		<path fill="#333333" d="M1020.399,944.995L542.623,47c-5.953-11.155-17.467-18.133-29.971-18.133
			c-12.51,0-24.023,6.978-29.976,18.133L4.576,944.995c-5.691,10.762-5.43,23.756,0.689,34.239
			c6.152,10.489,17.268,16.892,29.271,16.892h955.899c11.997,0,23.112-6.403,29.265-16.892
			C1025.823,968.751,1026.084,955.757,1020.399,944.995z M91.693,926.891l420.959-790.64l420.623,790.64H91.693z M461.385,383.75
			l17.034,289.905c0,19.134,15.241,34.632,34.063,34.632c18.833,0,34.063-15.497,34.063-34.632l20.227-290.986
			c0-19.146-35.457-22.72-54.29-22.72C493.66,359.949,461.385,364.616,461.385,383.75z M512.482,763.51
			c-18.821,0-34.063,15.497-34.063,34.632v15.145c0,19.134,15.241,34.615,34.063,34.615c18.833,0,34.063-15.48,34.063-34.615
			v-15.145C546.544,779.008,531.314,763.51,512.482,763.51z"/>
	</g>
</g>
</svg>
