<?xml version="1.0" encoding="UTF-8"?>
<svg width="1024px" height="1024px" viewBox="0 0 1024 1024" version="1.1" xmlns="http://www.w3.org/2000/svg" xmlns:xlink="http://www.w3.org/1999/xlink">
    <!-- Generator: Sketch 44.1 (41455) - http://www.bohemiancoding.com/sketch -->
    <title>猎币</title>
    <desc>Created with Sketch.</desc>
    <defs></defs>
    <g id="设计稿" stroke="none" stroke-width="1" fill="none" fill-rule="evenodd">
        <g id="猎币" fill-rule="nonzero" fill="#000000">
            <g id="金币" transform="translate(-0.179778, -0.858632)">
                <path d="M512.179778,0.858632085 C794.522449,0.858632085 1024.17978,230.515961 1024.17978,512.858632 C1024.17978,795.201303 794.522449,1024.85863 512.179778,1024.85863 C229.837107,1024.85863 0.179778193,795.201303 0.179778193,512.858632 C0.179778193,230.515961 229.837107,0.858632085 512.179778,0.858632085 Z M431.425364,855.638845 C431.41872,855.406305 463.618261,864.287365 512.179778,864.990265 C525.022594,864.990265 535.433754,875.401425 535.433754,888.244241 C535.433754,901.087057 525.022594,911.498217 512.179778,911.498217 C292.369911,911.498217 113.540193,732.6685 113.540193,512.858632 C113.540193,500.015816 123.951353,489.604656 136.794169,489.604656 C149.636985,489.604656 160.048145,500.015816 160.048145,512.858632 C160.048145,679.247472 276.052264,819.037088 431.425364,855.638845 Z M512.179778,62.8586321 C264.07128,62.8586321 62.1797782,264.750134 62.1797782,512.858632 C62.1797782,760.967131 264.07128,962.858632 512.179778,962.858632 C760.288277,962.858632 962.179778,760.967131 962.179778,512.858632 C962.179778,264.750134 760.288277,62.8586321 512.179778,62.8586321 Z M165.96462,448.215901 C163.620689,460.842195 151.487897,469.180051 138.86045,466.842336 C132.796077,465.718344 127.426639,462.231207 123.933462,457.148127 C120.440286,452.065048 119.109545,445.80245 120.234016,439.738166 C125.668986,410.461126 134.383219,381.889143 146.212029,354.562175 C151.316131,342.776139 165.008293,337.359362 176.794329,342.463464 C188.580364,347.567566 193.997142,361.259728 188.89304,373.045763 C178.452999,397.162447 170.761739,422.378012 165.96462,448.215901 Z M687.144096,316.140958 C689.120804,322.251037 690.920052,329.255274 692.640428,336.805941 C702.977476,377.341101 709.642087,441.025015 709.642087,512.657 C709.642087,514.494991 709.642087,516.332982 709.642087,518.170974 C709.676593,523.784298 709.602651,529.54665 709.425191,535.408351 C707.936499,609.822161 699.250815,673.357049 686.927201,707.484077 C686.264806,709.819338 685.412408,712.095566 684.378677,714.289612 L684.235723,714.587664 C671.039597,742.008507 637.12501,732.7192 637.12501,732.7192 C446.882908,675.74147 291.822261,541.866159 291.822261,541.866159 C281.569014,531.980746 277.95573,522.691439 277.837424,514.594342 C277.571234,496.86021 294.203184,484.888429 294.203184,484.888429 C434.943791,359.110214 633.546232,294.085063 633.546232,294.085063 C634.852535,293.637984 636.119403,293.290256 637.366553,292.942528 L637.450353,292.942528 C638.608773,292.644475 639.767193,292.396098 640.900965,292.147721 C641.014343,292.147721 641.12279,292.098045 641.236168,292.098045 C642.305857,291.849668 643.3509,291.700642 644.376225,291.551615 C644.533967,291.551615 644.701568,291.50194 644.869169,291.50194 C645.835341,291.352914 646.786724,291.253563 647.713459,291.203887 C647.919519,291.162903 648.129613,291.146233 648.339499,291.154212 C649.21694,291.104536 650.084523,291.054861 650.922529,291.054861 L651.661945,291.054861 C652.342209,291.054861 653.012614,291.054861 653.673159,291.104536 C654.057656,291.104536 654.442153,291.154212 654.82172,291.154212 L656.344919,291.303238 C656.837864,291.402589 657.330808,291.452264 657.823753,291.50194 C658.227967,291.601291 658.627252,291.650966 659.016679,291.750317 C659.598353,291.849668 660.165239,291.949019 660.727196,292.098045 C661.000228,292.140736 661.26907,292.207219 661.530696,292.296747 C670.011405,294.490748 677.41156,299.716541 682.352675,307.000677 C682.648442,307.398081 682.924491,307.84516 683.190681,308.242563 L683.294199,308.39159 C683.82165,309.236072 684.294877,310.030879 684.704021,310.726335 C684.710195,310.764759 684.729349,310.799855 684.758244,310.825686 C684.960352,311.22309 685.1526,311.570818 685.325131,311.918546 C685.492732,312.266274 685.665263,312.614002 685.818075,312.912055 C686.330646,313.957533 686.773631,315.036216 687.144096,316.140958 Z M659.948344,564.021405 L659.992709,563.922054 L523.915358,563.922054 L523.944934,563.773028 L576.620992,369.244004 L512.42482,369.244004 L512.341019,369.591732 L446.439258,609.126705 L647.624729,609.126705 L659.948344,564.021405 Z" id="Combined-Shape"></path>
            </g>
        </g>
    </g>
</svg>