<?xml version="1.0" encoding="UTF-8"?>
<svg width="1024px" height="1024px" viewBox="0 0 1024 1024" version="1.1" xmlns="http://www.w3.org/2000/svg" xmlns:xlink="http://www.w3.org/1999/xlink">
    <!-- Generator: Sketch 44.1 (41455) - http://www.bohemiancoding.com/sketch -->
    <title>购物袋</title>
    <desc>Created with Sketch.</desc>
    <defs></defs>
    <g id="设计稿" stroke="none" stroke-width="1" fill="none" fill-rule="evenodd">
        <g id="购物袋" fill-rule="nonzero" fill="#000000">
            <g id="购物" transform="translate(68.000000, 0.000000)">
                <path d="M530.813608,-2.08721929e-14 L356.727665,-2.08721929e-14 L356.727665,7.54951657e-15 C246.270715,2.78401298e-14 156.727665,89.54305 156.727665,200 L156.727665,213.626347 L156.727665,213.626347 L156.727665,213.626347 C70.1693656,213.626347 1.7821375e-14,283.795712 2.84217094e-14,370.354011 L0,907.33822 C0,971.166007 51.7067814,1022.74638 115.408163,1022.74638 L772.006704,1022.74638 C835.834492,1022.74638 887.420666,971.039601 887.420666,907.33822 L887.420666,370.238043 L887.420666,370.238043 C887.420666,283.743791 817.303221,213.626347 730.808969,213.626347 L730.808969,213.626347 L730.809265,200 L730.813608,200 C730.816007,89.5430501 641.274901,-0.00194426407 530.817951,-0.00434275167 C530.816503,-0.00434278311 530.815056,-0.00434279882 530.813608,-0.00434279882 Z M316.544145,106.008933 L570.994809,106.008933 L570.994809,106.008933 C600.712537,106.008933 624.803515,130.099912 624.803515,159.81764 L624.803515,159.81764 L624.803515,159.81764 C624.803515,189.535368 600.712537,213.626347 570.994809,213.626347 L316.544145,213.626347 L316.544145,213.626347 C286.826417,213.626347 262.735438,189.535368 262.735438,159.81764 L262.735438,159.81764 L262.735438,159.81764 C262.735438,130.099912 286.826417,106.008933 316.544145,106.008933 Z M443.83268,817.284204 C443.83268,817.284204 213.379334,718.324983 213.379334,533.762609 C213.379334,467.584145 257.909998,419.095484 324.088462,419.095484 C378.765191,419.095484 414.270043,473.89166 431.585268,509.271266 C433.752716,513.700095 438.225613,516.695556 443.398958,516.695556 C443.46622,516.695556 443.531162,516.695556 443.598424,516.694396 C448.655801,516.694396 453.360634,513.724448 455.463139,509.025413 C471.910922,473.52636 506.548331,418.971398 563.574578,418.971398 C629.75884,418.971398 674.283706,467.460059 674.283706,533.644322 C674.283706,718.453708 443.836159,817.286523 443.836159,817.286523 L443.83268,817.284204 Z" id="Shape"></path>
            </g>
        </g>
    </g>
</svg>