<?xml version="1.0" encoding="UTF-8"?>
<svg width="1024px" height="1024px" viewBox="0 0 1024 1024" version="1.1" xmlns="http://www.w3.org/2000/svg" xmlns:xlink="http://www.w3.org/1999/xlink">
    <!-- Generator: Sketch 44.1 (41455) - http://www.bohemiancoding.com/sketch -->
    <title>简历</title>
    <desc>Created with Sketch.</desc>
    <defs></defs>
    <g id="设计稿" stroke="none" stroke-width="1" fill="none" fill-rule="evenodd">
        <g id="简历" fill-rule="nonzero" fill="#000000">
            <g transform="translate(28.500000, 0.000000)" id="Shape">
                <polygon points="181.81523 161.071211 395.356608 161.071211 395.356608 364.850697 181.81523 364.850697"></polygon>
                <path d="M181.81523,806.57629 L777.290616,806.57629 L777.290616,849.284566 L181.81523,849.284566 L181.81523,806.57629 Z M181.81523,645.50508 L777.290616,645.50508 L777.290616,688.213355 L181.81523,688.213355 L181.81523,645.50508 Z M181.81523,484.433869 L777.290616,484.433869 L777.290616,527.142144 L181.81523,527.142144 L181.81523,484.433869 Z M479.552923,322.142422 L777.290616,322.142422 L777.290616,364.850697 L479.552923,364.850697 L479.552923,322.142422 Z M479.552923,161.071211 L777.290616,161.071211 L777.290616,203.779486 L479.552923,203.779486 L479.552923,161.071211 Z"></path>
                <path d="M904.195206,59.7915858 L904.195206,963.986792 L63.4522952,963.986792 L63.4522952,59.7915858 L904.195206,59.7915858 L904.195206,59.7915858 Z M906.95394,-3.80098835e-15 L59.473325,-3.80098835e-15 C26.6287782,-3.80098835e-15 -3.80251386e-15,25.376933 -3.80251386e-15,56.6821888 L-3.80251386e-15,967.096189 C-3.80251386e-15,998.400378 26.6276592,1023.77838 59.473325,1023.77838 L906.95394,1023.77838 C939.800724,1023.77838 966.427265,998.400378 966.427265,967.096189 L966.427265,56.6821888 C966.427265,25.3779994 939.800724,-5.68434189e-14 906.95394,-3.80098835e-15 Z"></path>
            </g>
        </g>
    </g>
</svg>