<?xml version="1.0" encoding="UTF-8"?>
<svg width="1024px" height="1024px" viewBox="0 0 1024 1024" version="1.1" xmlns="http://www.w3.org/2000/svg" xmlns:xlink="http://www.w3.org/1999/xlink">
    <!-- Generator: Sketch 44.1 (41455) - http://www.bohemiancoding.com/sketch -->
    <title>抵用券</title>
    <desc>Created with Sketch.</desc>
    <defs></defs>
    <g id="设计稿" stroke="none" stroke-width="1" fill="none" fill-rule="evenodd">
        <g id="抵用券" fill="#000000">
            <g id="券" transform="translate(0.000000, 1.000000)">
                <polygon id="Shape" fill-rule="nonzero" points="322.19926 654.508406 521.614412 455.094395 567.898756 501.378738 368.483603 700.793891 322.19926 654.509547"></polygon>
                <path d="M947.787915,311.712705 L900.891683,264.817614 C877.477815,280.135376 849.147148,284.89806 822.65443,279.149048 C804.044343,275.110127 786.341815,265.900977 771.905356,251.463376 C757.465472,237.025775 748.256321,219.322105 744.216259,200.713159 C738.467246,174.2193 743.228789,145.889775 758.548834,122.475906 L711.656027,75.5796745 L656.692227,20.6170167 C629.34903,-6.6862252 585.061315,-6.68394203 557.71926,20.6215831 L20.5096812,557.827737 C-6.83694091,585.177784 -6.83579933,629.518011 20.5131059,656.866916 L75.5533913,711.907202 L122.531817,758.883344 C146.387478,743.684308 175.178203,739.270948 201.89353,745.677512 C220.295031,750.075278 237.114168,759.495781 250.477021,772.889427 C263.870053,786.25383 273.290749,803.073396 277.690078,821.475202 C284.096642,848.19167 279.68214,876.97897 264.483104,900.836914 L311.46153,947.814198 L366.168473,1002.52114 C393.520803,1029.83466 437.834774,1029.82553 465.172263,1002.49032 L1002.34874,465.310421 C1029.68737,437.972932 1029.69536,393.657819 1002.3807,366.306631 L947.787915,311.712705 Z M834.316843,550.972531 L796.746203,513.399608 L749.121641,561.026453 L786.692281,598.595951 L412.88091,972.407322 L336.378863,895.906417 C349.964843,839.226818 334.692745,776.978577 290.545445,732.833561 C246.398145,688.685119 184.149904,673.41188 127.471447,686.999001 L50.5926778,610.121373 L424.404049,236.308861 L459.778283,271.683095 L507.402845,224.05625 L472.029753,188.683157 L609.97979,50.7319777 L686.328865,127.082194 C672.152687,184.131666 687.310627,247.044308 731.82095,291.554631 C776.330132,336.063813 839.241632,351.225177 896.293387,337.046716 L972.266881,413.016785 L834.317984,550.972531 L834.316843,550.972531 Z" id="Shape" fill-rule="nonzero"></path>
                <path d="M557.885931,282.504161 L627.135501,351.75373 L580.851157,398.038074 L511.601588,328.789645 L557.885931,282.504161 Z M693.109868,510.328749 L623.860299,441.079179 L670.145784,394.793695 L739.395353,464.042123 L693.109868,510.328749 L693.109868,510.328749 Z" id="Shape" fill-rule="nonzero"></path>
                <polygon id="Path" points="227.693307 560.000169 427.108459 360.585017 473.393944 406.870502 273.978792 606.285654"></polygon>
                <polygon id="Path" points="462.990698 795.302127 416.707496 749.017784 616.120366 549.604914 662.404709 595.888116 462.989556 795.303269"></polygon>
            </g>
        </g>
    </g>
</svg>