<?xml version="1.0" encoding="utf-8"?>
<!-- Generator: Adobe Illustrator 17.0.0, SVG Export Plug-In . SVG Version: 6.00 Build 0)  -->
<!DOCTYPE svg PUBLIC "-//W3C//DTD SVG 1.1//EN" "http://www.w3.org/Graphics/SVG/1.1/DTD/svg11.dtd">
<svg version="1.1" id="图层_1" xmlns="http://www.w3.org/2000/svg" xmlns:xlink="http://www.w3.org/1999/xlink" x="0px" y="0px"
	 width="1024px" height="1024px" viewBox="-496 -496 1024 1024" enable-background="new -496 -496 1024 1024" xml:space="preserve">
<g>
	<path fill="#333333" d="M15.925,527.63c-380.637,0-398.826-71.103-398.826-295.86c0-225.966,183.991-501.983,398.826-501.983
		c214.899,0,398.954,276.018,398.954,501.983C414.879,456.526,396.69,527.63,15.925,527.63z M15.925-206.679
		c-177.44,0-335.355,245.172-335.355,438.448c0,196.901,0,232.389,335.355,232.389c335.482,0,335.482-35.488,335.482-232.389
		C351.344,38.493,193.429-206.679,15.925-206.679z"/>
</g>
<g>
	<path fill="#333333" d="M149.482-167.439c-5.915,0-11.829-1.59-17.172-5.024c-14.755-9.476-19.016-29.128-9.54-43.883
		c24.167-37.587,38.604-82.742,38.604-120.837c0-90.31,0-95.716-145.45-95.716s-145.45,5.406-145.45,95.716
		c0,37.968,14.373,83.06,38.477,120.774c9.476,14.755,5.152,34.407-9.603,43.883c-14.755,9.285-34.407,5.088-43.819-9.667
		c-30.845-48.208-48.526-104.683-48.526-154.99c0-125.289,25.948-159.187,208.921-159.187s208.921,33.898,208.921,159.187
		c0,50.434-17.744,107.036-48.653,155.18C170.152-172.59,159.913-167.439,149.482-167.439z"/>
</g>
<g>
	<polygon fill="#333333" points="-92.065,-91.884 16.371,117.037 124.742,-92.647 167.481,-70.451 59.109,140.632 172.505,140.632 
		172.505,189.095 40.602,189.095 40.602,260.388 172.505,260.388 172.505,308.914 40.602,308.914 40.602,411.562 -7.924,411.562 
		-7.924,308.914 -140.591,308.914 -140.591,260.388 -7.924,260.388 -7.924,189.095 -140.591,189.095 -140.591,140.632 
		-26.431,140.632 -135.566,-69.815 	"/>
</g>
</svg>
