<?xml version="1.0" encoding="utf-8"?>
<!-- Generator: Adobe Illustrator 16.0.0, SVG Export Plug-In . SVG Version: 6.00 Build 0)  -->
<!DOCTYPE svg PUBLIC "-//W3C//DTD SVG 1.1//EN" "http://www.w3.org/Graphics/SVG/1.1/DTD/svg11.dtd">
<svg version="1.1" id="图层_2" xmlns="http://www.w3.org/2000/svg" xmlns:xlink="http://www.w3.org/1999/xlink" x="0px" y="0px"
	 width="1024px" height="1024px" viewBox="0 0 1024 1024" enable-background="new 0 0 1024 1024" xml:space="preserve">
<path d="M512.889,5.896C233.037,5.896,5.297,233.624,5.297,513.5s227.74,507.604,507.592,507.604
	c279.9,0,507.604-227.728,507.604-507.604S792.789,5.896,512.889,5.896z M667.723,564.855l-186.696,220.59
	c-15.763,18.663-38.33,28.305-60.972,28.354c-18.316,0-36.72-6.196-51.801-18.961c-33.746-28.553-37.959-79.065-9.382-112.798
	L501.66,513.327L358.314,345.084c-28.714-33.634-24.648-84.146,8.984-112.823c33.671-28.651,84.159-24.611,112.811,8.997
	l187.489,219.995C692.979,491.095,693.028,534.939,667.723,564.855z"/>
</svg>
