<?xml version="1.0" encoding="utf-8"?>
<!-- Generator: Adobe Illustrator 17.0.0, SVG Export Plug-In . SVG Version: 6.00 Build 0)  -->
<!DOCTYPE svg PUBLIC "-//W3C//DTD SVG 1.1//EN" "http://www.w3.org/Graphics/SVG/1.1/DTD/svg11.dtd">
<svg version="1.1" id="图层_1" xmlns="http://www.w3.org/2000/svg" xmlns:xlink="http://www.w3.org/1999/xlink" x="0px" y="0px"
	 width="1024px" height="1024px" viewBox="0 0 1024 1024" enable-background="new 0 0 1024 1024" xml:space="preserve">
<g>
	<path d="M304,498.641v34.66C352,523.13,411.263,508,512,508s176,15.13,208,25.301v-34.66C720,433.219,781.219,388,846.633,388H912
		V265.266C912,152.078,827.922,68,714.734,68H325.266C212.078,68,112,152.078,112,265.266V388h81.367
		C258.781,388,304,433.219,304,498.641z"/>
	<path d="M112,924c0,17.672,14.328,32,32,32s32-14.328,32-32v-24h-64V924z"/>
	<path d="M848,924c0,17.672,14.328,32,32,32s32-14.328,32-32v-24h-64V924z"/>
	<path d="M720,773.359V600.251C704,594.285,629.43,572,512,572c-117.323,0-176,22.243-208,28.253v173.106
		C304,838.781,258.781,900,193.367,900h653.266C781.219,900,720,838.781,720,773.359z"/>
	<path d="M256,765.366V522.634C256,474.787,217.213,436,169.366,436H86.634C38.787,436,0,474.787,0,522.634v242.732
		C0,813.213,38.787,852,86.634,852h82.732C217.213,852,256,813.213,256,765.366z"/>
	<path d="M937.366,436h-82.732C806.787,436,768,474.787,768,522.634v242.732C768,813.213,806.787,852,854.634,852h82.732
		c47.847,0,86.634-38.787,86.634-86.634V522.634C1024,474.787,985.213,436,937.366,436z"/>
</g>
</svg>
