<?xml version="1.0" encoding="utf-8"?>
<!-- Generator: Adobe Illustrator 18.1.0, SVG Export Plug-In . SVG Version: 6.00 Build 0)  -->
<svg version="1.1" id="图层_1" xmlns="http://www.w3.org/2000/svg" xmlns:xlink="http://www.w3.org/1999/xlink" x="0px" y="0px"
	 viewBox="0 0 1024 1024" enable-background="new 0 0 1024 1024" xml:space="preserve">
<g>
	<g>
		<path fill="#333333" d="M331.4,497c45.6,0,82.6-37,82.6-82.6c0-45.6-37-82.6-82.6-82.6c-45.6,0-82.6,37-82.6,82.6
			C248.8,460,285.8,497,331.4,497z M678.2,497c45.6,0,82.6-37,82.6-82.6c0-45.6-37-82.6-82.6-82.6c-45.6,0-82.6,37-82.6,82.6
			C595.6,460,632.6,497,678.2,497z M511.4,0.5c-282.3,0-512,229.7-512,512c0,282.3,229.7,512,512,512c282.3,0,512-229.7,512-512
			C1023.4,230.1,793.8,0.5,511.4,0.5z M511.4,950.7c-241.6,0-438.2-196.6-438.2-438.2c0-241.6,196.6-438.2,438.2-438.2
			s438.2,196.6,438.2,438.2C949.7,754.1,753.1,950.7,511.4,950.7z M767.5,615c-16.9-11.4-39.8-7-51.2,9.9
			c-45.8,67.8-121.9,108.2-203.5,108.2c-74.8,0-144.6-33.5-191.5-91.9c-12.8-15.9-36-18.4-51.9-5.7c-15.9,12.8-18.4,36-5.7,51.8
			c61,75.9,151.7,119.5,249,119.5c106.2,0,205.1-52.6,264.6-140.7C788.8,649.3,784.4,626.4,767.5,615z"/>
	</g>
</g>
</svg>
