<?xml version="1.0" encoding="utf-8"?>
<!-- Generator: Adobe Illustrator 17.0.0, SVG Export Plug-In . SVG Version: 6.00 Build 0)  -->
<!DOCTYPE svg PUBLIC "-//W3C//DTD SVG 1.1//EN" "http://www.w3.org/Graphics/SVG/1.1/DTD/svg11.dtd">
<svg version="1.1" id="图层_1" xmlns="http://www.w3.org/2000/svg" xmlns:xlink="http://www.w3.org/1999/xlink" x="0px" y="0px"
	 width="1024px" height="1024px" viewBox="0 0 1024 1024" enable-background="new 0 0 1024 1024" xml:space="preserve">
<g>
	<g>
		<path fill="#333333" d="M800.259-0.004H224.735c-53.065,0-96.229,43.19-96.229,96.272v831.435
			c0,53.099,43.165,96.293,96.229,96.293h575.524c53.065,0,96.229-43.194,96.229-96.293V96.268
			C896.489,43.187,853.324-0.004,800.259-0.004z M832.337,927.703c0,17.722-14.377,32.099-32.078,32.099H224.735
			c-17.701,0-32.078-14.377-32.078-32.099V96.268c0-17.688,14.377-32.086,32.078-32.086h575.524
			c17.701,0,32.078,14.398,32.078,32.086V927.703z M742.684,496.292h-451.07c-13.254,0-24.059,10.814-24.059,24.055
			c0,13.263,10.805,24.089,24.059,24.089h451.07c13.254,0,24.06-10.826,24.06-24.089
			C766.743,507.106,755.938,496.292,742.684,496.292z M742.684,202.59H603.175c-13.259,0-24.068,10.814-24.068,24.077
			c0,13.25,10.809,24.068,24.068,24.068h139.509c13.254,0,24.06-10.818,24.06-24.068C766.743,213.404,755.938,202.59,742.684,202.59
			z M742.684,349.465H603.175c-13.259,0-24.068,10.796-24.068,24.059c0,13.259,10.809,24.077,24.068,24.077h139.509
			c13.254,0,24.06-10.818,24.06-24.077C766.743,360.261,755.938,349.465,742.684,349.465z M742.684,643.129h-451.07
			c-13.254,0-24.059,10.805-24.059,24.068c0,13.259,10.805,24.068,24.059,24.068h451.07c13.254,0,24.06-10.809,24.06-24.068
			C766.743,653.934,755.938,643.129,742.684,643.129z M742.684,789.982h-451.07c-13.254,0-24.059,10.818-24.059,24.068
			c0,13.263,10.805,24.081,24.059,24.081h451.07c13.254,0,24.06-10.818,24.06-24.081C766.743,800.8,755.938,789.982,742.684,789.982
			z M499.482,181.834H275.572v224.033h223.909V181.834z"/>
	</g>
</g>
</svg>
