<?xml version="1.0" encoding="utf-8"?>
<!-- Generator: Adobe Illustrator 18.1.0, SVG Export Plug-In . SVG Version: 6.00 Build 0)  -->
<svg version="1.1" id="图层_1" xmlns="http://www.w3.org/2000/svg" xmlns:xlink="http://www.w3.org/1999/xlink" x="0px" y="0px"
	 viewBox="0 0 1024 1024" enable-background="new 0 0 1024 1024" xml:space="preserve">
<g>
	<g>
		<path fill="#333333" d="M340.3,359.2c-38.8,0-70.2,31.4-70.2,70.1c0,38.7,31.4,70.1,70.2,70.1c38.8,0,70.2-31.4,70.2-70.1
			C410.5,390.6,379,359.2,340.3,359.2z M635,359.2c-38.8,0-70.2,31.4-70.2,70.1c0,38.7,31.4,70.1,70.2,70.1
			c38.8,0,70.2-31.4,70.2-70.1C705.2,390.6,673.8,359.2,635,359.2z M965.7,379.4c-21.2,0-39.9,11.5-50.1,28.6
			C868.6,218.7,697.1,78,493.3,78c-194.7,0-360,128.4-415.3,304.8c-6.2-2.2-12.8-3.5-19.8-3.5c-32,0-58.2,26.2-58.2,58.1v166
			c0,32,26.2,58.1,58.2,58.1c8.7,0,17-2,24.5-5.4c59.5,169.1,221.1,290.7,410.6,290.7c114.8,0,219.3-44.6,297.1-117.3
			c3.5,0.2,7.1,0.2,10.6,0.2c25.1,0,50.1-3.9,73.7-13.5c59.7-24.2,99.5-78.6,118.6-161.7c18.2-9.9,30.7-29.1,30.7-51.2v-166
			C1023.9,405.5,997.7,379.4,965.7,379.4z M767.1,764.3c-63.9-10.4-130.1-46.1-161.7-67.1c-9.3-27.8-35.6-47.8-66.6-47.8
			c-38.8,0-70.2,31.4-70.2,70.1s31.4,70.1,70.2,70.1c22.1,0,41.8-10.2,54.7-26.2c26.5,15.5,68.5,37.3,116.1,51.7
			c-61,43.6-135.7,69.3-216.3,69.3c-205.4,0-372.4-166.8-372.4-371.8c0-205,167.1-371.8,372.4-371.8
			c205.3,0,372.4,166.8,372.4,371.8C865.7,609.5,828.3,698,767.1,764.3z M852.1,757.9c27-39.2,47.7-83.1,60.7-130.1
			c3.9,8.5,9.9,15.9,17.2,21.6C915.4,705.9,889.3,742.3,852.1,757.9z"/>
	</g>
</g>
</svg>
