<?xml version="1.0" encoding="utf-8"?>
<!-- Generator: Adobe Illustrator 17.0.0, SVG Export Plug-In . SVG Version: 6.00 Build 0)  -->
<!DOCTYPE svg PUBLIC "-//W3C//DTD SVG 1.1//EN" "http://www.w3.org/Graphics/SVG/1.1/DTD/svg11.dtd">
<svg version="1.1" id="图层_1" xmlns="http://www.w3.org/2000/svg" xmlns:xlink="http://www.w3.org/1999/xlink" x="0px" y="0px"
	 width="1024px" height="1024px" viewBox="-503.352 -502.804 1024 1024" enable-background="new -503.352 -502.804 1024 1024"
	 xml:space="preserve">
<g>
	<g>
		<path fill="#333333" d="M8.673,179.82c-94.08,0-170.56-76.544-170.56-170.624s76.544-170.56,170.56-170.56
			c94.08,0,170.624,76.544,170.624,170.56C179.233,103.276,102.753,179.82,8.673,179.82z M8.673-97.684
			c-58.944,0-106.88,47.936-106.88,106.88c0,58.944,47.936,106.88,106.88,106.88s106.88-47.936,106.88-106.88
			S67.617-97.684,8.673-97.684z"/>
	</g>
	<g>
		<path fill="#333333" d="M76.321,521.196h-135.36c-17.6,0-31.872-14.272-31.872-31.872v-48.64
			c-86.016-19.84-164.096-64.96-224.064-129.664l-42.432,24.512c-15.296,8.832-34.752,3.584-43.52-11.648l-67.712-117.248
			c-8.768-15.232-3.584-34.688,11.648-43.52l43.392-25.024c-12.544-41.472-18.944-84.032-18.944-126.72
			c0-43.968,6.72-87.68,20.032-130.304l-44.48-25.664c-7.296-4.224-12.672-11.2-14.848-19.328c-2.176-8.192-1.024-16.832,3.2-24.192
			l67.712-117.248c8.768-15.232,28.224-20.544,43.52-11.648l44.992,25.984c59.648-63.168,136.768-107.392,221.504-126.912v-52.992
			c0-17.6,14.272-31.872,31.872-31.872h135.36c17.6,0,31.872,14.272,31.872,31.872v52.928
			c84.736,19.52,161.856,63.744,221.504,126.912l44.992-25.984c15.168-8.768,34.688-3.584,43.52,11.648l67.712,117.248
			c4.224,7.296,5.376,16,3.2,24.192s-7.552,15.104-14.848,19.328l-44.48,25.664c13.312,42.624,20.032,86.336,20.032,130.304
			c0,42.688-6.336,85.184-18.944,126.72l43.392,25.024c15.232,8.832,20.48,28.288,11.648,43.52l-67.648,117.312
			c-8.832,15.232-28.288,20.416-43.52,11.648l-42.432-24.512c-59.968,64.704-138.048,109.824-224.064,129.664v48.64
			C108.193,506.988,93.985,521.196,76.321,521.196z M-27.167,457.516h71.68v-42.944c0-15.616,11.264-28.864,26.624-31.424
			c90.24-15.04,171.84-62.272,229.76-132.992c9.856-12.096,26.944-15.232,40.576-7.424l37.568,21.632l35.84-62.08l-38.336-22.144
			c-13.44-7.808-19.328-24.064-13.952-38.592c15.68-42.496,23.552-86.272,23.552-130.24c0-45.184-8.32-90.112-24.768-133.504
			c-5.504-14.592,0.32-31.104,13.888-38.912l39.616-22.912l-35.84-62.016l-39.936,23.04c-13.44,7.808-30.464,4.672-40.384-7.168
			c-57.792-69.248-138.624-115.52-227.584-130.368c-15.36-2.56-26.624-15.872-26.624-31.424v-47.104h-71.68v47.168
			c0,15.552-11.264,28.864-26.624,31.424c-89.024,14.848-169.792,61.12-227.52,130.368c-9.92,11.904-26.944,14.976-40.384,7.168
			l-39.936-23.04l-35.84,62.08l39.616,22.848c13.504,7.808,19.392,24.256,13.888,38.848
			c-16.448,43.456-24.768,88.384-24.768,133.504c0,43.968,7.936,87.744,23.552,130.24c5.376,14.528-0.512,30.848-13.952,38.592
			l-38.336,22.144l35.84,62.08l37.504-21.632c13.504-7.744,30.72-4.672,40.576,7.424c57.92,70.72,139.52,117.952,229.76,132.992
			c15.36,2.56,26.624,15.808,26.624,31.424C-27.167,414.572-27.167,457.516-27.167,457.516z"/>
	</g>
</g>
</svg>
