<?xml version="1.0" encoding="utf-8"?>
<!-- Generator: Adobe Illustrator 17.0.0, SVG Export Plug-In . SVG Version: 6.00 Build 0)  -->
<!DOCTYPE svg PUBLIC "-//W3C//DTD SVG 1.1//EN" "http://www.w3.org/Graphics/SVG/1.1/DTD/svg11.dtd">
<svg version="1.1" id="图层_1" xmlns="http://www.w3.org/2000/svg" xmlns:xlink="http://www.w3.org/1999/xlink" x="0px" y="0px"
	 width="1024px" height="1024px" viewBox="0 0 1024 1024" enable-background="new 0 0 1024 1024" xml:space="preserve">
<path fill="#333333" d="M877.337,159.04V36.777c0-20.207-16.347-36.622-36.464-36.622h-656.76c-20.118,0-36.46,16.415-36.46,36.622
	V159.04C63.813,176.077,0.495,250.605,0.495,339.744c0,89.454,63.731,164.097,147.96,180.828
	c8.352,187.773,150.297,337.84,324.104,337.84h3.46v92.171H283.848c-20.118,0-36.46,16.415-36.46,36.622
	c0,20.211,16.342,36.626,36.46,36.626h457.295c20.118,0,36.46-16.415,36.46-36.626c0-20.207-16.342-36.622-36.46-36.622H548.938
	v-92.171h3.455c173.811,0,315.781-150.067,324.142-337.84c84.224-16.731,147.96-91.374,147.96-180.828
	C1024.495,250.605,961.182,176.077,877.337,159.04z M552.393,785.167h-79.835c-138.933,0-251.982-126.469-251.982-281.932V73.399
	h583.836v429.836C804.413,658.698,691.365,785.167,552.393,785.167z M147.653,444.248c-43.085-15.233-74.238-56.091-74.238-104.504
	s31.153-89.237,74.238-104.47V444.248z M877.337,444.248V235.274c43.08,15.233,74.238,56.057,74.238,104.47
	S920.418,429.014,877.337,444.248z"/>
</svg>
