<?xml version="1.0" encoding="utf-8"?>
<!-- Generator: Adobe Illustrator 17.0.0, SVG Export Plug-In . SVG Version: 6.00 Build 0)  -->
<!DOCTYPE svg PUBLIC "-//W3C//DTD SVG 1.1//EN" "http://www.w3.org/Graphics/SVG/1.1/DTD/svg11.dtd">
<svg version="1.1" id="图层_1" xmlns="http://www.w3.org/2000/svg" xmlns:xlink="http://www.w3.org/1999/xlink" x="0px" y="0px"
	 width="1024px" height="1024px" viewBox="0 0 1024 1024" enable-background="new 0 0 1024 1024" xml:space="preserve">
<g>
	<path d="M512,819.2h102.4c28.3,0,51.2-22.9,51.2-51.2V153.6c0-28.275-22.9-51.2-51.2-51.2H512c-28.275,0-51.2,22.925-51.2,51.2V768
		C460.8,796.3,483.725,819.2,512,819.2z"/>
	<path d="M256,819.2h102.4c28.275,0,51.2-22.9,51.2-51.2V563.2c0-28.3-22.925-51.2-51.2-51.2H256c-28.275,0-51.2,22.9-51.2,51.2V768
		C204.8,796.3,227.725,819.2,256,819.2z"/>
	<path d="M768,819.2h102.4c28.3,0,51.2-22.9,51.2-51.2V409.6c0-28.275-22.9-51.2-51.2-51.2H768c-28.3,0-51.2,22.925-51.2,51.2V768
		C716.8,796.3,739.7,819.2,768,819.2z"/>
	<path d="M972.8,870.4H179.2c-28,0-76.8-48.8-76.8-76.8V102.4c0-28.275-22.925-51.2-51.2-51.2S0,74.125,0,102.4v691.2
		C0,879,93.775,972.8,179.2,972.8h793.6c28.3,0,51.2-22.9,51.2-51.2C1024,893.3,1001.1,870.4,972.8,870.4z"/>
</g>
</svg>
