<?xml version="1.0" encoding="utf-8"?>
<!-- Generator: Adobe Illustrator 17.0.0, SVG Export Plug-In . SVG Version: 6.00 Build 0)  -->
<!DOCTYPE svg PUBLIC "-//W3C//DTD SVG 1.1//EN" "http://www.w3.org/Graphics/SVG/1.1/DTD/svg11.dtd">
<svg version="1.1" id="图层_1" xmlns="http://www.w3.org/2000/svg" xmlns:xlink="http://www.w3.org/1999/xlink" x="0px" y="0px"
	 width="1024px" height="1024px" viewBox="0 0 1024 1024" enable-background="new 0 0 1024 1024" xml:space="preserve">
<g>
	<g>
		<path fill="#333333" d="M376.384,663.136c-132.672,0-240.576-130.176-240.576-290.24c0-160,107.968-290.176,240.576-290.176
			s240.512,130.176,240.512,290.177C616.896,532.961,508.992,663.136,376.384,663.136z M376.384,146.72
			c-97.344,0-176.576,101.44-176.576,226.176s79.232,226.24,176.576,226.24s176.512-101.503,176.512-226.239
			S473.664,146.72,376.384,146.72z"/>
	</g>
	<g>
		<path fill="#333333" d="M735.744,941.28H32c-17.664,0-32-14.336-32-32c0-144.896,98.368-289.728,239.168-352.384l25.984,58.496
			c-107.968,48-186.24,152.576-199.296,261.888h635.84c-14.72-119.104-109.504-220.032-203.2-261.952l26.112-58.368
			C667.712,620.896,767.68,765.792,767.68,909.28C767.744,926.945,753.408,941.28,735.744,941.28z"/>
	</g>
	<g>
		<path fill="#333333" d="M679.552,686.049c-12.032,0-24.384-1.152-36.8-3.52l-31.424-5.888l11.776-62.848l31.424,5.888
			c38.784,7.104,74.304-2.112,105.344-27.968c40.704-33.728,69.056-94.72,69.056-148.288c0-105.984-66.88-192.192-149.12-192.192
			c-42.432,0-66.24,14.016-80.448,22.464c-6.848,4.032-12.864,7.616-20.416,9.152l-31.36,6.336l-12.608-62.72l28.096-5.632
			c22.4-13.12,57.984-33.472,116.736-33.472c117.504,0,213.12,114.944,213.12,256.192c0,73.536-36.16,151.04-92.16,197.568
			C764.864,670.753,723.584,686.049,679.552,686.049z"/>
	</g>
	<g>
		<path fill="#333333" d="M992,941.28H703.68v-64h254.016c-14.528-99.904-94.4-184.128-173.44-219.392l-29.184-13.056L781.12,586.4
			l29.248,12.992C936.128,655.52,1024,782.944,1024,909.28C1024,926.945,1009.664,941.28,992,941.28z"/>
	</g>
</g>
</svg>
