<?xml version="1.0" encoding="UTF-8"?>
<svg width="1024px" height="1024px" viewBox="0 0 1024 1024" version="1.1" xmlns="http://www.w3.org/2000/svg" xmlns:xlink="http://www.w3.org/1999/xlink">
    <!-- Generator: Sketch 46.1 (44463) - http://www.bohemiancoding.com/sketch -->
    <title>对</title>
    <desc>Created with Sketch.</desc>
    <defs></defs>
    <g id="设计稿" stroke="none" stroke-width="1" fill="none" fill-rule="evenodd">
        <g id="对" fill-rule="nonzero" fill="#000000">
            <path d="M512,1024 C229.230208,1024 6.82121026e-13,794.769792 6.82121026e-13,512 C6.82121026e-13,229.230208 229.230208,-3.41060513e-13 512,-3.41060513e-13 C794.769792,-3.41060513e-13 1024,229.230208 1024,512 C1024,794.769792 794.769792,1024 512,1024 Z M512,975.238095 C767.839336,975.238095 975.238095,767.839336 975.238095,512 C975.238095,256.160664 767.839336,48.7619048 512,48.7619048 C256.160664,48.7619048 48.7619048,256.160664 48.7619048,512 C48.7619048,767.839336 256.160664,975.238095 512,975.238095 Z M232.325468,564.115035 C241.111656,552.159837 257.925872,549.590847 269.88107,558.377036 C270.026521,558.483932 270.170892,558.592291 270.314159,558.702097 L378.001495,641.238265 C395.806314,654.884637 420.688618,654.378864 437.92419,640.020239 L766.045898,366.668317 L766.045898,366.668317 C775.990074,358.384014 790.59867,359.002097 799.807551,368.096757 C808.645995,376.825575 808.734864,391.066655 800.006046,399.9051 C799.931085,399.981003 799.855584,400.056372 799.77955,400.1312 L426.420367,767.572406 C416.57958,777.25721 400.750961,777.130761 391.066156,767.289974 C391.012467,767.235421 390.959029,767.180621 390.905844,767.125577 L235.139531,605.915165 L235.139531,605.915165 C224.138867,594.530023 222.950091,576.87193 232.325468,564.115035 Z" id="Combined-Shape"></path>
        </g>
    </g>
</svg>