<?xml version="1.0" encoding="utf-8"?>
<!-- Generator: Adobe Illustrator 18.1.0, SVG Export Plug-In . SVG Version: 6.00 Build 0)  -->
<svg version="1.1" id="图层_1" xmlns="http://www.w3.org/2000/svg" xmlns:xlink="http://www.w3.org/1999/xlink" x="0px" y="0px"
	 viewBox="0 0 1024 1024" enable-background="new 0 0 1024 1024" xml:space="preserve">
<g>
	<path fill="#333333" d="M937.3,0H86.5C38.9,0,0,38.9,0,86.5v850.9c0,47.6,38.9,86.5,86.5,86.5h850.9c47.6,0,86.5-38.9,86.5-86.5
		V86.5C1023.8,38.9,984.9,0,937.3,0z M292.5,148.9h147.9v-72h147.9v72h146.9v72H587.4v-72H440.4v72H292.5V148.9z M883.2,221.8v72
		H735.3v-72H883.2z M292.5,511.9v-72h147.9v72h146.9v-72h147.9v72H588.4v72H440.4v-72H292.5z M144.5,221.7h147.9v72H144.5V221.7z
		 M144.2,366.8h-74v-72h74V366.8z M217.2,807h-72V439.1h-0.7v-72h147.9v72h-75.3V807z M218.5,807h147.9v72H218.5V807z M733.6,879.6
		V951v0.6H292.5V951v-71.4V879h441.2V879.6z M883.2,403.1v36V807h-75.6v72H659.7v-72h147.9V439.1h-72.3v-72h147.9V403.1z
		 M957.2,366.8h-74v-72h74V366.8z"/>
</g>
</svg>
