<?xml version="1.0" encoding="utf-8"?>
<!-- Generator: Adobe Illustrator 18.1.0, SVG Export Plug-In . SVG Version: 6.00 Build 0)  -->
<svg version="1.1" id="图层_1" xmlns="http://www.w3.org/2000/svg" xmlns:xlink="http://www.w3.org/1999/xlink" x="0px" y="0px"
	 viewBox="0 0 1024 1024" enable-background="new 0 0 1024 1024" xml:space="preserve">
<g>
	<rect x="222.8" y="662.5" fill="#333333" width="147.7" height="73.4"/>
	<path fill="#333333" d="M937.3,1C724.6,1,299.2,1,86.5,1C38.9,1,0,39.9,0,87.5c0,212.7,0,850.9,0,850.9c0,47.6,38.9,86.5,86.5,86.5
		h850.9c47.6,0,86.5-38.9,86.5-86.5c0,0,0-638.1,0-850.9C1023.8,39.9,984.9,1,937.3,1z M737.9,441.7h148.8V515H737.9V441.7z
		 M443.7,515v295h-73.3v-0.8H222.8v0.8h-73.3V589.3h73.3v0h147.7V515H149.5v-73.3h220.9h73.3V515z M960,736h-73.3v73.3H664.6v0.8
		h-73.3V224h73.3v292H739v73.3h-74.4V736h222.1V517H960V736z"/>
</g>
</svg>
