<?xml version="1.0" encoding="utf-8"?>
<!-- Generator: Adobe Illustrator 17.0.0, SVG Export Plug-In . SVG Version: 6.00 Build 0)  -->
<!DOCTYPE svg PUBLIC "-//W3C//DTD SVG 1.1//EN" "http://www.w3.org/Graphics/SVG/1.1/DTD/svg11.dtd">
<svg version="1.1" id="图层_2" xmlns="http://www.w3.org/2000/svg" xmlns:xlink="http://www.w3.org/1999/xlink" x="0px" y="0px"
	 width="1024px" height="1024px" viewBox="0 0 1024 1024" enable-background="new 0 0 1024 1024" xml:space="preserve">
<g>
	<path d="M744.724,651.636H279.269c-18.057,0-34.489,10.443-42.148,26.807c-7.659,16.352-5.17,35.659,6.386,49.534l232.727,279.273
		c8.852,10.614,21.943,16.75,35.761,16.75c13.818,0,26.909-6.136,35.75-16.75l232.727-279.273
		c11.568-13.875,14.068-33.182,6.409-49.534C779.224,662.08,762.792,651.636,744.724,651.636z"/>
	<path d="M279.269,372.364h465.455c18.068,0,34.5-10.443,42.159-26.807c7.659-16.352,5.159-35.659-6.409-49.534L547.746,16.75
		C538.906,6.136,525.815,0,511.996,0c-13.818,0-26.909,6.136-35.761,16.75L243.508,296.023
		c-11.557,13.875-14.045,33.182-6.386,49.534C244.781,361.92,261.212,372.364,279.269,372.364z"/>
</g>
</svg>
