<?xml version="1.0" encoding="utf-8"?>
<!-- Generator: Adobe Illustrator 17.0.0, SVG Export Plug-In . SVG Version: 6.00 Build 0)  -->
<!DOCTYPE svg PUBLIC "-//W3C//DTD SVG 1.1//EN" "http://www.w3.org/Graphics/SVG/1.1/DTD/svg11.dtd">
<svg version="1.1" id="图层_1" xmlns="http://www.w3.org/2000/svg" xmlns:xlink="http://www.w3.org/1999/xlink" x="0px" y="0px"
	 width="1024px" height="1024px" viewBox="0 0 1024 1024" enable-background="new 0 0 1024 1024" xml:space="preserve">
<path fill-rule="evenodd" clip-rule="evenodd" d="M899.732,867.343l-69.418-69.418c60.046-75.069,96.161-170.126,96.161-273.73
	c0-103.614-36.116-198.661-96.161-273.74l69.418-69.415C977.266,274.048,1024,393.632,1024,524.195
	C1024,654.753,977.266,774.33,899.732,867.343z M609.523,914.284c-16.084,0-30.827-5.344-42.903-14.146l-0.117,0.161
	L317.548,719.243H73.143C32.746,719.243,0,686.492,0,646.095V402.29c0-40.331,32.644-73.016,72.95-73.128v-0.195h242.491
	l247.765-202.718l0.21,0.258c12.615-10.338,28.528-16.791,46.107-16.791c40.397,0,73.143,32.746,73.143,73.141V402.29v170.665
	v73.141v73.148v121.9C682.666,881.54,649.919,914.284,609.523,914.284z"/>
</svg>
