<?xml version="1.0" encoding="UTF-8"?>
<svg width="1024px" height="1024px" viewBox="0 0 1024 1024" version="1.1" xmlns="http://www.w3.org/2000/svg" xmlns:xlink="http://www.w3.org/1999/xlink">
    <!-- Generator: Sketch 46.1 (44463) - http://www.bohemiancoding.com/sketch -->
    <title>工牌</title>
    <desc>Created with Sketch.</desc>
    <defs></defs>
    <g id="设计稿" stroke="none" stroke-width="1" fill="none" fill-rule="evenodd">
        <g id="工牌" fill-rule="nonzero" fill="#000000">
            <path d="M1018.91584,323.985543 C1018.91584,291.639762 992.168368,264.892289 959.822587,264.892287 L64.0932541,264.892287 C31.7474729,264.892287 5,291.63976 5,323.985543 L5,898.745197 C5,931.090978 31.7474729,957.838451 64.0932541,957.838453 L959.822587,957.838453 C992.168368,957.838453 1018.91584,931.09098 1018.91584,898.745197 L1018.91584,323.985543 Z M435.367033,277.332973 L435.367033,140.483387 L434.696164,140.483387 C437.715075,128.519555 454.822237,70.2657563 509.386256,70.2657563 C521.350088,69.4830757 578.038525,71.0484369 586.312577,137.464476 L586.312577,277.332973 L959.822587,277.332973 C985.325991,277.332973 1006.47516,298.482137 1006.47516,323.985543 L1006.47516,898.745197 C1006.47516,924.870637 985.325991,945.397766 959.822587,945.397768 L64.0932541,945.397768 C38.58985,945.397768 17.4406854,924.248603 17.4406832,898.745197 L17.4406832,323.985543 C17.4406832,298.482139 38.5898478,277.332975 64.0932541,277.332973 L435.367033,277.332973 Z M234.553555,323.407023 C234.553555,339.060635 246.517387,351.024467 262.170999,351.024467 L761.744842,351.024467 C777.398454,351.024467 789.362286,339.060635 789.362286,323.407023 C789.362286,307.753411 777.398454,295.789579 761.744842,295.789579 L640.764784,295.789579 L378.678596,295.789579 L262.170999,295.789579 C246.517387,295.789579 234.553555,307.753411 234.553555,323.407023 Z M435.367033,277.332973 L435.367033,295.789579 L586.312577,295.789579 L586.312577,277.332973 L435.367033,277.332973 Z M542.748616,487.454873 L542.748616,524.154893 L923.433583,524.154893 L923.433583,487.454873 L542.748616,487.454873 Z M542.748616,661.624464 L542.748616,698.324485 L923.433583,698.324485 L923.433583,661.624464 L542.748616,661.624464 Z M100.482258,835.172022 L100.482258,871.872043 L923.433583,871.872043 L923.433583,835.172022 L100.482258,835.172022 Z M117.899219,777.94487 L416.475662,777.94487 C425.806177,777.94487 433.270587,771.102493 433.270587,762.394014 C433.270587,762.394014 433.270587,706.410931 388.484121,685.883799 C360.492579,672.821081 377.909537,682.773629 343.697654,669.71091 C308.863735,656.648191 304.509496,652.293952 304.509496,652.293949 L303.887462,621.814272 C303.887462,621.814272 316.950181,612.483758 320.682387,584.492216 C328.768833,586.358318 331.256971,575.783737 331.879004,568.94136 C332.501037,562.098983 336.855279,541.571852 326.902729,543.437956 C328.768831,529.753202 330.634935,516.690483 330.0129,509.848106 C327.524762,486.210804 310.107804,461.951468 265.321337,460.085364 C227.377248,461.951466 203.117912,486.210804 200.629775,509.848106 C200.007742,516.690483 201.251808,529.131168 203.117912,543.437956 C193.165364,541.571854 197.519604,562.721018 198.141637,568.94136 C198.763671,575.783737 201.251808,586.980354 209.338254,584.492216 C213.07046,613.105791 226.133179,622.436306 226.133179,622.436306 L225.511146,652.915985 C225.511146,652.915985 224.267077,657.270224 190.055191,670.954979 C155.221273,684.017697 173.260266,673.443116 145.268725,686.505835 C100.482258,707.032966 100.482258,763.016049 100.482258,763.016047 C101.104292,771.102493 108.568704,777.94487 117.899219,777.94487 L117.899219,777.94487 Z M484.340476,182.972286 C484.340476,198.224979 496.705227,210.589729 511.95792,210.589729 C527.210613,210.589729 539.575364,198.224979 539.575364,182.972286 C539.575364,167.719592 527.210613,155.354842 511.95792,155.354842 C496.705227,155.354842 484.340476,167.719592 484.340476,182.972286 Z" id="Combined-Shape"></path>
        </g>
    </g>
</svg>