<?xml version="1.0" encoding="utf-8"?>
<!-- Generator: Adobe Illustrator 17.0.0, SVG Export Plug-In . SVG Version: 6.00 Build 0)  -->
<!DOCTYPE svg PUBLIC "-//W3C//DTD SVG 1.1//EN" "http://www.w3.org/Graphics/SVG/1.1/DTD/svg11.dtd">
<svg version="1.1" id="图层_1" xmlns="http://www.w3.org/2000/svg" xmlns:xlink="http://www.w3.org/1999/xlink" x="0px" y="0px"
	 width="1024px" height="1024px" viewBox="0 0 1024 1024" enable-background="new 0 0 1024 1024" xml:space="preserve">
<path fill="#333333" d="M118.153,458.479L588.895,945.55c48.886,50.595,114.097,78.453,183.682,78.453
	c69.555,0,134.796-27.888,183.72-78.492c5.696-5.939,11.043-12.019,16.146-18.389c6.076-7.572,8.924-17.118,8.058-26.882
	c-0.87-9.781-5.385-18.623-12.778-24.993c-6.357-5.385-14.411-8.365-22.639-8.365c-10.595,0-20.555,4.809-27.363,13.26
	c-3.714,4.651-7.674,9.124-11.772,13.405c-35.592,36.782-82.956,57.055-133.406,57.055c-50.455,0-97.818-20.273-133.372-57.055
	L168.428,406.455c-73.508-76.096-73.508-199.9,0-275.987c35.417-36.701,82.781-56.876,133.376-56.876
	c50.553,0,97.916,20.175,133.368,56.876l385.842,399.204c22.123,22.882,34.309,53.358,34.309,85.829
	c0,32.458-12.185,62.917-34.309,85.808c-20.904,21.586-51.111,33.985-82.951,33.985c-31.806,0-62.052-12.398-82.917-33.985
	l-295.425-305.67c-22.051-22.806-34.168-53.281-34.168-85.829c0-32.518,12.117-62.977,34.168-85.812
	c13.857-14.321,13.857-37.677,0-52.002c-6.707-6.937-15.66-10.787-25.142-10.787c-9.478,0-18.44,3.85-25.142,10.787
	c-35.447,36.662-55,85.646-55,137.815c0,52.199,19.553,101.161,55,137.84l295.425,305.674
	c35.456,36.679,82.781,56.905,133.24,56.905c50.412,0,97.742-20.226,133.197-56.905c73.469-75.993,73.469-199.674,0-275.668
	L485.448,78.427C436.563,27.853,371.352,0.004,301.805,0.004c-69.555,0-134.762,27.849-183.652,78.424
	c-48.89,50.595-75.806,118.066-75.806,190.03S69.263,407.892,118.153,458.479z"/>
</svg>
