<?xml version="1.0" encoding="utf-8"?>
<!-- Generator: Adobe Illustrator 17.0.0, SVG Export Plug-In . SVG Version: 6.00 Build 0)  -->
<!DOCTYPE svg PUBLIC "-//W3C//DTD SVG 1.1//EN" "http://www.w3.org/Graphics/SVG/1.1/DTD/svg11.dtd">
<svg version="1.1" id="图层_1" xmlns="http://www.w3.org/2000/svg" xmlns:xlink="http://www.w3.org/1999/xlink" x="0px" y="0px"
	 width="1024px" height="1024px" viewBox="0 0 1024 1024" enable-background="new 0 0 1024 1024" xml:space="preserve">
<g>
	<g>
		<path d="M723.952,385.368c-53.643,0-97.277-43.488-97.277-96.954V0h-406.33c-53.643,0-97.274,43.488-97.274,96.954v830.092
			c0,53.466,43.63,96.954,97.274,96.954h583.307c53.643,0,97.277-43.488,97.277-96.954V385.368H723.952z M686.3,798.015H337.726
			c-8.96,0-16.213-7.257-16.213-16.164c0-8.892,7.253-16.153,16.213-16.153H686.3c8.96,0,16.213,7.26,16.213,16.153
			C702.513,790.759,695.26,798.015,686.3,798.015z M686.3,656.622H337.726c-8.96,0-16.213-7.26-16.213-16.168
			c0-8.892,7.253-16.153,16.213-16.153H686.3c8.96,0,16.213,7.26,16.213,16.153C702.513,649.362,695.26,656.622,686.3,656.622z
			 M686.3,515.215H337.726c-8.96,0-16.213-7.26-16.213-16.153c0-8.907,7.253-16.168,16.213-16.168H686.3
			c8.96,0,16.213,7.26,16.213,16.168C702.513,507.954,695.26,515.215,686.3,515.215z M723.952,320.731H886.07L691.526,22.759
			v265.656C691.526,306.214,706.058,320.731,723.952,320.731z"/>
	</g>
</g>
</svg>
