<?xml version="1.0" encoding="utf-8"?>
<!-- Generator: Adobe Illustrator 17.0.0, SVG Export Plug-In . SVG Version: 6.00 Build 0)  -->
<!DOCTYPE svg PUBLIC "-//W3C//DTD SVG 1.1//EN" "http://www.w3.org/Graphics/SVG/1.1/DTD/svg11.dtd">
<svg version="1.1" id="图层_1" xmlns="http://www.w3.org/2000/svg" xmlns:xlink="http://www.w3.org/1999/xlink" x="0px" y="0px"
	 width="1024px" height="1024px" viewBox="0 0 1024 1024" enable-background="new 0 0 1024 1024" xml:space="preserve">
<path fill="#333333" d="M915.153-0.015H110.536C50.048-0.015,0.844,49.189,0.844,109.677v803.332
	c0,60.487,49.204,109.691,109.691,109.691h804.617c60.487,0,109.691-49.204,109.691-109.691V109.677
	C1024.844,49.189,975.64-0.015,915.153-0.015z M767.273,583.921c-9.168,9.266-21.281,14.359-34.171,14.359
	c-12.899,0-25.031-5.093-34.154-14.332L561.093,444.018v396.274c0,26.878-21.629,48.758-48.222,48.758s-48.222-21.879-48.222-48.758
	V443.634L326.848,583.899c-9.096,9.266-21.254,14.381-34.234,14.381c-12.926,0-25.044-5.093-34.127-14.332
	c-9.025-9.11-14.042-21.295-14.095-34.296c-0.049-12.926,4.919-25.16,13.961-34.399l219.936-223.882
	c8.614-8.828,20.581-14.051,32.957-14.381h2.776c12.912,0.304,24.955,5.834,34.002,15.662l219.231,222.494
	C785.93,534.115,785.93,564.957,767.273,583.921z M772.567,255.481H253.122c-26.593,0-48.222-21.857-48.222-48.735
	c0-26.874,21.629-48.731,48.222-48.731h519.445c26.593,0,48.222,21.857,48.222,48.731
	C820.789,233.624,799.159,255.481,772.567,255.481z"/>
</svg>
