<?xml version="1.0" encoding="utf-8"?>
<!-- Generator: Adobe Illustrator 18.1.0, SVG Export Plug-In . SVG Version: 6.00 Build 0)  -->
<svg version="1.1" id="图层_1" xmlns="http://www.w3.org/2000/svg" xmlns:xlink="http://www.w3.org/1999/xlink" x="0px" y="0px"
	 viewBox="0 0 1024 1024" enable-background="new 0 0 1024 1024" xml:space="preserve">
<path fill="#333333" d="M514.4,189.5V32c0-12.3-7.2-23.7-18.3-28.9c-4.3-2.1-9-3.1-13.7-3.1c-7.4,0-14.7,2.7-20.3,7.4L78.7,325.9
	c-7.3,6.1-11.5,15-11.5,24.6c0,9.5,4.2,18.5,11.5,24.5l382,318c5.7,4.8,13,7.5,20.5,7.5c4.6,0,9.3-1,13.6-3
	c11.1-5.3,18.3-16.6,18.3-28.9v-167c11.7-1.2,26.4-2.3,42.9-2.3c129,0,194.5,57.2,194.5,169.9c0,180.2-132.7,276.6-159.1,294l-3,1.9
	c-14.6,9.3-19.1,29-10,43.7c5.9,9.5,16,15.1,27.2,15.1c5.8,0,11.5-1.6,16.8-4.8l3.6-2.2c331-212,331-382.3,331-473.8
	C956.9,228,617.2,192.9,514.4,189.5z"/>
</svg>
