<?xml version="1.0" encoding="utf-8"?>
<!-- Generator: Adobe Illustrator 17.0.0, SVG Export Plug-In . SVG Version: 6.00 Build 0)  -->
<!DOCTYPE svg PUBLIC "-//W3C//DTD SVG 1.1//EN" "http://www.w3.org/Graphics/SVG/1.1/DTD/svg11.dtd">
<svg version="1.1" id="图层_1" xmlns="http://www.w3.org/2000/svg" xmlns:xlink="http://www.w3.org/1999/xlink" x="0px" y="0px"
	 width="1024px" height="1024px" viewBox="-499.018 -499.878 1024 1024" enable-background="new -499.018 -499.878 1024 1024"
	 xml:space="preserve">
<g>
	<path fill="#333333" d="M119.95-113.051H-93.794c-60.828,0-110.329-49.501-110.329-110.329v-133.351
		c0-60.828,49.501-110.329,110.329-110.329H119.95c60.828,0,110.329,49.501,110.329,110.329v133.351
		C230.279-162.552,180.778-113.051,119.95-113.051z M-93.794-393.508c-20.301,0-36.776,16.476-36.776,36.776v133.351
		c0,20.301,16.476,36.776,36.776,36.776H119.95c20.227,0,36.776-16.476,36.776-36.776v-133.351
		c0-20.301-16.549-36.776-36.776-36.776H-93.794z"/>
</g>
<g>
	<path fill="#333333" d="M13.078,70.83c-20.301,0-36.776-16.476-36.776-36.776v-183.882c0-20.301,16.476-36.776,36.776-36.776
		s36.776,16.476,36.776,36.776V34.054C49.854,54.355,33.379,70.83,13.078,70.83z"/>
</g>
<g>
	<path fill="#333333" d="M-174.849,489.124h-213.744c-60.828,0-110.329-49.501-110.329-110.329V245.444
		c0-60.828,49.501-110.329,110.329-110.329h213.744c60.828,0,110.329,49.501,110.329,110.329v133.351
		C-64.52,439.623-114.021,489.124-174.849,489.124z M-388.593,208.668c-20.301,0-36.776,16.549-36.776,36.776v133.351
		c0,20.227,16.476,36.776,36.776,36.776h213.744c20.301,0,36.776-16.549,36.776-36.776V245.444
		c0-20.227-16.476-36.776-36.776-36.776H-388.593z"/>
</g>
<g>
	<path fill="#333333" d="M-281.721,208.742c-20.301,0-36.776-16.476-36.776-36.776V45.602c0-20.301,16.476-36.776,36.776-36.776
		c20.301,0,36.776,16.476,36.776,36.776v126.363C-244.945,192.266-261.347,208.742-281.721,208.742z"/>
</g>
<g>
	<path fill="#333333" d="M414.749,489.124H201.005c-60.828,0-110.329-49.501-110.329-110.329V245.444
		c0-60.828,49.501-110.329,110.329-110.329h213.744c60.828,0,110.329,49.501,110.329,110.329v133.351
		C525.078,439.623,475.577,489.124,414.749,489.124z M201.005,208.668c-20.227,0-36.776,16.549-36.776,36.776v133.351
		c0,20.227,16.549,36.776,36.776,36.776h213.744c20.227,0,36.776-16.549,36.776-36.776V245.444
		c0-20.227-16.549-36.776-36.776-36.776H201.005z"/>
</g>
<g>
	<path fill="#333333" d="M307.877,208.742c-20.3,0-36.776-16.476-36.776-36.776V45.602c0-20.301,16.476-36.776,36.776-36.776
		c20.3,0,36.776,16.476,36.776,36.776v126.363C344.653,192.266,328.178,208.742,307.877,208.742z"/>
</g>
<g>
	<path fill="#333333" d="M383.121,82.305h-740.087c-20.301,0-36.776-16.476-36.776-36.776s16.476-36.776,36.776-36.776h740.16
		c20.3,0,36.776,16.476,36.776,36.776S403.495,82.305,383.121,82.305z"/>
</g>
</svg>
