<?xml version="1.0" encoding="utf-8"?>
<!-- Generator: Adobe Illustrator 17.0.0, SVG Export Plug-In . SVG Version: 6.00 Build 0)  -->
<!DOCTYPE svg PUBLIC "-//W3C//DTD SVG 1.1//EN" "http://www.w3.org/Graphics/SVG/1.1/DTD/svg11.dtd">
<svg version="1.1" id="图层_1" xmlns="http://www.w3.org/2000/svg" xmlns:xlink="http://www.w3.org/1999/xlink" x="0px" y="0px"
	 width="1024px" height="1024px" viewBox="0 0 1024 1024" enable-background="new 0 0 1024 1024" xml:space="preserve">
<g>
	<g>
		<path d="M490.63,24.54H246.138c-10.235,0-19.893,4.747-26.069,12.776L5.232,315.016h315.54L490.63,24.54z M1018.267,315.016
			L801.744,37.248c-6.241-8.014-15.834-12.708-26.004-12.708H536.53l166.667,290.476H1018.267z M349.871,380.718l162.841,526.448
			l161.072-526.448H349.871z M1021.646,380.718H718.84L528.279,999.46L1024,380.244
			C1023.178,380.301,1022.479,380.718,1021.646,380.718z M648.927,315.016L513.385,75.967L375.206,315.016H648.927z M0,380.718
			L498.518,999.46L304.819,380.718H0z"/>
	</g>
</g>
</svg>
