<svg xmlns="http://www.w3.org/2000/svg" xmlns:xlink="http://www.w3.org/1999/xlink" preserveAspectRatio="xMidYMid" width="1024" height="1024" viewBox="0 0 1024 1024">
  <g>
    <path d="M923.114,1022.796 L100.734,1022.796 C45.505,1022.796 0.734,978.024 0.734,922.796 L0.734,101.000 C0.734,45.772 45.505,1.000 100.734,1.000 L923.114,1.000 C978.343,1.000 1023.114,45.772 1023.114,101.000 L1023.114,922.796 C1023.114,978.024 978.343,1022.796 923.114,1022.796 ZM966.369,157.813 C966.369,102.585 921.598,57.813 866.369,57.813 L157.448,57.813 C102.219,57.813 57.448,102.585 57.448,157.813 L57.448,866.014 C57.448,921.242 102.219,966.014 157.448,966.014 L866.369,966.014 C921.598,966.014 966.369,921.242 966.369,866.014 L966.369,157.813 Z" class="cls-1"/>
    <circle cx="199.547" cy="256.469" r="28.422" class="cls-2"/>
    <path d="M199.545,341.599 C215.240,341.599 227.964,354.303 227.964,369.974 C227.964,385.645 215.240,398.349 199.545,398.349 C183.849,398.349 171.125,385.645 171.125,369.974 C171.125,354.303 183.849,341.599 199.545,341.599 Z" class="cls-1"/>
    <path d="M312.678,228.066 L597.524,228.066 C612.988,228.066 625.524,240.602 625.524,256.066 L625.524,256.879 C625.524,272.343 612.988,284.879 597.524,284.879 L312.678,284.879 C297.214,284.879 284.678,272.343 284.678,256.879 L284.678,256.066 C284.678,240.602 297.214,228.066 312.678,228.066 Z" class="cls-1"/>
    <path d="M312.678,341.599 L483.940,341.599 C499.404,341.599 511.940,354.135 511.940,369.599 L511.940,370.349 C511.940,385.813 499.404,398.349 483.940,398.349 L312.678,398.349 C297.214,398.349 284.678,385.813 284.678,370.349 L284.678,369.599 C284.678,354.135 297.214,341.599 312.678,341.599 Z" class="cls-1"/>
    <path d="M680.340,727.007 C586.235,727.007 509.948,650.761 509.948,556.708 C509.948,462.654 586.235,386.408 680.340,386.408 C774.445,386.408 850.732,462.654 850.732,556.708 C850.732,650.761 774.445,727.007 680.340,727.007 ZM680.325,443.222 C617.585,443.222 566.725,494.052 566.725,556.754 C566.725,619.457 617.585,670.287 680.325,670.287 C743.064,670.287 793.924,619.457 793.924,556.754 C793.924,494.052 743.064,443.222 680.325,443.222 Z" class="cls-1"/>
    <path d="M900.408,1010.855 C905.083,992.706 907.570,973.680 907.570,954.073 C907.570,828.668 805.850,727.007 680.371,727.007 C554.893,727.007 453.172,828.668 453.172,954.073 C453.172,973.680 455.659,992.706 460.334,1010.855 L402.018,1010.855 C398.293,992.517 396.333,973.540 396.333,954.104 C396.333,797.356 523.495,670.287 680.356,670.287 C837.217,670.287 964.378,797.356 964.378,954.104 C964.378,973.540 962.418,992.517 958.694,1010.855 L900.408,1010.855 Z" class="cls-1"/>
  </g>
</svg>
