<?xml version="1.0" encoding="utf-8"?>
<!-- Generator: Adobe Illustrator 18.1.0, SVG Export Plug-In . SVG Version: 6.00 Build 0)  -->
<svg version="1.1" id="图层_1" xmlns="http://www.w3.org/2000/svg" xmlns:xlink="http://www.w3.org/1999/xlink" x="0px" y="0px"
	 viewBox="0 0 1024 1024" enable-background="new 0 0 1024 1024" xml:space="preserve">
<path fill="#333333" d="M992.5,731.1l-186.7-154c15.7-21.8,28.8-45.3,39.4-70.2c19-44.8,28.6-92.4,28.6-141.5s-9.6-96.6-28.6-141.5
	c-18.3-43.3-44.5-82.1-77.9-115.5s-72.2-59.6-115.5-77.9C607,11.6,559.4,2,510.4,2c-49,0-96.6,9.6-141.5,28.6
	c-43.3,18.3-82.1,44.5-115.5,77.9c-33.4,33.4-59.6,72.2-77.9,115.5c-19,44.8-28.6,92.4-28.6,141.5s9.6,96.6,28.6,141.5
	c10.6,24.9,23.7,48.4,39.4,70.2l-186.7,154c-11.2,9.3-17.3,23.4-16.2,38c1.1,14.5,9.1,27.7,21.6,35.2
	c38.3,23.2,148.5,105.2,153,174.9c1.2,19.3,14.7,35.7,33.4,40.6c3.8,1,7.7,1.5,11.5,1.5c14.9,0,29.1-7.4,37.6-20.2l182.6-277
	c19.3,3.1,38.9,4.7,58.7,4.7c19.8,0,39.4-1.6,58.7-4.7l182.6,277c8.5,12.8,22.7,20.2,37.6,20.2c3.8,0,7.7-0.5,11.5-1.5
	c18.7-5,32.1-21.3,33.4-40.6c4.4-69.7,114.7-151.7,152.9-174.9c12.5-7.5,20.5-20.7,21.6-35.2C1009.8,754.6,1003.7,740.4,992.5,731.1
	z M242.4,878c-17.1-26.9-40.7-54-70.5-81.2c-14.1-12.8-28.1-24.3-40.7-34l144.7-119.4c2.4,1.9,4.8,3.8,7.3,5.6
	c24,19.3,50.3,35.4,78.5,48L242.4,878z M436.3,628.6c-16.3-5.7-57.9-21.7-94.7-48.3C277.9,530.3,237,452.5,237,365.4
	C237,214.7,359.6,92,510.4,92c150.8,0,273.4,122.6,273.4,273.4c0,87.5-41.3,165.5-105.4,215.6c-36.5,26.2-77.4,41.9-93.7,47.6
	c-23.6,6.7-48.5,10.3-74.3,10.3C484.7,638.8,459.9,635.3,436.3,628.6z M848.9,796.9c-29.8,27.2-53.4,54.3-70.5,81.2L659.1,697.1
	c28.2-12.7,54.5-28.7,78.5-48c2.4-1.8,4.9-3.7,7.3-5.6l144.7,119.4C876.9,772.6,862.9,784,848.9,796.9z"/>
</svg>
