<?xml version="1.0" encoding="utf-8"?>
<!-- Generator: Adobe Illustrator 21.0.0, SVG Export Plug-In . SVG Version: 6.00 Build 0)  -->
<svg version="1.1" id="图层_1" xmlns="http://www.w3.org/2000/svg" xmlns:xlink="http://www.w3.org/1999/xlink" x="0px" y="0px"
	 viewBox="0 0 1024 1024" style="enable-background:new 0 0 1024 1024;" xml:space="preserve">
<style type="text/css">
	.st0{fill:#333333;}
	.st1{fill-rule:evenodd;clip-rule:evenodd;fill:#333333;}
</style>
<g>
	<path class="st0" d="M926.5,108.7c20.7,0,37.5,16.8,37.5,37.5v633.9c0,20.7-16.8,37.5-37.5,37.5H448.1c-14.8,0-28.5,5.4-39,14.4
		L313.2,904v-26.3c0-33.1-26.9-60-60-60H97.5c-20.7,0-37.5-16.8-37.5-37.5V146.3c0-20.7,16.8-37.5,37.5-37.5H926.5 M926.5,48.7h-829
		C43.7,48.7,0,92.4,0,146.3v633.9c0,53.9,43.7,97.5,97.5,97.5h155.7V1024l195.1-146.3l-0.2,0h478.4c53.9,0,97.5-43.7,97.5-97.5
		V146.3C1024,92.4,980.3,48.7,926.5,48.7L926.5,48.7z"/>
</g>
<g>
	<g>
		<path class="st1" d="M487.6,195H195v48.8h48.8v390.1H195v48.8h146.3v-48.8h-48.8v-97.5h97.5v48.8h-48.8v48.8h48.8v97.5h48.8V243.8
			h48.8V195z M390.1,487.6h-97.5v-97.5h97.5V487.6z M390.1,341.3h-97.5v-97.5h97.5V341.3z M585.1,195v48.8h48.8V195H585.1z
			 M536.4,292.6h48.8v-48.8h-48.8V292.6z M487.6,585.1h48.8v97.5h48.8V390.1h-48.8v-97.5h-48.8V585.1z M487.6,731.4h48.8v-48.8
			h-48.8V731.4z M633.9,243.8v487.6h48.8v-97.5h97.5V243.8H633.9z M731.4,585.1h-48.8V292.6h48.8V585.1z"/>
	</g>
</g>
</svg>
