<?xml version="1.0" encoding="utf-8"?>
<!-- Generator: Adobe Illustrator 17.0.0, SVG Export Plug-In . SVG Version: 6.00 Build 0)  -->
<!DOCTYPE svg PUBLIC "-//W3C//DTD SVG 1.1//EN" "http://www.w3.org/Graphics/SVG/1.1/DTD/svg11.dtd">
<svg version="1.1" id="图层_1" xmlns="http://www.w3.org/2000/svg" xmlns:xlink="http://www.w3.org/1999/xlink" x="0px" y="0px"
	 width="1024px" height="1024px" viewBox="0 0 1024 1024" enable-background="new 0 0 1024 1024" xml:space="preserve">
<path fill="#333333" d="M1004.693,301.85L525.004,81.349c-4.205-1.886-8.864-2.898-13.518-2.898s-9.309,1.012-13.612,2.926
	L18.278,301.877C6.875,307.13-0.497,318.616-0.497,331.106c0,12.561,7.407,24.012,18.802,29.202l65.948,30.422v259.169
	c-24.795,9.691-42.456,33.588-42.456,61.617c0,36.604,29.954,66.365,66.775,66.365c36.79,0,66.739-29.761,66.739-66.365
	c0-28.02-17.649-51.914-42.424-61.609V413.155l82.439,38.018c-0.272,1.677-1.008,3.205-1.008,4.946v339.639
	c0,85.408,127.753,149.789,297.167,149.789s297.199-64.381,297.199-149.789V450.697l195.95-90.354
	c11.459-5.225,18.869-16.676,18.869-29.237C1023.503,318.616,1016.128,307.13,1004.693,301.85z M743.843,795.758
	c0,34.797-90.519,85.345-232.357,85.345c-141.811,0-232.326-50.548-232.326-85.345V480.604l218.619,100.828
	c4.304,2.02,8.927,3.052,13.707,3.052c4.78,0,9.403-1.032,13.616-3.024l218.741-100.867V795.758z M511.486,516.771L109.049,331.169
	l402.437-185.027l402.472,185.027L511.486,516.771z"/>
</svg>
