<?xml version="1.0" encoding="UTF-8"?>
<svg width="1024px" height="1024px" viewBox="0 0 1024 1024" version="1.1" xmlns="http://www.w3.org/2000/svg" xmlns:xlink="http://www.w3.org/1999/xlink">
    <!-- Generator: Sketch 46.1 (44463) - http://www.bohemiancoding.com/sketch -->
    <title>点</title>
    <desc>Created with Sketch.</desc>
    <defs></defs>
    <g id="设计稿" stroke="none" stroke-width="1" fill="none" fill-rule="evenodd">
        <g id="点" fill-rule="nonzero" fill="#000000">
            <path d="M512,1024 C229.230208,1024 6.82121026e-13,794.769792 6.82121026e-13,512 C6.82121026e-13,229.230208 229.230208,-3.41060513e-13 512,-3.41060513e-13 C794.769792,-3.41060513e-13 1024,229.230208 1024,512 C1024,794.769792 794.769792,1024 512,1024 Z M512,975.238095 C767.839336,975.238095 975.238095,767.839336 975.238095,512 C975.238095,256.160664 767.839336,48.7619048 512,48.7619048 C256.160664,48.7619048 48.7619048,256.160664 48.7619048,512 C48.7619048,767.839336 256.160664,975.238095 512,975.238095 Z M380.923487,557.576802 C355.518388,557.576802 334.923487,536.9819 334.923487,511.576802 C334.923487,486.171703 355.518388,465.576802 380.923487,465.576802 C406.328585,465.576802 426.923487,486.171703 426.923487,511.576802 C426.923487,536.9819 406.328585,557.576802 380.923487,557.576802 Z M511.81832,557.576802 C486.413221,557.576802 465.81832,536.9819 465.81832,511.576802 C465.81832,486.171703 486.413221,465.576802 511.81832,465.576802 C537.223418,465.576802 557.81832,486.171703 557.81832,511.576802 C557.81832,536.9819 537.223418,557.576802 511.81832,557.576802 Z M642.713153,557.576802 C617.308054,557.576802 596.713153,536.9819 596.713153,511.576802 C596.713153,486.171703 617.308054,465.576802 642.713153,465.576802 C668.118251,465.576802 688.713153,486.171703 688.713153,511.576802 C688.713153,536.9819 668.118251,557.576802 642.713153,557.576802 Z" id="Combined-Shape"></path>
        </g>
    </g>
</svg>