<?xml version="1.0" encoding="utf-8"?>
<!-- Generator: Adobe Illustrator 16.0.0, SVG Export Plug-In . SVG Version: 6.00 Build 0)  -->
<!DOCTYPE svg PUBLIC "-//W3C//DTD SVG 1.1//EN" "http://www.w3.org/Graphics/SVG/1.1/DTD/svg11.dtd">
<svg version="1.1" id="图层_1" xmlns="http://www.w3.org/2000/svg" xmlns:xlink="http://www.w3.org/1999/xlink" x="0px" y="0px"
	 width="1024px" height="1024px" viewBox="0 0 1024 1024" enable-background="new 0 0 1024 1024" xml:space="preserve">
<path d="M884.805,1024.288c-30.874,0-61.942-10.571-87.407-32.126L513.014,750.608l-284.38,241.554
	c-56.965,48.337-142.16,41.345-190.479-15.503C-10.168,919.78-3.242,834.534,53.655,786.247l371.886-315.882
	c50.433-42.846,124.48-42.846,174.945,0L972.34,786.247c56.864,48.287,63.793,133.565,15.504,190.412
	C961.129,1008.109,923.132,1024.288,884.805,1024.288z M987.844,538.426c48.289-56.88,41.36-142.109-15.504-190.413L600.486,32.146
	c-50.465-42.86-124.512-42.86-174.945,0L53.655,348.013C-3.242,396.3-10.135,481.579,38.154,538.426
	c48.319,56.847,133.515,63.806,190.479,15.518l284.38-241.569l284.384,241.569c25.465,21.572,56.533,32.11,87.407,32.11
	C923.132,586.054,961.129,569.876,987.844,538.426z"/>
</svg>
