<?xml version="1.0" encoding="utf-8"?>
<!-- Generator: Adobe Illustrator 17.0.0, SVG Export Plug-In . SVG Version: 6.00 Build 0)  -->
<!DOCTYPE svg PUBLIC "-//W3C//DTD SVG 1.1//EN" "http://www.w3.org/Graphics/SVG/1.1/DTD/svg11.dtd">
<svg version="1.1" id="图层_2" xmlns="http://www.w3.org/2000/svg" xmlns:xlink="http://www.w3.org/1999/xlink" x="0px" y="0px"
	 width="1024px" height="1024px" viewBox="0 0 1024 1024" enable-background="new 0 0 1024 1024" xml:space="preserve">
<path d="M887.826,669.384c19.999-19.984,19.999-52.401,0-72.4c-10-9.999-23.1-15-36.2-15s-26.2,5-36.2,15L563.192,849.205V51.2
	c0-28.267-22.933-51.2-51.2-51.2c-28.284,0-51.2,22.933-51.2,51.2v797.987L208.575,596.983c-10-9.999-23.1-15-36.2-15
	s-26.2,5-36.2,15c-19.999,19.984-19.999,52.416,0,72.4l337.9,337.9c0.191,0.189,0.448,0.24,0.64,0.425
	c9.341,9.973,22.528,16.292,37.276,16.292c14.723,0,27.903-6.305,37.244-16.259c0.206-0.199,0.485-0.253,0.69-0.458L887.826,669.384
	z"/>
</svg>
