<?xml version="1.0" encoding="utf-8"?>
<!-- Generator: Adobe Illustrator 17.0.0, SVG Export Plug-In . SVG Version: 6.00 Build 0)  -->
<!DOCTYPE svg PUBLIC "-//W3C//DTD SVG 1.1//EN" "http://www.w3.org/Graphics/SVG/1.1/DTD/svg11.dtd">
<svg version="1.1" id="图层_1" xmlns="http://www.w3.org/2000/svg" xmlns:xlink="http://www.w3.org/1999/xlink" x="0px" y="0px"
	 width="1024px" height="1024px" viewBox="0 0 1024 1024" enable-background="new 0 0 1024 1024" xml:space="preserve">
<g>
	<g>
		<path fill="#333333" d="M919.359,512.185H806.08c-17.626,0-31.946,14.314-31.946,31.961s14.319,31.981,31.946,31.981h113.279
			c22.367,0,41.243,14.468,41.243,31.551v193.307c0,17.099-18.876,31.551-41.243,31.551H105.631
			c-22.367,0-41.243-14.452-41.243-31.551V607.679c0-17.084,18.876-31.551,41.243-31.551h113.996
			c17.626,0,31.946-14.335,31.946-31.981s-14.319-31.961-31.946-31.961H105.631c-57.963,0-105.134,42.835-105.134,95.494v193.307
			c0,52.659,47.171,95.494,105.134,95.494h813.727c57.968,0,105.139-42.835,105.139-95.494V607.679
			C1024.498,555.02,977.327,512.185,919.359,512.185z M312.126,393.351c8.58,0,16.664-3.379,22.649-9.394l145.788-146.366v473.665
			c0,17.631,14.319,31.961,31.946,31.961c17.632,0,31.946-14.329,31.946-31.961V238.021l145.818,145.972
			c6.021,6.031,14.073,9.358,22.592,9.358c8.514,0,16.562-3.328,22.582-9.358c12.451-12.476,12.451-32.77,0-45.22L535.725,138.82
			c-5.836-6.266-13.997-10.3-23.217-10.3c-0.051,0-0.102,0.036-0.154,0.036c-0.056,0-0.102-0.036-0.159-0.036
			c-8.452,0-16.72,3.435-22.649,9.435l-200.07,200.873c-6.021,6.056-9.328,14.084-9.297,22.597
			c0.031,8.58,3.369,16.603,9.389,22.587C295.595,390.044,303.607,393.351,312.126,393.351z"/>
	</g>
</g>
</svg>
