<?xml version="1.0" encoding="utf-8"?>
<!-- Generator: Adobe Illustrator 18.1.0, SVG Export Plug-In . SVG Version: 6.00 Build 0)  -->
<svg version="1.1" id="图层_1" xmlns="http://www.w3.org/2000/svg" xmlns:xlink="http://www.w3.org/1999/xlink" x="0px" y="0px"
	 viewBox="0 0 1024 1024" enable-background="new 0 0 1024 1024" xml:space="preserve">
<g>
	<path fill="#333333" d="M511.3,430.8c-45.3,0-82.1,36.8-82.1,82.1c0,45.3,36.8,82.1,82.1,82.1s82.1-36.8,82.1-82.1
		C593.4,467.6,556.5,430.8,511.3,430.8z"/>
	<path fill="#333333" d="M1008.7,472.8c-9-9.8-223.4-240.9-496.5-240.9c-273,0-487.4,231.1-496.4,240.9C-5,495.5-5,530.3,15.8,553
		c9,9.8,223.4,240.9,496.4,240.9c273,0,487.4-231.1,496.5-240.9C1029.4,530.3,1029.4,495.5,1008.7,472.8z M511.3,680.3
		c-92.3,0-167.4-75.1-167.4-167.4c0-92.3,75.1-167.4,167.4-167.4s167.4,75.1,167.4,167.4C678.7,605.2,603.6,680.3,511.3,680.3z"/>
</g>
</svg>
