<?xml version="1.0" encoding="utf-8"?>
<!-- Generator: Adobe Illustrator 17.0.0, SVG Export Plug-In . SVG Version: 6.00 Build 0)  -->
<!DOCTYPE svg PUBLIC "-//W3C//DTD SVG 1.1//EN" "http://www.w3.org/Graphics/SVG/1.1/DTD/svg11.dtd">
<svg version="1.1" id="图层_1" xmlns="http://www.w3.org/2000/svg" xmlns:xlink="http://www.w3.org/1999/xlink" x="0px" y="0px"
	 width="1024px" height="1024px" viewBox="0 0 1024 1024" enable-background="new 0 0 1024 1024" xml:space="preserve">
<g>
	<path fill="#667788" d="M512.278,429.795c-45.251,0-82.092,36.841-82.092,82.113s36.841,82.113,82.092,82.113
		s82.092-36.841,82.092-82.113S557.529,429.795,512.278,429.795z"/>
	<path fill="#667788" d="M1009.665,471.785c-9.019-9.832-223.435-240.893-496.458-240.893c-272.984,0-487.4,231.061-496.419,240.893
		c-20.749,22.723-20.749,57.523,0,80.246c9.019,9.832,223.435,240.893,496.419,240.893c273.023,0,487.438-231.061,496.458-240.893
		C1030.414,529.308,1030.414,494.507,1009.665,471.785z M512.278,679.346c-92.33,0-167.418-75.109-167.418-167.439
		c0-92.333,75.088-167.439,167.418-167.439s167.417,75.106,167.417,167.439C679.696,604.237,604.608,679.346,512.278,679.346z"/>
</g>
</svg>
