<?xml version="1.0" encoding="utf-8"?>
<!-- Generator: Adobe Illustrator 17.0.0, SVG Export Plug-In . SVG Version: 6.00 Build 0)  -->
<!DOCTYPE svg PUBLIC "-//W3C//DTD SVG 1.1//EN" "http://www.w3.org/Graphics/SVG/1.1/DTD/svg11.dtd">
<svg version="1.1" id="图层_1" xmlns="http://www.w3.org/2000/svg" xmlns:xlink="http://www.w3.org/1999/xlink" x="0px" y="0px"
	 width="1024px" height="1024px" viewBox="0 0 1024 1024" enable-background="new 0 0 1024 1024" xml:space="preserve">
<path fill="#333333" d="M1022.716,395.412c-4.326-13.17-16.124-22.951-30.066-24.943L683.955,326.52L545.898,52.275
	c-6.084-12.042-18.854-19.503-33.416-19.503c-14.557,0-27.331,7.462-33.416,19.503L341.043,326.52L32.348,370.468
	c-13.937,1.992-25.734,11.773-30.066,24.899c-4.331,13.141-0.615,27.868,9.464,37.469L235.083,646.3L182.31,947.714
	c-2.398,13.844,3.311,27.541,14.85,35.711c6.412,4.576,13.981,7.007,21.911,7.007c6.045,0,12.047-1.47,17.326-4.209l276.085-142.33
	l276.007,142.296c5.318,2.774,11.358,4.243,17.438,4.243c7.94,0,15.543-2.432,21.877-6.973
	c11.573-8.204,17.286-21.901,14.889-35.789L789.915,646.3l223.342-213.463C1023.336,423.236,1027.047,408.508,1022.716,395.412z"/>
</svg>
