<?xml version="1.0" encoding="UTF-8"?>
<svg width="990px" height="1024px" viewBox="0 0 990 1024" version="1.1" xmlns="http://www.w3.org/2000/svg" xmlns:xlink="http://www.w3.org/1999/xlink">
    <!-- Generator: Sketch 45.2 (43514) - http://www.bohemiancoding.com/sketch -->
    <title>Shape</title>
    <desc>Created with Sketch.</desc>
    <defs></defs>
    <g id="意向沟通" stroke="none" stroke-width="1" fill="none" fill-rule="evenodd">
        <g id="Artboard-Copy-2" transform="translate(-17.000000, 0.000000)" fill-rule="nonzero" fill="#000000">
            <path d="M988.308316,814.533333 L674.308317,496 L822.708316,345.466667 C847.508316,320.266667 847.508316,279.333333 822.708316,254.133334 L590.708317,18.9333334 C578.708317,6.79999999 562.708316,0 545.774983,0 C528.84165,0 512.84165,6.66666627 500.84165,18.9333334 L54.0416501,471.866667 C42.0416504,484 35.3749831,500.266667 35.3749831,517.466667 C35.3749831,534.666666 42.0416493,550.933333 54.0416501,563.066667 L286.04165,798.266666 C298.04165,810.4 314.04165,817.2 330.974983,817.2 C347.908316,817.2 363.908317,810.533334 375.908316,798.266666 L524.44165,647.733334 L838.574983,966.266667 C850.574983,978.4 866.574983,985.2 883.508316,985.2 C900.441649,985.2 916.44165,978.533334 928.441649,966.266667 L988.174983,905.733333 C1013.10832,880.666666 1013.10832,839.733334 988.308316,814.533333 M438.44165,965.333333 L46.04165,965.333333 C30.0416496,965.333333 17.1083171,978.533333 17.1083171,994.666667 C17.1083171,1010.93333 30.0416507,1024 46.04165,1024 L438.44165,1024 C454.44165,1024 467.374983,1010.8 467.374983,994.666667 C467.374983,978.533334 454.308317,965.333334 438.44165,965.333333" id="Shape"></path>
        </g>
    </g>
</svg>