<?xml version="1.0" encoding="utf-8"?>
<!-- Generator: Adobe Illustrator 21.0.0, SVG Export Plug-In . SVG Version: 6.00 Build 0)  -->
<svg version="1.1" id="Layer_1" xmlns="http://www.w3.org/2000/svg" xmlns:xlink="http://www.w3.org/1999/xlink" x="0px" y="0px"
	 viewBox="0 0 55 55" style="enable-background:new 0 0 55 55;" xml:space="preserve">
<title>LearnPanelIcons</title>
<path d="M26.6,51.6c13.5,0,21.8-8,21.8-20.6c0-2.5-0.9-4.5-2.1-7c-1-2.1-2-5.2-2.7-8.2c-1.7,1.4-3.3,2.5-3.6,8.8c0,0,0.5,4.3,0,7.1
	c-2.5-3.3-6.7-6.7-6.7-6.7c-5.2-5.9-6.9-11.3-7.1-19c-6.8,4.8-7.4,13.3-7.2,21.1c0,1.7,0.4,6.4-0.7,10.8c-2.9-1.9-3.7-2.9-5.1-4
	c-2.3-1.9-4.2-5.2-5.2-7.8c-1.1,1.6-1.6,3.9-1.6,5.7C6.5,42.8,14.7,51.6,26.6,51.6L26.6,51.6z M27.5,55C12.2,55,3,45,3,32.7
	c0-5.1,2.4-11.4,7.2-13.8c0,0,0.9,8.5,5.4,12C16.1,25.2,11.9,6.5,29.9,0c0,10.5,0.6,16.3,6.5,23.1c-0.5-3.9,2.1-10.7,10-12.9
	c-0.1,10,5.5,13.4,5.5,20.7C51.9,43.3,42.7,55,27.5,55"/>
</svg>
