<?xml version="1.0" encoding="UTF-8"?>
<svg width="1024px" height="1024px" viewBox="0 0 1024 1024" version="1.1" xmlns="http://www.w3.org/2000/svg" xmlns:xlink="http://www.w3.org/1999/xlink">
    <!-- Generator: Sketch 46.1 (44463) - http://www.bohemiancoding.com/sketch -->
    <title>手持</title>
    <desc>Created with Sketch.</desc>
    <defs></defs>
    <g id="设计稿" stroke="none" stroke-width="1" fill="none" fill-rule="evenodd">
        <g id="手持" fill-rule="nonzero" fill="#000000">
            <path d="M367.257006,315.80786 L367.257006,315.80786 C346.576589,320.838429 339.869425,293.449783 339.310496,276.122271 C338.192635,259.353713 327.014031,205.694324 352.16589,210.724891 C347.135519,175.510918 343.781939,143.091703 345.458729,126.323145 C351.606961,67.0742351 413.648214,4.47161659 509.225279,0 C621.570252,4.47161659 666.284668,66.515284 672.4329,126.323145 C674.10969,143.091703 670.197179,174.951967 665.166807,210.724891 C690.318667,206.253275 679.140062,259.353713 678.022201,276.122271 C676.904343,293.449781 669.63825,321.397378 649.516762,315.80786 C643.368528,362.759824 627.159551,388.471615 616.539878,401.32751 L400.233888,401.32751 C389.614215,388.471615 373.964168,362.200873 367.257006,315.80786 Z M1024,775.266375 C1024,819.982532 999.407072,857.432314 968.10698,861.344977 L968.10698,970.899562 C968.10698,999.965066 944.072981,1024 915.008611,1024 L110.149111,1024 C81.0847407,1024 57.050742,999.965064 57.050742,970.899562 L57.050742,861.344977 C25.7506501,857.432314 1.15772009,820.541485 1.15772009,775.266375 C1.15772205,729.991264 25.7506501,693.100435 57.050742,689.187772 L57.050742,454.427948 C57.050742,425.362444 81.0847407,401.32751 110.149111,401.32751 L915.008611,401.32751 C944.072981,401.327512 968.10698,425.362446 968.10698,454.427948 L968.10698,689.187772 C999.40707,693.100437 1024,729.991266 1024,775.266375 Z M147.597436,556.157206 L489.662723,556.157206 L489.662723,589.135371 L147.597436,589.135371 L147.597436,556.157206 Z M147.597436,712.663755 L489.662723,712.663755 L489.662723,745.641921 L147.597436,745.641921 L147.597436,712.663755 Z M147.597436,868.611353 L887.062101,868.611353 L887.062101,901.589519 L147.597436,901.589519 L147.597436,868.611353 Z M589.1523,817.187772 L589.1523,817.187772 C580.768346,817.187772 574.061182,811.0393 573.502253,803.772924 C573.502253,803.772926 573.502253,753.46725 613.745228,735.021834 C638.897087,723.283843 622.688111,732.786026 653.988203,721.048035 C684.729365,708.751092 685.847226,704.838428 685.847226,704.838428 L686.406155,677.449781 C686.406155,677.449781 674.668622,669.065501 671.31504,643.353712 C664.048947,645.58952 661.813225,635.528385 661.254296,629.379913 C660.695367,623.790394 656.782855,604.786027 665.725738,606.462883 C664.048947,593.606988 662.931088,582.427948 663.490017,576.279477 C665.725738,555.039302 687.524016,533.240174 721.618758,531.563319 C761.861733,533.240176 777.511778,555.039302 779.7475,576.279477 C780.306431,582.427948 778.629639,594.165939 776.952849,606.462883 C785.895734,604.786026 781.983221,623.231441 781.424291,629.379913 C780.865362,635.528385 778.629641,645.030567 771.363548,643.353712 C768.009966,668.50655 756.272432,676.89083 756.272432,676.89083 L756.831361,704.279475 C756.831361,704.279477 760.743873,708.19214 792.043965,719.930131 C822.785125,731.668122 807.13508,722.72489 832.28694,734.462881 C872.529915,752.908296 872.529915,803.213973 872.529915,803.213973 C872.529915,811.0393 865.822753,817.187772 857.438799,817.187772 L589.1523,817.187772 Z M915.008611,1012.82096 C937.924749,1012.82096 956.928376,994.375545 956.928376,970.899562 L956.928376,861.344977 C925.628286,857.432314 901.035356,820.541485 901.035356,775.266375 C901.035356,729.991264 925.628284,693.100435 956.928376,689.187772 L956.928376,454.427948 C956.928376,431.510916 937.924749,412.50655 915.008611,412.50655 L110.149111,412.50655 C87.2329712,412.506552 68.2293444,431.510918 68.2293444,454.427948 L68.2293444,689.187772 C99.5294363,693.100437 124.122366,729.991266 124.122366,775.266375 C124.122364,820.541485 99.5294363,857.432314 68.2293444,861.344977 L68.2293444,970.899562 C68.2293464,993.816594 87.2329732,1012.82096 110.149111,1012.82096 L915.008611,1012.82096 Z" id="Combined-Shape"></path>
        </g>
    </g>
</svg>