<?xml version="1.0" encoding="utf-8"?>
<!-- Generator: Adobe Illustrator 17.0.0, SVG Export Plug-In . SVG Version: 6.00 Build 0)  -->
<!DOCTYPE svg PUBLIC "-//W3C//DTD SVG 1.1//EN" "http://www.w3.org/Graphics/SVG/1.1/DTD/svg11.dtd">
<svg version="1.1" id="图层_1" xmlns="http://www.w3.org/2000/svg" xmlns:xlink="http://www.w3.org/1999/xlink" x="0px" y="0px"
	 width="1024px" height="1024px" viewBox="0 0 1024 1024" enable-background="new 0 0 1024 1024" xml:space="preserve">
<path d="M512,0C229.7,0,0,229.7,0,512s229.7,512,512,512s512-229.7,512-512S794.3,0,512,0z M551.3,800.9c0,21.7-17.6,39.3-39.3,39.3
	s-39.3-17.6-39.3-39.3V788c0-21.7,17.6-39.3,39.3-39.3c21.7,0,39.3,17.6,39.3,39.3V800.9z M551.3,569.8v77.7
	c0,21.7-17.6,39.3-39.3,39.3s-39.3-17.6-39.3-39.3V540.9c0-18,12.2-33.7,29.7-38.1C594.2,479.6,626.8,406,626.8,350
	c0-19.3-19.7-91.3-116.3-91.3c-90.1,0-114.1,74.3-115.1,77.4c-5.1,16.6-20.2,27.8-37.6,27.8c-3.8,0-7.7-0.6-11.4-1.7
	c-20.6-6.3-32.4-28.2-26.3-48.9C334,267.1,391.5,180,510.5,180c134.5,0,195,99.3,195,169.9C705.5,426.3,664.8,527.6,551.3,569.8z"/>
</svg>
