<?xml version="1.0" encoding="utf-8"?>
<!-- Generator: Adobe Illustrator 17.0.0, SVG Export Plug-In . SVG Version: 6.00 Build 0)  -->
<!DOCTYPE svg PUBLIC "-//W3C//DTD SVG 1.1//EN" "http://www.w3.org/Graphics/SVG/1.1/DTD/svg11.dtd">
<svg version="1.1" id="图层_1" xmlns="http://www.w3.org/2000/svg" xmlns:xlink="http://www.w3.org/1999/xlink" x="0px" y="0px"
	 width="1024px" height="1024px" viewBox="0 0 1024 1024" enable-background="new 0 0 1024 1024" xml:space="preserve">
<g>
	<g>
		<path fill="#333333" d="M933.607,103.225h-629.65c-50.12,0-90.884,41.296-90.884,92.04v124.14H74.931
			c-41.056,0-74.445,33.84-74.445,75.407v336.63c0,41.578,33.389,75.417,74.445,75.417h68.324l0.798,79.803
			c0.128,12.836,7.267,24.479,18.527,30.334c4.888,2.497,10.2,3.767,15.487,3.767c6.904,0,13.777-2.15,19.632-6.326l150.4-107.578
			h174.654c23.095,0,43.772-10.708,57.444-27.478l188.753,135.057c5.85,4.176,12.723,6.326,19.637,6.326
			c5.277,0,10.594-1.269,15.477-3.767c11.259-5.855,18.399-17.498,18.537-30.334l1.29-126.085h109.718
			c50.12,0,90.879-41.337,90.879-92.051V195.265C1024.486,144.521,983.727,103.225,933.607,103.225z M529.196,731.442
			c0,3.552-2.958,6.52-6.443,6.52H337.3c-7.037,0-13.88,2.216-19.627,6.336L211.41,820.232l-0.461-48.159
			c-0.194-18.911-15.349-34.111-34.014-34.111H74.931c-3.424,0-6.413-3.04-6.413-6.52v-336.63c0-3.485,2.989-6.52,6.413-6.52
			h447.822c3.485,0,6.443,2.968,6.443,6.52V731.442z M956.464,668.528c0,12.503-10.466,23.138-22.857,23.138H790.209
			c-18.634,0-33.814,15.216-34.014,34.111l-0.957,94.456L597.223,707.209V394.812c0-41.568-33.415-75.407-74.471-75.407H281.095
			v-124.14c0-12.518,10.466-23.153,22.862-23.153h629.65c12.39,0,22.857,10.635,22.857,23.153V668.528z"/>
	</g>
</g>
</svg>
