<?xml version="1.0" encoding="utf-8"?>
<!-- Generator: Adobe Illustrator 18.1.0, SVG Export Plug-In . SVG Version: 6.00 Build 0)  -->
<svg version="1.1" id="图层_1" xmlns="http://www.w3.org/2000/svg" xmlns:xlink="http://www.w3.org/1999/xlink" x="0px" y="0px"
	 viewBox="0 0 1024 1024" enable-background="new 0 0 1024 1024" xml:space="preserve">
<g>
	<g>
		<circle fill="#333333" cx="67.1" cy="191.5" r="67.1"/>
	</g>
	<g>
		<circle fill="#333333" cx="67.1" cy="514.3" r="67.1"/>
	</g>
	<g>
		<circle fill="#333333" cx="67.1" cy="845.9" r="67.1"/>
	</g>
	<g>
		<path fill="#333333" d="M956.9,245.3H280c-37.1,0-67.1-30-67.1-67.1S242.9,111,280,111h676.9c37.1,0,67.1,30,67.1,67.1
			S993.9,245.3,956.9,245.3z"/>
	</g>
	<g>
		<path fill="#333333" d="M956.9,581.4H280c-37.1,0-67.1-30-67.1-67.1s30.1-67.1,67.1-67.1h676.9c37.1,0,67.1,30,67.1,67.1
			S993.9,581.4,956.9,581.4z"/>
	</g>
	<g>
		<path fill="#333333" d="M956.9,913H280c-37.1,0-67.1-30-67.1-67.1s30.1-67.1,67.1-67.1h676.9c37.1,0,67.1,30,67.1,67.1
			S993.9,913,956.9,913z"/>
	</g>
</g>
</svg>
