<?xml version="1.0" encoding="UTF-8"?>
<svg width="1024px" height="1024px" viewBox="0 0 1024 1024" version="1.1" xmlns="http://www.w3.org/2000/svg" xmlns:xlink="http://www.w3.org/1999/xlink">
    <!-- Generator: Sketch 46.1 (44463) - http://www.bohemiancoding.com/sketch -->
    <title>锁</title>
    <desc>Created with Sketch.</desc>
    <defs></defs>
    <g id="设计稿" stroke="none" stroke-width="1" fill="none" fill-rule="evenodd">
        <g id="锁" fill-rule="nonzero" fill="#000000">
            <path d="M305.730077,394.173388 L721.773061,394.173388 C721.857844,393.180549 721.943338,392.146851 722.029071,391.073253 C726.177062,339.129676 724.191324,281.458439 711.749606,227.820299 C686.799195,120.255291 627.387623,59.1260077 518.914847,59.1260077 C410.003904,59.1260077 348.436708,119.865549 320.320859,226.274535 C305.687467,281.656975 302.403986,340.862936 305.619537,392.447711 C305.65653,393.041176 305.69342,393.616491 305.730077,394.173388 Z M246.489299,394.173388 C243.116074,337.292572 246.829974,272.961244 263.156634,211.170353 C297.516456,81.1300395 379.752,0 518.914847,0 C658.515864,0 738.749838,82.5537012 769.346448,214.460333 C783.245678,274.382023 785.516016,337.119706 781.093851,394.173388 L897.47039,394.173388 C913.797583,394.173388 926.347744,407.409196 926.347744,423.736392 C926.347744,440.063589 913.797583,453.299397 897.47039,453.299397 L127.21526,453.299397 L156.778264,423.736392 L156.778264,994.436997 L127.21526,964.873992 L896.78474,964.873992 L867.221735,994.436997 L867.221735,423.736392 L926.347744,423.736392 L926.347744,994.436997 C926.347744,1010.7642 913.111938,1024 896.78474,1024 L127.21526,1024 C110.888064,1024 97.6522561,1010.7642 97.6522561,994.436997 L97.6522561,423.736392 C97.6522561,407.409196 110.888064,394.173388 127.21526,394.173388 L246.489297,394.173388 Z M521.388648,799.071956 C463.762507,799.071956 417.047289,752.356737 417.047289,694.730596 C417.047289,637.104456 463.762507,590.389237 521.388648,590.389237 C579.014789,590.389237 625.730008,637.104456 625.730008,694.730596 C625.730008,752.356737 579.014789,799.071956 521.388648,799.071956 Z M521.388648,777.621597 C567.168083,777.621597 604.279649,740.510031 604.279649,694.730596 C604.279649,648.951162 567.168083,611.839596 521.388648,611.839596 C475.609213,611.839596 438.497647,648.951162 438.497647,694.730596 C438.497647,740.510031 475.609213,777.621597 521.388648,777.621597 Z" id="Combined-Shape"></path>
        </g>
    </g>
</svg>