<?xml version="1.0" encoding="utf-8"?>
<!-- Generator: Adobe Illustrator 17.0.0, SVG Export Plug-In . SVG Version: 6.00 Build 0)  -->
<!DOCTYPE svg PUBLIC "-//W3C//DTD SVG 1.1//EN" "http://www.w3.org/Graphics/SVG/1.1/DTD/svg11.dtd">
<svg version="1.1" id="图层_1" xmlns="http://www.w3.org/2000/svg" xmlns:xlink="http://www.w3.org/1999/xlink" x="0px" y="0px"
	 width="1024px" height="1024px" viewBox="0 0 1024 1024" enable-background="new 0 0 1024 1024" xml:space="preserve">
<g>
	<g>
		<path d="M979.657,146.948c-17.37-11.898-38.512-19.094-61.498-19.094H105.84c-22.752,0-43.734,7.024-61.011,18.707
			l467.169,346.865L979.657,146.948z M1018.365,197.732L531.032,558.69c-5.658,4.17-12.342,6.221-19.034,6.221
			c-6.688,0-13.373-2.051-19.03-6.221L5.83,197.127C2.342,207.117,0,217.61,0,228.705v566.591
			c0,55.619,47.466,100.852,105.84,100.852H918.16c58.375,0,105.84-45.232,105.84-100.852V228.705
			C1024,217.828,1021.722,207.549,1018.365,197.732z"/>
	</g>
</g>
</svg>
