<?xml version="1.0" encoding="utf-8"?>
<!-- Generator: Adobe Illustrator 17.0.0, SVG Export Plug-In . SVG Version: 6.00 Build 0)  -->
<!DOCTYPE svg PUBLIC "-//W3C//DTD SVG 1.1//EN" "http://www.w3.org/Graphics/SVG/1.1/DTD/svg11.dtd">
<svg version="1.1" id="图层_1" xmlns="http://www.w3.org/2000/svg" xmlns:xlink="http://www.w3.org/1999/xlink" x="0px" y="0px"
	 width="1024px" height="1024px" viewBox="0 0 1024 1024" enable-background="new 0 0 1024 1024" xml:space="preserve">
<g>
	<g>
		<path fill="#333333" d="M1012.638,590.398L429.919,10.623c-6.971-6.843-16.203-10.627-25.977-10.627H36.505
			c-20.299,0-36.796,16.378-36.796,36.519v374.617c0,9.727,3.844,18.929,10.785,25.823l580.846,576.341
			c6.933,6.886,16.203,10.7,26.084,10.7c9.774,0,19.296-3.963,26.092-10.836l369.229-371.311
			C1026.832,627.659,1026.794,604.626,1012.638,590.398z M617.211,935.706L73.302,396.016V73.033h315.402l546.029,543.325
			L617.211,935.706z M189.915,124.381c-33.388,0-60.516,26.958-60.516,60.081c0,33.136,27.129,60.056,60.516,60.056
			c33.383,0,60.512-26.92,60.512-60.056C250.427,151.34,223.298,124.381,189.915,124.381z"/>
	</g>
</g>
</svg>
