<?xml version="1.0" encoding="utf-8"?>
<!-- Generator: Adobe Illustrator 18.1.0, SVG Export Plug-In . SVG Version: 6.00 Build 0)  -->
<svg version="1.1" id="图层_1" xmlns="http://www.w3.org/2000/svg" xmlns:xlink="http://www.w3.org/1999/xlink" x="0px" y="0px"
	 viewBox="0 0 1024 1024" enable-background="new 0 0 1024 1024" xml:space="preserve">
<g>
	<path fill="#333333" d="M980.5,145.2C963.2,133.2,942,126,919,126H106.7c-22.8,0-43.7,7.1-61,18.8l467.2,348.5L980.5,145.2z"/>
	<path fill="#333333" d="M531.9,558.8c-5.7,4.2-12.3,6.3-19,6.3s-13.4-2.1-19-6.3L6.7,195.6c-3.5,10-5.8,20.6-5.8,31.7v569.2
		c0,55.9,47.5,101.3,105.8,101.3H919c58.4,0,105.8-45.4,105.8-101.3V227.3c0-10.9-2.3-21.3-5.6-31.1L531.9,558.8z"/>
</g>
</svg>
