<?xml version="1.0" encoding="utf-8"?>
<!-- Generator: Adobe Illustrator 17.0.0, SVG Export Plug-In . SVG Version: 6.00 Build 0)  -->
<!DOCTYPE svg PUBLIC "-//W3C//DTD SVG 1.1//EN" "http://www.w3.org/Graphics/SVG/1.1/DTD/svg11.dtd">
<svg version="1.1" id="图层_1" xmlns="http://www.w3.org/2000/svg" xmlns:xlink="http://www.w3.org/1999/xlink" x="0px" y="0px"
	 width="1024px" height="1024px" viewBox="-504 -504 1024 1024" enable-background="new -504 -504 1024 1024" xml:space="preserve">
<g>
	<g>
		<path fill="#333333" d="M414.144,393.856h-812.288C-456.512,393.856-504,348.48-504,292.608v-569.216
			c0-55.872,47.488-101.248,105.856-101.248h812.288C472.512-377.856,520-332.48,520-276.608v569.216
			C520,348.48,472.512,393.856,414.144,393.856z M-398.144-313.856c-23.04,0-41.856,16.704-41.856,37.248v569.216
			c0,20.544,18.752,37.312,41.856,37.312h812.288c23.04,0,41.856-16.704,41.856-37.312v-569.216
			c0-20.224-19.136-37.312-41.856-37.312L-398.144-313.856L-398.144-313.856z"/>
	</g>
	<g>
		<path fill="#333333" d="M8,61.184c-6.656,0-13.376-2.112-19.008-6.272L-465.6-281.536l38.08-51.456L8-10.624l435.712-322.368
			l38.08,51.456L27.008,54.912C21.376,59.072,14.656,61.184,8,61.184z"/>
	</g>
</g>
</svg>
