<?xml version="1.0" encoding="utf-8"?>
<!-- Generator: Adobe Illustrator 17.0.0, SVG Export Plug-In . SVG Version: 6.00 Build 0)  -->
<!DOCTYPE svg PUBLIC "-//W3C//DTD SVG 1.1//EN" "http://www.w3.org/Graphics/SVG/1.1/DTD/svg11.dtd">
<svg version="1.1" id="图层_2" xmlns="http://www.w3.org/2000/svg" xmlns:xlink="http://www.w3.org/1999/xlink" x="0px" y="0px"
	 width="1024px" height="1024px" viewBox="0 0 1024 1024" enable-background="new 0 0 1024 1024" xml:space="preserve">
<path fill="#231815" d="M806.557,419.963C806.365,137.4,714.598,0,526.027,0c-163.78,0-269.616,99.411-269.616,253.247
	c0,15.493,12.562,28.055,28.055,28.055s28.055-12.562,28.055-28.055c0-182.918,163.424-197.138,213.506-197.138
	c95.01,0,220.776,36.968,224.272,351.387c-4.598-0.324-9.182-0.703-13.861-0.703H287.562c-108.288,0-196.384,88.096-196.384,196.384
	v224.438C91.178,935.89,179.274,1024,287.562,1024h448.877c108.274,0,196.384-88.11,196.384-196.384V603.178
	C932.822,519.62,880.264,448.277,806.557,419.963z M876.712,827.616c0,77.342-62.932,140.274-140.274,140.274H287.562
	c-77.342,0-140.274-62.932-140.274-140.274V603.178c0-77.342,62.932-140.274,140.274-140.274h448.877
	c77.342,0,140.274,62.932,140.274,140.274V827.616z"/>
</svg>
