<?xml version="1.0" encoding="utf-8"?>
<!-- Generator: Adobe Illustrator 17.0.0, SVG Export Plug-In . SVG Version: 6.00 Build 0)  -->
<!DOCTYPE svg PUBLIC "-//W3C//DTD SVG 1.1//EN" "http://www.w3.org/Graphics/SVG/1.1/DTD/svg11.dtd">
<svg version="1.1" id="图层_1" xmlns="http://www.w3.org/2000/svg" xmlns:xlink="http://www.w3.org/1999/xlink" x="0px" y="0px"
	 width="1024px" height="1024px" viewBox="0 0 1024 1024" enable-background="new 0 0 1024 1024" xml:space="preserve">
<path fill="#333333" d="M1023.501,851.86V275.912c0-59.568-46.342-108.061-103.277-108.061H382.536
	c-23.679-50.025-60.204-104.741-106.443-104.741H107.814c-59.73,0-108.313,48.459-108.313,108.035V851.86
	c0,59.568,46.333,108.035,103.268,108.035h817.455C977.159,959.895,1023.501,911.428,1023.501,851.86z M69.278,441.071H953.72
	V851.86c0,21.208-15.028,38.442-33.495,38.442H102.769c-18.468,0-33.491-17.234-33.491-38.442V441.071z M69.278,171.146
	c0-21.208,17.273-38.442,38.536-38.442l166.234-0.303c9.069,3.641,35.1,38.813,53.597,83.495
	c5.382,13.086,18.058,21.549,32.232,21.549h560.348c18.468,0,33.495,17.264,33.495,38.467v95.564H69.278V171.146z"/>
</svg>
