<?xml version="1.0" encoding="utf-8"?>
<!-- Generator: Adobe Illustrator 18.1.0, SVG Export Plug-In . SVG Version: 6.00 Build 0)  -->
<svg version="1.1" id="图层_1" xmlns="http://www.w3.org/2000/svg" xmlns:xlink="http://www.w3.org/1999/xlink" x="0px" y="0px"
	 viewBox="0 0 1024 1024" enable-background="new 0 0 1024 1024" xml:space="preserve">
<g>
	<path fill="#333333" d="M404.5,412.1H-1.4V150.2c0-79.4,64.6-144,144-144h261.9V412.1z M79.6,331.1h243.8V87.3H142.6
		c-34.7,0-63,28.3-63,63V331.1z"/>
</g>
<g>
	<path fill="#333333" d="M404.5,1014.7H146.8c-81.7,0-148.2-66.5-148.2-148.2V608.9h405.9V1014.7z M79.6,689.9v176.6
		c0,37,30.1,67.2,67.1,67.2h176.7V689.9H79.6z"/>
</g>
<g>
	<rect x="708.6" y="707.5" fill="#333333" width="132.7" height="132.7"/>
</g>
<g>
	<path fill="#333333" d="M1022.6,412.1H616.7V6.2h257.6c81.8,0,148.3,66.5,148.3,148.3V412.1z M697.8,331.1h243.8V154.5
		c0-37.1-30.2-67.3-67.3-67.3H697.8V331.1z"/>
</g>
<g>
	<rect x="143.1" y="150.7" fill="#333333" width="116.9" height="116.9"/>
</g>
<g>
	<rect x="774.9" y="164.4" fill="#333333" width="89.5" height="89.5"/>
</g>
<g>
	<rect x="156.8" y="767.1" fill="#333333" width="89.5" height="89.5"/>
</g>
<g>
	<rect x="474.3" y="6.2" fill="#333333" width="81" height="535.4"/>
</g>
<g>
	<polygon fill="#333333" points="731.6,669.2 490.8,669.2 490.8,588.1 650.6,588.1 650.6,484.1 1014.6,484.1 1014.6,565.1 
		731.6,565.1 	"/>
</g>
<g>
	<rect x="213.8" y="463.8" fill="#333333" width="341.6" height="81"/>
</g>
<g>
	<rect x="0.6" y="463.8" fill="#333333" width="142.1" height="81"/>
</g>
<g>
	<polygon fill="#333333" points="571.8,994.1 490.8,994.1 490.8,733.4 839.7,733.4 839.7,814.4 571.8,814.4 	"/>
</g>
<g>
	<rect x="624.7" y="913" fill="#333333" width="211.8" height="81"/>
</g>
<g>
	<rect x="919.9" y="656.3" fill="#333333" width="81" height="340.8"/>
</g>
</svg>
