<?xml version="1.0" encoding="utf-8"?>
<!-- Generator: Adobe Illustrator 17.0.0, SVG Export Plug-In . SVG Version: 6.00 Build 0)  -->
<!DOCTYPE svg PUBLIC "-//W3C//DTD SVG 1.1//EN" "http://www.w3.org/Graphics/SVG/1.1/DTD/svg11.dtd">
<svg version="1.1" id="图层_1" xmlns="http://www.w3.org/2000/svg" xmlns:xlink="http://www.w3.org/1999/xlink" x="0px" y="0px"
	 width="1024px" height="1024px" viewBox="0 0 1024 1024" enable-background="new 0 0 1024 1024" xml:space="preserve">
<g>
	<path fill="#333333" d="M969.67,87.32l-32.973-32.937C901.644,19.33,855.002,0.027,805.274,0.027
		c-49.692,0-96.371,19.303-131.424,54.356L517.992,210.241c-50.733,50.769-67.668,127.334-43.126,195.001
		c5.238,14.531,19.123,24.29,34.587,24.29c4.27,0,8.503-0.753,12.45-2.189c9.257-3.373,16.648-10.082,20.81-19.016
		c4.162-8.862,4.592-18.836,1.256-28.021c-14.854-41.081-4.664-87.437,25.976-118.113l155.858-155.822
		c21.204-21.169,49.441-32.829,79.508-32.829s58.267,11.625,79.436,32.793l32.973,32.937c43.772,43.808,43.772,115.135,0,158.943
		L761.824,454.109c-20.774,20.738-49.872,32.65-79.795,32.65c-12.737,0-25.259-2.117-37.135-6.243
		c-3.911-1.363-8.037-2.081-12.163-2.081c-15.607,0-29.528,9.903-34.659,24.577c-3.265,9.257-2.727,19.231,1.543,28.093
		s11.732,15.5,20.989,18.729c19.697,6.925,40.364,10.405,61.389,10.405c49.333,0,97.339-19.733,131.783-54.177L969.67,350.168
		C1042.11,277.729,1042.11,159.795,969.67,87.32z"/>
	<path fill="#333333" d="M87.302,969.688c34.946,35.018,81.624,54.285,131.424,54.285c49.728,0,96.406-19.267,131.424-54.285
		l155.858-155.858c50.733-50.733,67.668-127.262,43.162-194.966c-5.238-14.531-19.123-24.29-34.551-24.29
		c-4.341,0-8.575,0.753-12.486,2.189c-9.257,3.337-16.648,10.082-20.81,19.016c-4.162,8.862-4.592,18.836-1.256,28.021
		c14.854,41.081,4.628,87.437-26.012,118.077L298.198,917.736c-20.02,20.02-48.975,31.502-79.436,31.502
		c-30.533,0-59.487-11.481-79.508-31.502l-32.973-32.937c-43.772-43.808-43.772-115.135,0-158.943l155.894-155.894
		c20.81-20.774,49.836-32.686,79.651-32.686c12.773,0,25.295,2.117,37.17,6.279c3.983,1.435,8.109,2.153,12.342,2.153
		c15.571,0,29.457-9.903,34.587-24.613c3.265-9.257,2.727-19.231-1.543-28.093c-4.27-8.862-11.732-15.5-20.989-18.729
		c-19.697-6.925-40.364-10.405-61.353-10.405c-49.298,0-97.339,19.733-131.819,54.141L54.33,673.903
		c-72.439,72.439-72.439,190.373,0,262.848L87.302,969.688z"/>
	<path fill="#333333" d="M797.273,263.521c0-9.795-3.839-19.052-10.764-25.976c-6.925-6.925-16.181-10.764-25.976-10.764
		c-9.795,0-19.052,3.839-25.976,10.764L266.912,705.154c-6.925,6.925-10.764,16.181-10.764,25.976s3.839,19.052,10.764,25.976
		c6.925,6.925,16.181,10.764,25.976,10.764s19.052-3.839,25.976-10.764l467.645-467.609
		C793.434,282.573,797.273,273.316,797.273,263.521z"/>
</g>
</svg>
