<?xml version="1.0" encoding="UTF-8"?>
<svg width="1024px" height="1024px" viewBox="0 0 1024 1024" version="1.1" xmlns="http://www.w3.org/2000/svg" xmlns:xlink="http://www.w3.org/1999/xlink">
    <!-- Generator: Sketch 44.1 (41455) - http://www.bohemiancoding.com/sketch -->
    <title>其他</title>
    <desc>Created with Sketch.</desc>
    <defs></defs>
    <g id="设计稿" stroke="none" stroke-width="1" fill="none" fill-rule="evenodd">
        <g id="其他" fill-rule="nonzero" fill="#000000">
            <g id="Combined-Shape">
                <path d="M426.792972,554.266443 L43.5449898,554.266443 C20.3358729,554.266443 0.69738933,573.309821 0.69738933,597.114043 L0.69738933,980.362025 C0.69738933,1003.57114 19.7407673,1023.20963 43.5449898,1023.20963 L426.792972,1023.20963 C450.002089,1023.20963 469.640572,1004.16625 469.640572,980.362025 L469.640572,597.114043 C469.640572,573.309821 450.597194,554.266443 426.792972,554.266443 Z M401.203432,954.17738 L69.1345289,954.17738 L69.1345289,622.108477 L401.203432,622.108477 L401.203432,954.17738 Z M980.241144,554.266443 L596.993162,554.266443 C573.784045,554.266443 554.145562,573.309821 554.145562,597.114043 L554.145562,980.362025 C554.145562,1003.57114 573.18894,1023.20963 596.993162,1023.20963 L980.241144,1023.20963 C1003.45026,1023.20963 1023.08874,1004.16625 1023.08874,980.362025 L1023.08874,597.114043 C1022.49364,573.309821 1003.45026,554.266443 980.241144,554.266443 L980.241144,554.266443 Z M954.651605,954.17738 L622.582701,954.17738 L622.582701,622.108477 L954.651605,622.108477 L954.651605,954.17738 Z M426.792972,0.223164586 L43.5449898,0.223164586 C20.3358729,0.223164586 0.69738933,19.2665426 0.69738933,43.070765 L0.69738933,426.318747 C0.69738933,449.527864 19.7407673,469.166347 43.5449898,469.166347 L426.792972,469.166347 C450.002089,469.166347 469.640572,450.122969 469.640572,426.318747 L469.640572,43.070765 C469.640572,19.2665426 450.597194,0.223164586 426.792972,0.223164586 Z M401.203432,400.729208 L69.1345289,400.729208 L69.1345289,68.6603042 L401.203432,68.6603042 L401.203432,400.729208 Z M788.617153,0.223164586 L788.617153,0.223164586 C917.75506,0.223164586 1022.49364,105.556849 1023.08874,234.694756 C1023.08874,364.427768 918.350166,469.166347 788.617153,469.166347 C658.884141,469.166347 554.145562,363.832663 554.145562,234.694756 C554.145562,104.961743 659.479246,0.223164586 788.617153,0.223164586 Z M788.617153,68.6603042 C696.970897,68.6603042 622.582701,143.048499 622.582701,234.694756 C622.582701,326.341012 696.970897,400.729208 788.617153,400.729208 C880.26341,400.729208 954.651605,326.341012 954.651605,234.694756 C954.651605,143.048499 880.26341,68.6603042 788.617153,68.6603042 Z"></path>
            </g>
        </g>
    </g>
</svg>