<?xml version="1.0" encoding="utf-8"?>
<!-- Generator: Adobe Illustrator 17.0.0, SVG Export Plug-In . SVG Version: 6.00 Build 0)  -->
<!DOCTYPE svg PUBLIC "-//W3C//DTD SVG 1.1//EN" "http://www.w3.org/Graphics/SVG/1.1/DTD/svg11.dtd">
<svg version="1.1" id="图层_1" xmlns="http://www.w3.org/2000/svg" xmlns:xlink="http://www.w3.org/1999/xlink" x="0px" y="0px"
	 width="1024px" height="1024px" viewBox="0 0 1024 1024" enable-background="new 0 0 1024 1024" xml:space="preserve">
<g>
	<path fill="#333333" d="M918.864,319.869H805.585c-17.627,0-31.946,14.32-31.946,31.946c0,17.627,14.32,31.946,31.946,31.946
		h113.279c22.369,0,41.243,14.413,41.243,31.478v384.979c0,17.065-18.875,31.51-41.243,31.51H105.136
		c-22.369,0-41.243-14.444-41.243-31.51V415.241c0-17.065,18.875-31.478,41.243-31.478h113.996c17.627,0,31.946-14.32,31.946-31.946
		c0-17.627-14.32-31.946-31.946-31.946H105.136C47.171,319.869,0,362.641,0,415.241v384.979c0,52.599,47.171,95.402,105.136,95.402
		h813.728c57.965,0,105.136-42.803,105.136-95.402V415.241C1024,362.641,976.829,319.869,918.864,319.869z"/>
	<path fill="#333333" d="M512.016,128.378c-17.627,0-31.946,14.32-31.946,31.946v473.21L334.251,487.307
		c-6.021-6.021-14.07-9.359-22.587-9.359c-8.517,0-16.535,3.307-22.618,9.328c-12.417,12.417-12.448,32.664-0.062,45.174
		l200.102,200.694c5.959,5.959,14.195,9.359,22.618,9.359c0.055,0,0.101-0.031,0.156-0.031s0.101,0.031,0.156,0.031
		c9.219,0,17.377-4.04,23.211-10.295l199.727-199.727c12.448-12.448,12.448-32.726,0-45.174c-6.021-6.021-14.07-9.359-22.587-9.359
		c-8.517,0-16.566,3.338-22.587,9.359L543.962,633.125v-472.8C543.962,142.698,529.642,128.378,512.016,128.378z"/>
</g>
</svg>
