<?xml version="1.0" encoding="utf-8"?>
<!-- Generator: Adobe Illustrator 17.0.0, SVG Export Plug-In . SVG Version: 6.00 Build 0)  -->
<!DOCTYPE svg PUBLIC "-//W3C//DTD SVG 1.1//EN" "http://www.w3.org/Graphics/SVG/1.1/DTD/svg11.dtd">
<svg version="1.1" id="图层_1" xmlns="http://www.w3.org/2000/svg" xmlns:xlink="http://www.w3.org/1999/xlink" x="0px" y="0px"
	 width="1024px" height="1024px" viewBox="0 0 1024 1024" enable-background="new 0 0 1024 1024" xml:space="preserve">
<path d="M634.5,136.614c0,45.224-36.662,81.886-81.886,81.886H443.386c-45.224,0-81.886-36.662-81.886-81.886V82.386
	c0-45.224,36.662-81.886,81.886-81.886h109.228c45.224,0,81.886,36.662,81.886,81.886V136.614z"/>
<path d="M810.689,741.789L646.917,284.737c-3.852-10.902-14.167-11.237-25.736-11.237H402.819c-11.569,0-21.884,0.335-25.736,11.237
	L213.311,745.273c-3.678,10.409-0.72,20.262,7.477,27.632l272.953,244.787c5.185,4.678,11.728,6.575,18.259,6.575
	c6.531,0,13.075-2.55,18.259-7.228l272.953-245.767C811.409,763.902,814.367,752.198,810.689,741.789z M662.376,824.476
	L319.194,605.797l18.654-52.85l366.639,233.628L662.376,824.476z M371.99,456.215l18.532-52.508l307.863,183.9l28.073,79.539
	C724.858,666.562,371.99,456.215,371.99,456.215z"/>
</svg>
