<?xml version="1.0" encoding="utf-8"?>
<!-- Generator: Adobe Illustrator 18.1.0, SVG Export Plug-In . SVG Version: 6.00 Build 0)  -->
<svg version="1.1" id="图层_1" xmlns="http://www.w3.org/2000/svg" xmlns:xlink="http://www.w3.org/1999/xlink" x="0px" y="0px"
	 viewBox="0 0 1024 1024" enable-background="new 0 0 1024 1024" xml:space="preserve">
<g>
	<g>
		<path fill-rule="evenodd" clip-rule="evenodd" fill="#333333" d="M1013.3,248.5L776.4,11.3c-6.9-6.9-16.1-10.7-25.9-10.7H109.7
			C49.2,0.6,0,49.8,0,110.4v804.2c0,60.6,49.2,109.8,109.7,109.8h804.6c60.5,0,109.7-49.2,109.7-109.8V274.4
			C1024,264.7,1020.1,255.4,1013.3,248.5z M341.6,73.8h340.9v151.1H341.6V73.8z M768,960.5H256v-256h512V960.5z M950.9,914.6
			c0,20.2-16.4,36.6-36.6,36.6h-95.4V658.5c0-20.2-16.3-36.6-36.6-36.6H244.7c-20.2,0-36.6,16.4-36.6,36.6v292.7h-98.4
			c-20.1,0-36.6-16.5-36.6-36.6V110.4c0-20.2,16.4-36.6,36.6-36.6h158.8v187.7c0,20.2,16.3,36.6,36.6,36.6h414
			c20.2,0,36.6-16.4,36.6-36.6V94l195.3,195.6V914.6z"/>
	</g>
</g>
</svg>
