<?xml version="1.0" encoding="utf-8"?>
<!-- Generator: Adobe Illustrator 18.1.0, SVG Export Plug-In . SVG Version: 6.00 Build 0)  -->
<svg version="1.1" id="图层_1" xmlns="http://www.w3.org/2000/svg" xmlns:xlink="http://www.w3.org/1999/xlink" x="0px" y="0px"
	 viewBox="0 0 1024 1024" enable-background="new 0 0 1024 1024" xml:space="preserve">
<g>
	<g>
		<path fill="#333333" d="M808.5,3H296c-46.2,0-83.9,37.6-85.6,84.6c-44.8,2.8-80.5,41-80.5,87.7v758.9c0,48.5,38.4,87.9,85.7,87.9
			H728c46.2,0,83.9-37.6,85.6-84.6c44.9-2.8,80.5-41,80.5-87.7V90.8C894.1,42.4,855.7,3,808.5,3z M756.6,934.2
			c0,16.2-12.8,29.3-28.6,29.3H215.5c-15.8,0-28.6-13.1-28.6-29.3V175.2c0-16.2,12.8-29.3,28.6-29.3H728c15.8,0,28.6,13.1,28.6,29.3
			V934.2z M837,849.8c0,14.3-10.1,26.3-23.3,28.8V175.2c0-48.5-38.4-87.9-85.7-87.9H267.6c1.7-14.5,13.7-25.8,28.4-25.8h512.5
			c15.8,0,28.6,13.1,28.6,29.3V849.8z M676.8,540.4H275.1c-11.8,0-21.4,9.9-21.4,22c0,12.1,9.6,22,21.4,22h401.7
			c11.8,0,21.4-9.9,21.4-22C698.2,550.2,688.5,540.4,676.8,540.4z M676.8,272.3H552.5c-11.8,0-21.4,9.9-21.4,22
			c0,12.1,9.6,22,21.4,22h124.2c11.8,0,21.4-9.9,21.4-22C698.2,282.1,688.5,272.3,676.8,272.3z M676.8,406.3H552.5
			c-11.8,0-21.4,9.9-21.4,22s9.6,22,21.4,22h124.2c11.8,0,21.4-9.9,21.4-22S688.5,406.3,676.8,406.3z M676.8,674.4H275.1
			c-11.8,0-21.4,9.9-21.4,22c0,12.1,9.6,22,21.4,22h401.7c11.8,0,21.4-9.9,21.4-22C698.2,684.3,688.5,674.4,676.8,674.4z
			 M676.8,808.5H275.1c-11.8,0-21.4,9.9-21.4,22c0,12.1,9.6,22,21.4,22h401.7c11.8,0,21.4-9.9,21.4-22
			C698.2,818.3,688.5,808.5,676.8,808.5z M460.2,253.3H260.8v204.5h199.4V253.3z"/>
	</g>
</g>
</svg>
