<?xml version="1.0" encoding="utf-8"?>
<!-- Generator: Adobe Illustrator 17.0.0, SVG Export Plug-In . SVG Version: 6.00 Build 0)  -->
<!DOCTYPE svg PUBLIC "-//W3C//DTD SVG 1.1//EN" "http://www.w3.org/Graphics/SVG/1.1/DTD/svg11.dtd">
<svg version="1.1" id="图层_2" xmlns="http://www.w3.org/2000/svg" xmlns:xlink="http://www.w3.org/1999/xlink" x="0px" y="0px"
	 width="1024px" height="1024px" viewBox="0 0 1024 1024" enable-background="new 0 0 1024 1024" xml:space="preserve">
<g>
	<path d="M315.593,12.232c-0.15-0.15-0.354-0.19-0.505-0.335C308.254,4.613,298.61,0,287.837,0c-10.791,0-20.44,4.624-27.275,11.921
		c-0.14,0.135-0.329,0.173-0.468,0.311L12.85,259.476c-14.633,14.622-14.633,38.353,0,52.976
		c7.317,7.317,16.902,10.976,26.488,10.976s19.171-3.659,26.488-10.976l184.549-184.54v583.893
		c0,20.683,16.768,37.463,37.463,37.463c20.683,0,37.463-16.78,37.463-37.463V127.899l184.561,184.552
		c7.317,7.317,16.902,10.976,26.488,10.976s19.171-3.659,26.488-10.976c14.633-14.633,14.633-38.353,0-52.976L315.593,12.232z"/>
	<path d="M1011.15,764.525c14.633-14.622,14.633-38.342,0-52.976c-7.317-7.316-16.902-10.976-26.488-10.976
		s-19.171,3.659-26.488,10.976L773.613,896.101V312.195c0-20.683-16.78-37.463-37.463-37.463c-20.696,0-37.463,16.78-37.463,37.463
		v583.893l-184.55-184.539c-7.317-7.316-16.902-10.976-26.488-10.976s-19.171,3.659-26.488,10.976
		c-14.633,14.622-14.633,38.353,0,52.976l247.244,247.244c0.14,0.138,0.328,0.176,0.468,0.311
		c6.835,7.297,16.484,11.921,27.275,11.921c10.773,0,20.417-4.613,27.252-11.897c0.151-0.146,0.355-0.185,0.505-0.335
		L1011.15,764.525z"/>
</g>
</svg>
