<?xml version="1.0" encoding="utf-8"?>
<!-- Generator: Adobe Illustrator 18.1.0, SVG Export Plug-In . SVG Version: 6.00 Build 0)  -->
<svg version="1.1" id="图层_1" xmlns="http://www.w3.org/2000/svg" xmlns:xlink="http://www.w3.org/1999/xlink" x="0px" y="0px"
	 viewBox="0 0 1024 1024" enable-background="new 0 0 1024 1024" xml:space="preserve">
<g>
	<path fill="#333333" d="M951.1,73.1V0H73.3v73.1H0v877.6h73.3v73.1h877.8v-73.1l72.9,0V73.1H951.1z M731.1,731.5v-73.1l-72.8,0v0
		h-72.7v73.1H438.9v-73.1h146.3v-73.3h73.1v-73.3h73.1v146.6h146.4v73.1v73.1h-73.3v-73.1H731.1z M219.4,292l73.2,0l0-145.7h72.9
		h0.2h0V73.1h292.6v73.1h0.1h73V292l73.3,0v219.8l-73.3,0V292.9h-73.1v-73.5h-73.2v-73.1H438.8v73.1h-73.1l0,73.5h-72.9v218.9
		l-73.3,0V292z M951.1,950.7H73.3v-73v-0.2v-73h72.6v-73.1v-73.1h146.7l0-146.6h73.1l0,73.3h73.1v73.3h-73.1v0h-73.1v73.1h-73.3
		v73.1h-72.6v73h731.1v-73h73.3v73h0V950.7z"/>
</g>
</svg>
