<?xml version="1.0" encoding="utf-8"?>
<!-- Generator: Adobe Illustrator 18.1.0, SVG Export Plug-In . SVG Version: 6.00 Build 0)  -->
<svg version="1.1" id="图层_1" xmlns="http://www.w3.org/2000/svg" xmlns:xlink="http://www.w3.org/1999/xlink" x="0px" y="0px"
	 viewBox="0 0 1024 1024" enable-background="new 0 0 1024 1024" xml:space="preserve">
<path fill="#333333" d="M872,131.5h-191C666.2,56.9,596.2,0,511.5,0c-84.8,0-155.2,56.8-170,131.5H151c-48.4,0-87.8,36.5-87.8,86.1
	c0,40.2,31.7,73.5,73.2,80v639.3c0,48,42.2,87.1,94,87.1h562.3c51.8,0,94-39.1,94-87.1V297.5c41.5-6.5,73.2-40.3,73.2-84.8
	C959.9,167.9,920.5,131.5,872,131.5z M511.5,58.1c50,0,92.4,31,106,73.4H405.6C419.1,89.1,461.5,58.1,511.5,58.1z M199,936.9V298.9
	h122.5v667h-91.2C213,965.9,199,952.9,199,936.9z M384.2,298.9h252.2v667H384.2V298.9z M824,936.9c0,16-14,29.1-31.3,29.1h-93.6
	v-667H824V936.9z M872,240.8h-16.7H667.7H352.9H167.7H151c-13.9,0-25.1-10.4-25.1-28c0-12.8,11.3-23.2,25.1-23.2h218.7h283.6h1.3
	H872c13.9,0,25.2,10.4,25.2,28C897.2,230.4,885.9,240.8,872,240.8z"/>
</svg>
