<?xml version="1.0" encoding="utf-8"?>
<!-- Generator: Adobe Illustrator 17.0.0, SVG Export Plug-In . SVG Version: 6.00 Build 0)  -->
<!DOCTYPE svg PUBLIC "-//W3C//DTD SVG 1.1//EN" "http://www.w3.org/Graphics/SVG/1.1/DTD/svg11.dtd">
<svg version="1.1" id="图层_2" xmlns="http://www.w3.org/2000/svg" xmlns:xlink="http://www.w3.org/1999/xlink" x="0px" y="0px"
	 width="1024px" height="1024px" viewBox="0 0 1024 1024" enable-background="new 0 0 1024 1024" xml:space="preserve">
<path d="M549.925,16.717c-0.205-0.205-0.484-0.259-0.69-0.458C539.894,6.305,526.714,0,511.991,0
	c-14.748,0-27.935,6.319-37.276,16.292c-0.192,0.185-0.449,0.236-0.64,0.425l-337.9,337.9c-19.999,19.984-19.999,52.416,0,72.4
	c10,10,23.1,15,36.2,15s26.2-5.001,36.2-15l252.217-252.204V972.8c0,28.267,22.916,51.2,51.2,51.2c28.267,0,51.2-22.933,51.2-51.2
	V174.795l252.234,252.221c10,10,23.1,15,36.2,15s26.2-5.001,36.2-15c19.999-19.999,19.999-52.416,0-72.4L549.925,16.717z"/>
</svg>
