<?xml version="1.0" encoding="utf-8"?>
<!-- Generator: Adobe Illustrator 17.0.0, SVG Export Plug-In . SVG Version: 6.00 Build 0)  -->
<!DOCTYPE svg PUBLIC "-//W3C//DTD SVG 1.1//EN" "http://www.w3.org/Graphics/SVG/1.1/DTD/svg11.dtd">
<svg version="1.1" id="图层_1" xmlns="http://www.w3.org/2000/svg" xmlns:xlink="http://www.w3.org/1999/xlink" x="0px" y="0px"
	 width="1024px" height="1024px" viewBox="0 0 1024 1024" enable-background="new 0 0 1024 1024" xml:space="preserve">
<path fill="#333333" d="M742.028,611.954c45.648-64.862,73.382-148.78,73.382-240.532c0-204.785-137.514-371.42-306.554-371.42
	c-169.043,0-306.549,166.634-306.549,371.42c0,91.752,27.73,175.67,73.377,240.54C111.357,689.263,0.063,838.12,0.063,987.757
	c0,20.003,16.229,36.245,36.203,36.245h950.478c19.973,0,36.198-16.242,36.198-36.245
	C1022.941,839.262,909.46,690.26,742.028,611.954z M274.699,371.422c0-164.818,105.06-298.916,234.157-298.916
	s234.153,134.099,234.153,298.916c0,164.873-105.056,298.959-234.153,298.959S274.699,536.295,274.699,371.422z M75.184,951.499
	C92.505,835.42,190.018,725.521,325.937,668.808c51.136,46.304,114.317,74.077,182.919,74.077
	c68.584,0,131.762-27.764,182.889-74.047C827.814,725.9,929.147,837.864,947.538,951.499H75.184z"/>
</svg>
