<?xml version="1.0" encoding="utf-8"?>
<!-- Generator: Adobe Illustrator 17.0.0, SVG Export Plug-In . SVG Version: 6.00 Build 0)  -->
<!DOCTYPE svg PUBLIC "-//W3C//DTD SVG 1.1//EN" "http://www.w3.org/Graphics/SVG/1.1/DTD/svg11.dtd">
<svg version="1.1" id="图层_1" xmlns="http://www.w3.org/2000/svg" xmlns:xlink="http://www.w3.org/1999/xlink" x="0px" y="0px"
	 width="1024px" height="1024px" viewBox="0 0 1024 1024" enable-background="new 0 0 1024 1024" xml:space="preserve">
<path d="M512,0C229.23,0,0,229.23,0,512s229.23,512,512,512s512-229.23,512-512S794.77,0,512,0z M641.264,729.032H256.725
	c-9.796,0-17.725-7.907-17.725-17.668c0-72.158,45.174-143.932,111.681-181.883c-23.108-28.536-37.477-67.36-37.477-110.242
	c0-87.265,59.077-158.271,131.688-158.271s131.67,71.005,131.67,158.271c0,41.765-13.778,79.532-35.826,107.843
	c70.171,37.788,118.25,111.125,118.25,184.282C658.987,721.125,651.061,729.032,641.264,729.032z M781.279,729.032h-90.107
	c1.986-5.553,3.264-11.442,3.264-17.668c0-45.238-15.753-90.956-42.822-130.496c-2.718-3.967-5.804-7.711-8.745-11.546
	c-15.209-19.831-33.037-38.011-53.551-53.191c14.784-29.325,22.693-62.661,22.693-96.892c0-36.344-8.85-70.261-23.95-99.348
	c6.775-1.249,14.228-2.061,22.634-2.061c64.355,0,116.7,62.728,116.7,139.817c0,32.288-13.212,65.528-34.177,90.66
	C755.907,581.212,799,646.375,799,711.364C799,721.125,791.073,729.032,781.279,729.032z"/>
</svg>
