<?xml version="1.0" encoding="utf-8"?>
<!-- Generator: Adobe Illustrator 17.0.0, SVG Export Plug-In . SVG Version: 6.00 Build 0)  -->
<!DOCTYPE svg PUBLIC "-//W3C//DTD SVG 1.1//EN" "http://www.w3.org/Graphics/SVG/1.1/DTD/svg11.dtd">
<svg version="1.1" id="图层_1" xmlns="http://www.w3.org/2000/svg" xmlns:xlink="http://www.w3.org/1999/xlink" x="0px" y="0px"
	 width="1024px" height="1024px" viewBox="0 0 1024 1024" enable-background="new 0 0 1024 1024" xml:space="preserve">
<path fill="#333333" d="M128.557,992.067c0,17.619,14.314,31.933,31.933,31.933h703.02c17.619,0,31.933-14.314,31.933-31.933
	c0-16.419-12.598-29.477-28.541-31.247c2.331-19.381,3.906-38.895,3.906-58.502c0-189.32-146.917-349.046-277.938-399.846
	c131.021-50.799,277.938-210.525,277.938-399.846c0-13.366-0.6-26.686-1.668-39.9c14.836-2.752,26.304-15.171,26.304-30.795
	C895.443,14.314,881.129,0,863.51,0H160.49c-17.619,0-31.933,14.314-31.933,31.933c0,15.584,11.413,27.976,26.195,30.771
	c-1.091,13.292-1.715,26.624-1.715,39.924c0,189.32,146.917,349.046,277.954,399.846
	c-131.037,50.799-277.954,210.525-277.954,399.846c0,19.662,1.575,39.175,3.921,58.533
	C141.078,962.692,128.557,975.703,128.557,992.067z M216.903,102.628c0-12.988,0.78-25.914,1.957-38.762h586.149
	c1.169,12.817,1.933,25.743,1.933,38.762c0,109.176-58.962,208.506-130.709,273.837c-23.708-34.069-119.763-38.146-164.295-38.146
	c-44.539,0-140.618,4.077-164.31,38.162C275.872,311.15,216.903,211.812,216.903,102.628z M216.903,902.319
	c0-194.902,178.53-353.069,295.035-353.069c113.792,0,295.004,161.597,295.004,353.069c0,19.459-1.809,38.731-4.444,57.816H642.522
	c-11.795-48.145-108.054-113.043-130.584-113.043c-22.531,0-118.789,64.898-130.584,113.043H221.362
	C218.719,941.1,216.903,921.832,216.903,902.319z"/>
</svg>
