<?xml version="1.0" encoding="utf-8"?>
<!-- Generator: Adobe Illustrator 19.0.0, SVG Export Plug-In . SVG Version: 6.00 Build 0)  -->
<svg version="1.1" id="图层_1" xmlns="http://www.w3.org/2000/svg" xmlns:xlink="http://www.w3.org/1999/xlink" x="0px" y="0px"
	 viewBox="0 0 1024 1024" style="enable-background:new 0 0 1024 1024;" xml:space="preserve">
<path d="M512,0C229.7,0,0,229.7,0,512s229.7,512,512,512c282.3,0,512-229.7,512-512S794.3,0,512,0z M512,910.2
	c-219.6,0-398.2-178.7-398.2-398.2S292.4,113.8,512,113.8c219.6,0,398.2,178.6,398.2,398.2S731.6,910.2,512,910.2z M512,615.2
	L512,615.2c-56.9,0-103.5-50.6-103.5-112.5V294.5c0-61.8,46.6-112.5,103.5-112.5l0,0c56.9,0,103.5,50.6,103.5,112.5v208.4
	C615.5,564.7,568.9,615.2,512,615.2z M512,646.1c58,0,105,47,105,105s-47,105-105,105s-105-47-105-105S454,646.1,512,646.1z"/>
</svg>
